{
.appVersion = "964";
copyright = "Copyright 2017 Google Inc. All Rights Reserved.";
customParameters = (
{
name = glyphOrder;
value = (
.notdef,
NULL,
CR,
space,
uniA000,
uniA001,
uniA002,
uniA003,
uniA004,
uniA005,
uniA006,
uniA007,
uniA008,
uniA009,
uniA00A,
uniA00B,
uniA00C,
uniA00D,
uniA00E,
uniA00F,
uniA010,
uniA011,
uniA012,
uniA013,
uniA014,
uniA015,
uniA016,
uniA017,
uniA018,
uniA019,
uniA01A,
uniA01B,
uniA01C,
uniA01D,
uniA01E,
uniA01F,
uniA020,
uniA021,
uniA022,
uniA023,
uniA024,
uniA025,
uniA026,
uniA027,
uniA028,
uniA029,
uniA02A,
uniA02B,
uniA02C,
uniA02D,
uniA02E,
uniA02F,
uniA030,
uniA031,
uniA032,
uniA033,
uniA034,
uniA035,
uniA036,
uniA037,
uniA038,
uniA039,
uniA03A,
uniA03B,
uniA03C,
uniA03D,
uniA03E,
uniA03F,
uniA040,
uniA041,
uniA042,
uniA043,
uniA044,
uniA045,
uniA046,
uniA047,
uniA048,
uniA049,
uniA04A,
uniA04B,
uniA04C,
uniA04D,
uniA04E,
uniA04F,
uniA050,
uniA051,
uniA052,
uniA053,
uniA054,
uniA055,
uniA056,
uniA057,
uniA058,
uniA059,
uniA05A,
uniA05B,
uniA05C,
uniA05D,
uniA05E,
uniA05F,
uniA060,
uniA061,
uniA062,
uniA063,
uniA064,
uniA065,
uniA066,
uniA067,
uniA068,
uniA069,
uniA06A,
uniA06B,
uniA06C,
uniA06D,
uniA06E,
uniA06F,
uniA070,
uniA071,
uniA072,
uniA073,
uniA074,
uniA075,
uniA076,
uniA077,
uniA078,
uniA079,
uniA07A,
uniA07B,
uniA07C,
uniA07D,
uniA07E,
uniA07F,
uniA080,
uniA081,
uniA082,
uniA083,
uniA084,
uniA085,
uniA086,
uniA087,
uniA088,
uniA089,
uniA08A,
uniA08B,
uniA08C,
uniA08D,
uniA08E,
uniA08F,
uniA090,
uniA091,
uniA092,
uniA093,
uniA094,
uniA095,
uniA096,
uniA097,
uniA098,
uniA099,
uniA09A,
uniA09B,
uniA09C,
uniA09D,
uniA09E,
uniA09F,
uniA0A0,
uniA0A1,
uniA0A2,
uniA0A3,
uniA0A4,
uniA0A5,
uniA0A6,
uniA0A7,
uniA0A8,
uniA0A9,
uniA0AA,
uniA0AB,
uniA0AC,
uniA0AD,
uniA0AE,
uniA0AF,
uniA0B0,
uniA0B1,
uniA0B2,
uniA0B3,
uniA0B4,
uniA0B5,
uniA0B6,
uniA0B7,
uniA0B8,
uniA0B9,
uniA0BA,
uniA0BB,
uniA0BC,
uniA0BD,
uniA0BE,
uniA0BF,
uniA0C0,
uniA0C1,
uniA0C2,
uniA0C3,
uniA0C4,
uniA0C5,
uniA0C6,
uniA0C7,
uniA0C8,
uniA0C9,
uniA0CA,
uniA0CB,

glyphs = (
{
glyphname = uniA000;
lastChange = "2017-01-18 15:57:01 +0000";
layers = (
{
layerId = UUID0;
paths = (
{
closed = 1;
nodes = (
"473 -13 OFFCURVE",
"529 69 OFFCURVE",
"529 182 CURVE SMOOTH",
"529 714 LINE",
"461 714 LINE",
"461 559 LINE",
"215 559 LINE",
"215 714 LINE",
"146 714 LINE",
"146 332 LINE",
"49 332 LINE",
"49 273 LINE",
"146 273 LINE",
"146 182 LINE SMOOTH",
"146 69 OFFCURVE",
"203 -13 OFFCURVE",
"337 -13 CURVE SMOOTH"
);
},
{
closed = 1;
nodes = (
"274 46 OFFCURVE",
"215 76 OFFCURVE",
"215 181 CURVE SMOOTH",
"215 273 LINE",
"317 273 LINE",
"317 332 LINE",
"215 332 LINE",
"215 500 LINE",
"461 500 LINE",
"461 181 LINE SMOOTH",
"461 77 OFFCURVE",
"401 46 OFFCURVE",
"338 46 CURVE SMOOTH"
);
}
);
width = 617;
}
);
unicode = A000;
},
{
glyphname = uniA002;
lastChange = "2017-01-18 15:57:01 +0000";
layers = (
{
layerId = UUID0;
paths = (
{
closed = 1;
nodes = (
"473 -13 OFFCURVE",
"529 69 OFFCURVE",
"529 182 CURVE SMOOTH",
"529 714 LINE",
"461 714 LINE",
"461 559 LINE",
"215 559 LINE",
"215 714 LINE",
"146 714 LINE",
"146 428 LINE",
"115 433 OFFCURVE",
"84 434 OFFCURVE",
"59 435 CURVE",
"59 376 LINE",
"85 375 OFFCURVE",
"116 374 OFFCURVE",
"146 371 CURVE",
"146 182 LINE SMOOTH",
"146 174 OFFCURVE",
"146 167 OFFCURVE",
"147 160 CURVE",
"120 156 OFFCURVE",
"90 154 OFFCURVE",
"59 154 CURVE",
"59 96 LINE",
"92 96 OFFCURVE",
"125 99 OFFCURVE",
"157 104 CURVE",
"179 34 OFFCURVE",
"236 -13 OFFCURVE",
"337 -13 CURVE SMOOTH"
);
},
{
closed = 1;
nodes = (
"215 357 LINE",
"262 342 OFFCURVE",
"297 315 OFFCURVE",
"297 265 CURVE SMOOTH",
"297 225 OFFCURVE",
"265 195 OFFCURVE",
"215 177 CURVE"
);
},
{
closed = 1;
nodes = (
"289 46 OFFCURVE",
"242 64 OFFCURVE",
"223 122 CURVE",
"304 149 OFFCURVE",
"361 198 OFFCURVE",
"361 265 CURVE SMOOTH",
"361 351 OFFCURVE",
"293 394 OFFCURVE",
"215 415 CURVE",
"215 500 LINE",
"461 500 LINE",
"461 181 LINE SMOOTH",
"461 77 OFFCURVE",
"401 46 OFFCURVE",
"338 46 CURVE SMOOTH"
);
}
);
width = 617;
}
);
unicode = A002;
},
{
glyphname = uniA003;
lastChange = "2017-01-18 15:57:01 +0000";
layers = (
{
layerId = UUID0;
paths = (
{
closed = 1;
nodes = (
"469 0 LINE",
"469 619 LINE",
"582 560 LINE",
"602 619 LINE",
"401 729 LINE",
"401 468 LINE",
"373 468 LINE SMOOTH",
"306 468 OFFCURVE",
"244 454 OFFCURVE",
"194 427 CURVE",
"152 444 OFFCURVE",
"102 453 OFFCURVE",
"49 453 CURVE",
"49 395 LINE",
"80 395 OFFCURVE",
"109 391 OFFCURVE",
"136 383 CURVE",
"100 346 OFFCURVE",
"78 295 OFFCURVE",
"78 231 CURVE SMOOTH",
"78 169 OFFCURVE",
"97 120 OFFCURVE",
"132 83 CURVE",
"106 76 OFFCURVE",
"78 73 OFFCURVE",
"49 73 CURVE",
"49 15 LINE",
"98 15 OFFCURVE",
"147 23 OFFCURVE",
"189 40 CURVE",
"241 13 OFFCURVE",
"307 0 OFFCURVE",
"384 0 CURVE SMOOTH"
);
},
{
closed = 1;
nodes = (
"166 140 OFFCURVE",
"146 180 OFFCURVE",
"146 231 CURVE SMOOTH",
"146 284 OFFCURVE",
"167 325 OFFCURVE",
"200 355 CURVE",
"240 328 OFFCURVE",
"265 287 OFFCURVE",
"265 231 CURVE SMOOTH",
"265 177 OFFCURVE",
"239 137 OFFCURVE",
"198 111 CURVE"
);
},
{
closed = 1;
nodes = (
"324 59 OFFCURVE",
"288 64 OFFCURVE",
"256 77 CURVE",
"303 113 OFFCURVE",
"333 165 OFFCURVE",
"333 231 CURVE SMOOTH",
"333 301 OFFCURVE",
"305 354 OFFCURVE",
"259 391 CURVE",
"290 403 OFFCURVE",
"325 409 OFFCURVE",
"362 409 CURVE SMOOTH",
"401 409 LINE",
"401 59 LINE",
"362 59 LINE SMOOTH"
);
}
);
width = 641;
}
);
unicode = A003;
},
{
glyphname = uniA004;
lastChange = "2017-01-18 15:57:01 +0000";
layers = (
{
layerId = UUID0;
paths = (
{
closed = 1;
nodes = (
"449 -13 OFFCURVE",
"503 142 OFFCURVE",
"503 358 CURVE SMOOTH",
"503 416 OFFCURVE",
"500 469 OFFCURVE",
"491 517 CURVE",
"530 566 OFFCURVE",
"553 630 OFFCURVE",
"566 697 CURVE",
"502 697 LINE",
"494 661 OFFCURVE",
"483 628 OFFCURVE",
"469 599 CURVE",
"438 679 OFFCURVE",
"387 727 OFFCURVE",
"308 727 CURVE SMOOTH",
"229 727 OFFCURVE",
"177 679 OFFCURVE",
"146 599 CURVE",
"131 629 OFFCURVE",
"120 663 OFFCURVE",
"113 697 CURVE",
"49 697 LINE",
"62 630 OFFCURVE",
"85 566 OFFCURVE",
"124 517 CURVE",
"115 471 OFFCURVE",
"111 418 OFFCURVE",
"111 362 CURVE SMOOTH",
"111 334 OFFCURVE",
"112 308 OFFCURVE",
"114 283 CURVE",
"63 283 LINE",
"63 225 LINE",
"121 225 LINE",
"142 83 OFFCURVE",
"201 -13 OFFCURVE",
"308 -13 CURVE SMOOTH"
);
},
{
closed = 1;
nodes = (
"236 46 OFFCURVE",
"201 117 OFFCURVE",
"188 225 CURVE",
"282 225 LINE",
"282 283 LINE",
"182 283 LINE",
"180 308 OFFCURVE",
"180 334 OFFCURVE",
"180 362 CURVE SMOOTH",
"180 398 OFFCURVE",
"181 432 OFFCURVE",
"184 463 CURVE",
"217 442 OFFCURVE",
"258 430 OFFCURVE",
"307 430 CURVE SMOOTH",
"356 430 OFFCURVE",
"397 442 OFFCURVE",
"431 463 CURVE",
"434 431 OFFCURVE",
"435 395 OFFCURVE",
"435 358 CURVE SMOOTH",
"435 178 OFFCURVE",
"405 46 OFFCURVE",
"307 46 CURVE SMOOTH"
);
},
{
closed = 1;
nodes = (
"258 488 OFFCURVE",
"222 505 OFFCURVE",
"193 533 CURVE",
"210 617 OFFCURVE",
"245 668 OFFCURVE",
"307 668 CURVE SMOOTH",
"369 668 OFFCURVE",
"404 616 OFFCURVE",
"421 532 CURVE",
"391 504 OFFCURVE",
"353 488 OFFCURVE",
"305 488 CURVE SMOOTH"
);
}
);
width = 615;
}
);
unicode = A004;
},
{
glyphname = uniA006;
lastChange = "2017-01-18 15:57:01 +0000";
layers = (
{
layerId = UUID0;
paths = (
{
closed = 1;
nodes = (
"318 196 LINE",
"454 208 OFFCURVE",
"507 295 OFFCURVE",
"507 368 CURVE SMOOTH",
"507 440 OFFCURVE",
"454 528 OFFCURVE",
"318 541 CURVE",
"318 641 LINE",
"487 575 LINE",
"510 631 LINE",
"250 729 LINE",
"250 541 LINE",
"115 528 OFFCURVE",
"62 440 OFFCURVE",
"62 368 CURVE SMOOTH",
"62 292 OFFCURVE",
"115 208 OFFCURVE",
"250 196 CURVE",
"250 75 LINE",
"81 141 LINE",
"59 85 LINE",
"318 -13 LINE"
);
},
{
closed = 1;
nodes = (
"169 253 OFFCURVE",
"130 305 OFFCURVE",
"130 368 CURVE SMOOTH",
"130 432 OFFCURVE",
"169 483 OFFCURVE",
"285 483 CURVE SMOOTH",
"400 483 OFFCURVE",
"438 432 OFFCURVE",
"438 368 CURVE SMOOTH",
"438 305 OFFCURVE",
"400 253 OFFCURVE",
"285 253 CURVE SMOOTH"
);
}
);
width = 568;
}
);
unicode = A006;
},
{
glyphname = uniA007;
lastChange = "2017-01-18 15:57:01 +0000";
layers = (
{
layerId = UUID0;
paths = (
{
closed = 1;
nodes = (
"338 -13 OFFCURVE",
"389 29 OFFCURVE",
"413 107 CURVE",
"438 99 OFFCURVE",
"465 93 OFFCURVE",
"493 91 CURVE",
"493 0 LINE",
"562 0 LINE",
"562 218 LINE",
"493 218 LINE",
"493 149 LINE",
"469 151 OFFCURVE",
"447 156 OFFCURVE",
"425 164 CURVE",
"430 193 OFFCURVE",
"432 226 OFFCURVE",
"432 261 CURVE SMOOTH",
"432 458 LINE SMOOTH",
"432 491 OFFCURVE",
"430 522 OFFCURVE",
"426 550 CURVE",
"447 557 OFFCURVE",
"470 562 OFFCURVE",
"493 564 CURVE",
"493 496 LINE",
"562 496 LINE",
"562 714 LINE",
"493 714 LINE",
"493 623 LINE",
"465 620 OFFCURVE",
"439 615 OFFCURVE",
"414 606 CURVE",
"390 686 OFFCURVE",
"339 727 OFFCURVE",
"250 727 CURVE SMOOTH",
"115 727 OFFCURVE",
"68 633 OFFCURVE",
"68 458 CURVE",
"68 261 LINE SMOOTH",
"68 85 OFFCURVE",
"115 -13 OFFCURVE",
"250 -13 CURVE SMOOTH"
);
},
{
closed = 1;
nodes = (
"160 46 OFFCURVE",
"137 113 OFFCURVE",
"137 251 CURVE SMOOTH",
"137 462 LINE",
"137 601 OFFCURVE",
"160 668 OFFCURVE",
"250 668 CURVE SMOOTH",
"309 668 OFFCURVE",
"339 639 OFFCURVE",
"353 581 CURVE",
"273 536 OFFCURVE",
"219 459 OFFCURVE",
"219 360 CURVE SMOOTH",
"219 256 OFFCURVE",
"273 179 OFFCURVE",
"353 133 CURVE",
"339 75 OFFCURVE",
"309 46 OFFCURVE",
"250 46 CURVE SMOOTH"
);
},
{
closed = 1;
nodes = (
"313 236 OFFCURVE",
"283 292 OFFCURVE",
"283 360 CURVE SMOOTH",
"283 426 OFFCURVE",
"314 479 OFFCURVE",
"362 516 CURVE",
"363 499 OFFCURVE",
"363 481 OFFCURVE",
"363 462 CURVE SMOOTH",
"363 251 LINE SMOOTH",
"363 232 OFFCURVE",
"363 215 OFFCURVE",
"362 199 CURVE"
);
}
);
width = 630;
}
);
unicode = A007;
},
{
glyphname = uniA008;
lastChange = "2017-01-18 15:57:01 +0000";
layers = (
{
layerId = UUID0;
paths = (
{
closed = 1;
nodes = (
"302 0 LINE",
"302 533 LINE",
"467 427 LINE",
"467 714 LINE",
"403 714 LINE",
"403 535 LINE",
"233 641 LINE",
"233 369 LINE",
"81 520 LINE",
"39 475 LINE",
"233 286 LINE",
"233 0 LINE"
);
}
);
width = 525;
}
);
unicode = A008;
},
{
glyphname = uniA00A;
lastChange = "2017-01-18 15:57:01 +0000";
layers = (
{
layerId = UUID0;
paths = (
{
closed = 1;
nodes = (
"284 595 LINE",
"387 513 LINE",
"387 0 LINE",
"455 0 LINE",
"455 714 LINE",
"387 714 LINE",
"387 590 LINE",
"216 727 LINE",
"216 397 LINE",
"79 508 LINE",
"42 458 LINE",
"216 319 LINE",
"216 97 LINE",
"69 169 LINE",
"39 115 LINE",
"284 -13 LINE"
);
}
);
width = 543;
}
);
unicode = A00A;
},
{
glyphname = uniA00B;
lastChange = "2017-01-18 15:57:01 +0000";
layers = (
{
layerId = UUID0;
paths = (
{
closed = 1;
nodes = (
"284 624 LINE",
"369 579 LINE",
"366 563 OFFCURVE",
"364 546 OFFCURVE",
"364 528 CURVE SMOOTH",
"364 442 OFFCURVE",
"414 366 OFFCURVE",
"470 331 CURVE",
"513 381 LINE",
"466 410 OFFCURVE",
"433 470 OFFCURVE",
"433 528 CURVE SMOOTH",
"433 594 OFFCURVE",
"468 656 OFFCURVE",
"512 683 CURVE",
"471 731 LINE",
"439 712 OFFCURVE",
"409 680 OFFCURVE",
"389 638 CURVE",
"216 727 LINE",
"216 397 LINE",
"79 508 LINE",
"42 458 LINE",
"216 319 LINE",
"216 97 LINE",
"69 169 LINE",
"39 115 LINE",
"284 -13 LINE"
);
}
);
width = 562;
}
);
unicode = A00B;
},
{
glyphname = uniA00D;
lastChange = "2017-01-18 15:57:01 +0000";
layers = (
{
layerId = UUID0;
paths = (
{
closed = 1;
nodes = (
"156 0 LINE",
"156 342 LINE",
"437 342 LINE",
"437 0 LINE",
"505 0 LINE",
"505 714 LINE",
"437 714 LINE",
"437 400 LINE",
"156 400 LINE",
"156 714 LINE",
"88 714 LINE",
"88 0 LINE"
);
},
{
closed = 1;
nodes = (
"328 85 LINE",
"328 250 LINE",
"265 250 LINE",
"265 85 LINE"
);
},
{
closed = 1;
nodes = (
"328 474 LINE",
"328 638 LINE",
"265 638 LINE",
"265 474 LINE"
);
}
);
width = 593;
}
);
unicode = A00D;
},
{
glyphname = uniA00E;
lastChange = "2017-01-18 15:57:01 +0000";
layers = (
{
layerId = UUID0;
paths = (
{
closed = 1;
nodes = (
"428 -13 OFFCURVE",
"468 151 OFFCURVE",
"468 368 CURVE SMOOTH",
"468 395 OFFCURVE",
"467 411 OFFCURVE",
"466 430 CURVE",
"515 448 OFFCURVE",
"534 502 OFFCURVE",
"534 571 CURVE SMOOTH",
"534 657 OFFCURVE",
"505 727 OFFCURVE",
"425 727 CURVE SMOOTH",
"343 727 OFFCURVE",
"314 658 OFFCURVE",
"314 571 CURVE SMOOTH",
"314 495 OFFCURVE",
"336 438 OFFCURVE",
"398 426 CURVE",
"399 405 OFFCURVE",
"399 385 OFFCURVE",
"399 358 CURVE SMOOTH",
"399 178 OFFCURVE",
"384 46 OFFCURVE",
"286 46 CURVE SMOOTH",
"188 46 OFFCURVE",
"173 183 OFFCURVE",
"173 362 CURVE SMOOTH",
"173 387 OFFCURVE",
"173 406 OFFCURVE",
"174 426 CURVE",
"236 438 OFFCURVE",
"259 495 OFFCURVE",
"259 571 CURVE SMOOTH",
"259 658 OFFCURVE",
"229 727 OFFCURVE",
"147 727 CURVE SMOOTH",
"68 727 OFFCURVE",
"39 657 OFFCURVE",
"39 571 CURVE SMOOTH",
"39 502 OFFCURVE",
"58 448 OFFCURVE",
"106 430 CURVE",
"105 413 OFFCURVE",
"105 396 OFFCURVE",
"105 372 CURVE SMOOTH",
"105 148 OFFCURVE",
"148 -13 OFFCURVE",
"287 -13 CURVE SMOOTH"
);
},
{
closed = 1;
nodes = (
"110 477 OFFCURVE",
"98 512 OFFCURVE",
"98 571 CURVE SMOOTH",
"98 629 OFFCURVE",
"104 672 OFFCURVE",
"147 672 CURVE SMOOTH",
"193 672 OFFCURVE",
"201 631 OFFCURVE",
"201 571 CURVE SMOOTH",
"201 513 OFFCURVE",
"188 477 OFFCURVE",
"150 477 CURVE SMOOTH"
);
},
{
closed = 1;
nodes = (
"384 477 OFFCURVE",
"372 513 OFFCURVE",
"372 571 CURVE SMOOTH",
"372 631 OFFCURVE",
"380 672 OFFCURVE",
"425 672 CURVE SMOOTH",
"468 672 OFFCURVE",
"475 629 OFFCURVE",
"475 571 CURVE SMOOTH",
"475 512 OFFCURVE",
"463 477 OFFCURVE",
"422 477 CURVE SMOOTH"
);
}
);
width = 573;
}
);
unicode = A00E;
},
{
glyphname = uniA00F;
lastChange = "2017-01-18 15:57:01 +0000";
layers = (
{
layerId = UUID0;
paths = (
{
closed = 1;
nodes = (
"264 -10 OFFCURVE",
"327 -7 OFFCURVE",
"353 0 CURVE",
"334 57 LINE",
"306 51 OFFCURVE",
"270 49 OFFCURVE",
"242 49 CURVE SMOOTH",
"189 49 OFFCURVE",
"141 63 OFFCURVE",
"141 100 CURVE SMOOTH",
"141 142 OFFCURVE",
"185 155 OFFCURVE",
"299 158 CURVE",
"299 213 LINE",
"187 213 OFFCURVE",
"162 233 OFFCURVE",
"162 265 CURVE SMOOTH",
"162 310 OFFCURVE",
"224 315 OFFCURVE",
"317 315 CURVE SMOOTH",
"324 315 LINE",
"324 406 LINE",
"461 416 OFFCURVE",
"523 484 OFFCURVE",
"523 566 CURVE SMOOTH",
"523 654 OFFCURVE",
"452 727 OFFCURVE",
"292 727 CURVE SMOOTH",
"131 727 OFFCURVE",
"59 654 OFFCURVE",
"59 566 CURVE SMOOTH",
"59 484 OFFCURVE",
"122 415 OFFCURVE",
"261 406 CURVE",
"261 373 LINE",
"149 367 OFFCURVE",
"93 328 OFFCURVE",
"93 272 CURVE SMOOTH",
"93 247 OFFCURVE",
"103 213 OFFCURVE",
"149 194 CURVE",
"103 179 OFFCURVE",
"73 151 OFFCURVE",
"73 100 CURVE SMOOTH",
"73 -3 OFFCURVE",
"187 -10 OFFCURVE",
"241 -10 CURVE SMOOTH"
);
},
{
closed = 1;
nodes = (
"167 467 OFFCURVE",
"122 509 OFFCURVE",
"122 566 CURVE SMOOTH",
"122 624 OFFCURVE",
"167 665 OFFCURVE",
"261 671 CURVE",
"261 460 LINE"
);
},
{
closed = 1;
nodes = (
"324 671 LINE",
"417 664 OFFCURVE",
"460 623 OFFCURVE",
"460 566 CURVE SMOOTH",
"460 509 OFFCURVE",
"417 468 OFFCURVE",
"324 460 CURVE"
);
}
);
width = 582;
}
);
unicode = A00F;
},
{
glyphname = uniA011;
lastChange = "2017-01-18 15:57:01 +0000";
layers = (
{
layerId = UUID0;
paths = (
{
closed = 1;
nodes = (
"601 -13 OFFCURVE",
"617 161 OFFCURVE",
"617 358 CURVE SMOOTH",
"617 564 OFFCURVE",
"602 727 OFFCURVE",
"460 727 CURVE SMOOTH",
"367 727 OFFCURVE",
"328 654 OFFCURVE",
"312 545 CURVE",
"158 670 LINE",
"158 179 LINE",
"63 227 LINE",
"39 172 LINE",
"222 87 LINE",
"222 542 LINE",
"305 474 LINE",
"303 438 OFFCURVE",
"303 401 OFFCURVE",
"303 362 CURVE SMOOTH",
"303 158 OFFCURVE",
"318 -13 OFFCURVE",
"459 -13 CURVE SMOOTH"
);
},
{
closed = 1;
nodes = (
"376 46 OFFCURVE",
"371 183 OFFCURVE",
"371 362 CURVE SMOOTH",
"371 543 OFFCURVE",
"376 668 OFFCURVE",
"459 668 CURVE SMOOTH",
"543 668 OFFCURVE",
"548 539 OFFCURVE",
"548 358 CURVE SMOOTH",
"548 178 OFFCURVE",
"543 46 OFFCURVE",
"459 46 CURVE SMOOTH"
);
},
{
closed = 1;
nodes = (
"492 269 LINE",
"492 462 LINE",
"428 462 LINE",
"428 269 LINE"
);
}
);
width = 685;
}
);
unicode = A011;
},
{
glyphname = uniA012;
lastChange = "2017-01-18 15:57:01 +0000";
layers = (
{
layerId = UUID0;
paths = (
{
closed = 1;
nodes = (
"601 -13 OFFCURVE",
"617 161 OFFCURVE",
"617 358 CURVE SMOOTH",
"617 564 OFFCURVE",
"602 727 OFFCURVE",
"460 727 CURVE SMOOTH",
"367 727 OFFCURVE",
"328 654 OFFCURVE",
"312 545 CURVE",
"158 670 LINE",
"158 179 LINE",
"63 227 LINE",
"39 172 LINE",
"222 84 LINE",
"222 539 LINE",
"305 473 LINE",
"303 438 OFFCURVE",
"303 401 OFFCURVE",
"303 362 CURVE SMOOTH",
"303 158 OFFCURVE",
"318 -13 OFFCURVE",
"459 -13 CURVE SMOOTH"
);
},
{
closed = 1;
nodes = (
"376 46 OFFCURVE",
"371 183 OFFCURVE",
"371 362 CURVE SMOOTH",
"371 543 OFFCURVE",
"376 668 OFFCURVE",
"459 668 CURVE SMOOTH",
"543 668 OFFCURVE",
"548 539 OFFCURVE",
"548 358 CURVE SMOOTH",
"548 178 OFFCURVE",
"543 46 OFFCURVE",
"459 46 CURVE SMOOTH"
);
}
);
width = 685;
}
);
unicode = A012;
},
{
glyphname = uniA014;
lastChange = "2017-01-18 15:57:01 +0000";
layers = (
{
layerId = UUID0;
paths = (
{
closed = 1;
nodes = (
"389 624 LINE",
"509 561 LINE",
"539 615 LINE",
"321 727 LINE",
"321 459 LINE",
"194 459 LINE",
"208 479 OFFCURVE",
"216 502 OFFCURVE",
"216 526 CURVE SMOOTH",
"216 597 OFFCURVE",
"161 668 OFFCURVE",
"39 670 CURVE",
"39 617 LINE",
"122 608 OFFCURVE",
"148 573 OFFCURVE",
"148 521 CURVE SMOOTH",
"148 490 OFFCURVE",
"133 459 OFFCURVE",
"103 445 CURVE",
"103 418 LINE",
"105 417 LINE SMOOTH",
"134 403 OFFCURVE",
"148 373 OFFCURVE",
"148 343 CURVE SMOOTH",
"148 291 OFFCURVE",
"122 256 OFFCURVE",
"39 247 CURVE",
"39 194 LINE",
"161 196 OFFCURVE",
"216 267 OFFCURVE",
"216 338 CURVE SMOOTH",
"216 362 OFFCURVE",
"208 385 OFFCURVE",
"193 406 CURVE",
"321 406 LINE",
"321 99 LINE",
"201 163 LINE",
"171 108 LINE",
"389 -13 LINE"
);
}
);
width = 578;
}
);
unicode = A014;
},
{
glyphname = uniA015;
lastChange = "2017-01-18 15:57:01 +0000";
layers = (
{
layerId = UUID0;
paths = (
{
closed = 1;
nodes = (
"259 368 OFFCURVE",
"293 390 OFFCURVE",
"318 428 CURVE",
"343 390 OFFCURVE",
"378 368 OFFCURVE",
"431 368 CURVE SMOOTH",
"563 368 OFFCURVE",
"568 492 OFFCURVE",
"568 601 CURVE SMOOTH",
"568 714 LINE",
"500 714 LINE",
"500 611 LINE SMOOTH",
"500 474 OFFCURVE",
"491 427 OFFCURVE",
"426 427 CURVE SMOOTH",
"382 427 OFFCURVE",
"353 459 OFFCURVE",
"353 544 CURVE SMOOTH",
"353 714 LINE",
"284 714 LINE",
"284 544 LINE SMOOTH",
"284 459 OFFCURVE",
"255 427 OFFCURVE",
"210 427 CURVE SMOOTH",
"146 427 OFFCURVE",
"137 474 OFFCURVE",
"137 611 CURVE SMOOTH",
"137 714 LINE",
"68 714 LINE",
"68 601 LINE SMOOTH",
"68 492 OFFCURVE",
"74 368 OFFCURVE",
"206 368 CURVE SMOOTH"
);
},
{
closed = 1;
nodes = (
"234 0 LINE",
"234 288 LINE",
"171 288 LINE",
"171 0 LINE"
);
},
{
closed = 1;
nodes = (
"466 0 LINE",
"466 288 LINE",
"402 288 LINE",
"402 0 LINE"
);
}
);
width = 637;
}
);
unicode = A015;
},
{
glyphname = uniA016;
lastChange = "2017-01-18 15:57:01 +0000";
layers = (
{
layerId = UUID0;
paths = (
{
closed = 1;
nodes = (
"385 -13 OFFCURVE",
"432 85 OFFCURVE",
"432 261 CURVE SMOOTH",
"432 304 LINE",
"545 189 LINE",
"587 228 LINE",
"436 379 LINE",
"587 532 LINE",
"546 571 LINE",
"432 455 LINE",
"432 458 LINE SMOOTH",
"432 633 OFFCURVE",
"385 727 OFFCURVE",
"250 727 CURVE SMOOTH",
"115 727 OFFCURVE",
"68 633 OFFCURVE",
"68 458 CURVE",
"68 261 LINE SMOOTH",
"68 85 OFFCURVE",
"115 -13 OFFCURVE",
"250 -13 CURVE SMOOTH"
);
},
{
closed = 1;
nodes = (
"160 46 OFFCURVE",
"137 113 OFFCURVE",
"137 251 CURVE SMOOTH",
"137 462 LINE",
"137 601 OFFCURVE",
"160 668 OFFCURVE",
"250 668 CURVE SMOOTH",
"340 668 OFFCURVE",
"363 601 OFFCURVE",
"363 462 CURVE SMOOTH",
"363 453 LINE",
"247 571 LINE",
"207 532 LINE",
"357 379 LINE",
"207 228 LINE",
"248 189 LINE",
"363 306 LINE",
"363 251 LINE SMOOTH",
"363 113 OFFCURVE",
"340 46 OFFCURVE",
"250 46 CURVE SMOOTH"
);
}
);
width = 626;
}
);
unicode = A016;
},
{
glyphname = uniA018;
lastChange = "2017-01-18 15:57:01 +0000";
layers = (
{
layerId = UUID0;
paths = (
{
closed = 1;
nodes = (
"156 0 LINE",
"156 339 LINE",
"227 339 LINE",
"234 189 OFFCURVE",
"330 78 OFFCURVE",
"466 28 CURVE",
"493 82 LINE",
"380 123 OFFCURVE",
"302 215 OFFCURVE",
"295 339 CURVE",
"466 339 LINE",
"466 397 LINE",
"297 397 LINE",
"311 509 OFFCURVE",
"383 591 OFFCURVE",
"487 630 CURVE",
"466 686 LINE",
"336 639 OFFCURVE",
"243 536 OFFCURVE",
"228 397 CURVE",
"156 397 LINE",
"156 714 LINE",
"88 714 LINE",
"88 0 LINE"
);
}
);
width = 532;
}
);
unicode = A018;
},
{
glyphname = uniA019;
lastChange = "2017-01-18 15:57:01 +0000";
layers = (
{
layerId = UUID0;
paths = (
{
closed = 1;
nodes = (
"156 0 LINE",
"156 238 LINE",
"193 238 LINE",
"211 145 OFFCURVE",
"320 82 OFFCURVE",
"464 81 CURVE",
"464 139 LINE",
"348 139 OFFCURVE",
"275 179 OFFCURVE",
"258 238 CURVE",
"474 238 LINE",
"474 296 LINE",
"258 296 LINE",
"279 371 OFFCURVE",
"380 388 OFFCURVE",
"464 391 CURVE",
"464 449 LINE",
"362 448 OFFCURVE",
"215 415 OFFCURVE",
"193 296 CURVE",
"156 296 LINE",
"156 593 LINE",
"433 485 LINE",
"433 714 LINE",
"365 714 LINE",
"365 574 LINE",
"88 685 LINE",
"88 0 LINE"
);
}
);
width = 532;
}
);
unicode = A019;
},
{
glyphname = uniA01A;
lastChange = "2017-01-18 15:57:01 +0000";
layers = (
{
layerId = UUID0;
paths = (
{
closed = 1;
nodes = (
"366 -13 OFFCURVE",
"391 150 OFFCURVE",
"392 339 CURVE",
"432 339 LINE",
"439 217 OFFCURVE",
"503 115 OFFCURVE",
"605 59 CURVE",
"636 112 LINE",
"556 159 OFFCURVE",
"507 231 OFFCURVE",
"500 339 CURVE",
"574 339 LINE",
"574 397 LINE",
"501 397 LINE",
"510 496 OFFCURVE",
"556 564 OFFCURVE",
"636 614 CURVE",
"605 667 LINE",
"501 606 OFFCURVE",
"443 508 OFFCURVE",
"433 397 CURVE",
"392 397 LINE",
"389 584 OFFCURVE",
"363 727 OFFCURVE",
"230 727 CURVE SMOOTH",
"92 727 OFFCURVE",
"68 566 OFFCURVE",
"68 362 CURVE SMOOTH",
"68 158 OFFCURVE",
"88 -13 OFFCURVE",
"229 -13 CURVE SMOOTH"
);
},
{
closed = 1;
nodes = (
"147 46 OFFCURVE",
"137 183 OFFCURVE",
"137 362 CURVE SMOOTH",
"137 543 OFFCURVE",
"147 668 OFFCURVE",
"229 668 CURVE SMOOTH",
"313 668 OFFCURVE",
"324 539 OFFCURVE",
"324 358 CURVE SMOOTH",
"324 178 OFFCURVE",
"313 46 OFFCURVE",
"229 46 CURVE SMOOTH"
);
}
);
width = 675;
}
);
unicode = A01A;
},
{
glyphname = uniA01C;
lastChange = "2017-01-18 15:57:01 +0000";
layers = (
{
layerId = UUID0;
paths = (
{
closed = 1;
nodes = (
"385 -13 OFFCURVE",
"432 85 OFFCURVE",
"432 261 CURVE SMOOTH",
"432 458 LINE SMOOTH",
"432 484 OFFCURVE",
"430 509 OFFCURVE",
"428 532 CURVE",
"545 676 LINE",
"500 714 LINE",
"414 607 LINE",
"390 686 OFFCURVE",
"339 727 OFFCURVE",
"250 727 CURVE SMOOTH",
"115 727 OFFCURVE",
"68 633 OFFCURVE",
"68 458 CURVE",
"68 261 LINE SMOOTH",
"68 85 OFFCURVE",
"115 -13 OFFCURVE",
"250 -13 CURVE SMOOTH"
);
},
{
closed = 1;
nodes = (
"178 46 OFFCURVE",
"148 89 OFFCURVE",
"140 178 CURVE",
"363 453 LINE",
"363 251 LINE SMOOTH",
"363 113 OFFCURVE",
"340 46 OFFCURVE",
"250 46 CURVE SMOOTH"
);
},
{
closed = 1;
nodes = (
"137 462 LINE",
"137 601 OFFCURVE",
"160 668 OFFCURVE",
"250 668 CURVE SMOOTH",
"321 668 OFFCURVE",
"350 626 OFFCURVE",
"359 541 CURVE",
"137 267 LINE"
);
}
);
width = 584;
}
);
unicode = A01C;
},
{
glyphname = uniA01D;
lastChange = "2017-01-18 15:57:01 +0000";
layers = (
{
layerId = UUID0;
paths = (
{
closed = 1;
nodes = (
"366 -13 OFFCURVE",
"390 148 OFFCURVE",
"392 336 CURVE",
"396 336 LINE SMOOTH",
"454 336 OFFCURVE",
"495 284 OFFCURVE",
"495 220 CURVE SMOOTH",
"495 164 OFFCURVE",
"480 125 OFFCURVE",
"434 89 CURVE",
"472 45 LINE",
"546 103 OFFCURVE",
"564 163 OFFCURVE",
"564 220 CURVE SMOOTH",
"564 272 OFFCURVE",
"536 331 OFFCURVE",
"488 362 CURVE",
"534 394 OFFCURVE",
"564 448 OFFCURVE",
"564 503 CURVE SMOOTH",
"564 551 OFFCURVE",
"557 615 OFFCURVE",
"479 678 CURVE",
"435 636 LINE",
"487 598 OFFCURVE",
"496 545 OFFCURVE",
"496 505 CURVE SMOOTH",
"496 443 OFFCURVE",
"456 390 OFFCURVE",
"396 390 CURVE SMOOTH",
"392 390 LINE",
"390 580 OFFCURVE",
"365 727 OFFCURVE",
"230 727 CURVE SMOOTH",
"92 727 OFFCURVE",
"68 566 OFFCURVE",
"68 362 CURVE SMOOTH",
"68 158 OFFCURVE",
"88 -13 OFFCURVE",
"229 -13 CURVE SMOOTH"
);
},
{
closed = 1;
nodes = (
"147 46 OFFCURVE",
"137 183 OFFCURVE",
"137 362 CURVE SMOOTH",
"137 543 OFFCURVE",
"147 668 OFFCURVE",
"229 668 CURVE SMOOTH",
"313 668 OFFCURVE",
"324 539 OFFCURVE",
"324 358 CURVE SMOOTH",
"324 178 OFFCURVE",
"313 46 OFFCURVE",
"229 46 CURVE SMOOTH"
);
}
);
width = 627;
}
);
unicode = A01D;
},
{
glyphname = uniA01E;
lastChange = "2017-01-18 15:57:01 +0000";
layers = (
{
layerId = UUID0;
paths = (
{
closed = 1;
nodes = (
"144 361 LINE",
"144 513 LINE",
"370 513 LINE",
"370 361 LINE",
"438 361 LINE",
"438 714 LINE",
"370 714 LINE",
"370 571 LINE",
"144 571 LINE",
"144 714 LINE",
"75 714 LINE",
"75 361 LINE"
);
},
{
closed = 1;
nodes = (
"387 -13 OFFCURVE",
"431 81 OFFCURVE",
"431 165 CURVE SMOOTH",
"431 248 OFFCURVE",
"388 353 OFFCURVE",
"257 353 CURVE SMOOTH",
"126 353 OFFCURVE",
"83 246 OFFCURVE",
"83 165 CURVE SMOOTH",
"83 81 OFFCURVE",
"128 -13 OFFCURVE",
"257 -13 CURVE SMOOTH"
);
},
{
closed = 1;
nodes = (
"167 42 OFFCURVE",
"146 107 OFFCURVE",
"146 165 CURVE SMOOTH",
"146 224 OFFCURVE",
"168 299 OFFCURVE",
"257 299 CURVE SMOOTH",
"352 299 OFFCURVE",
"367 219 OFFCURVE",
"367 165 CURVE SMOOTH",
"367 112 OFFCURVE",
"350 42 OFFCURVE",
"257 42 CURVE SMOOTH"
);
}
);
width = 514;
}
);
unicode = A01E;
},
{
glyphname = uniA020;
lastChange = "2017-01-18 15:57:01 +0000";
layers = (
{
layerId = UUID0;
paths = (
{
closed = 1;
nodes = (
"259 -13 OFFCURVE",
"293 9 OFFCURVE",
"318 47 CURVE",
"343 9 OFFCURVE",
"378 -13 OFFCURVE",
"431 -13 CURVE SMOOTH",
"563 -13 OFFCURVE",
"568 111 OFFCURVE",
"568 220 CURVE SMOOTH",
"568 284 LINE",
"500 284 LINE",
"500 230 LINE SMOOTH",
"500 93 OFFCURVE",
"491 46 OFFCURVE",
"426 46 CURVE SMOOTH",
"382 46 OFFCURVE",
"353 78 OFFCURVE",
"353 164 CURVE SMOOTH",
"353 284 LINE",
"284 284 LINE",
"284 164 LINE SMOOTH",
"284 78 OFFCURVE",
"255 46 OFFCURVE",
"210 46 CURVE SMOOTH",
"146 46 OFFCURVE",
"137 93 OFFCURVE",
"137 230 CURVE SMOOTH",
"137 284 LINE",
"68 284 LINE",
"68 220 LINE SMOOTH",
"68 111 OFFCURVE",
"74 -13 OFFCURVE",
"206 -13 CURVE SMOOTH"
);
},
{
closed = 1;
nodes = (
"215 325 LINE",
"215 496 LINE",
"422 496 LINE",
"422 325 LINE",
"490 325 LINE",
"490 714 LINE",
"422 714 LINE",
"422 554 LINE",
"215 554 LINE",
"215 714 LINE",
"146 714 LINE",
"146 325 LINE"
);
}
);
width = 637;
}
);
unicode = A020;
},
{
glyphname = uniA021;
lastChange = "2017-01-18 15:57:01 +0000";
layers = (
{
layerId = UUID0;
paths = (
{
closed = 1;
nodes = (
"199 325 LINE",
"199 496 LINE",
"406 496 LINE",
"406 325 LINE",
"475 325 LINE",
"475 714 LINE",
"406 714 LINE",
"406 554 LINE",
"199 554 LINE",
"199 714 LINE",
"131 714 LINE",
"131 325 LINE"
);
},
{
closed = 1;
nodes = (
"272 239 LINE",
"219 273 LINE",
"59 22 LINE",
"112 -12 LINE"
);
},
{
closed = 1;
nodes = (
"547 22 LINE",
"386 273 LINE",
"333 239 LINE",
"494 -12 LINE"
);
}
);
width = 605;
}
);
unicode = A021;
},
{
glyphname = uniA023;
lastChange = "2017-01-18 15:57:01 +0000";
layers = (
{
layerId = UUID0;
paths = (
{
closed = 1;
nodes = (
"145 0 LINE",
"145 160 LINE",
"243 124 OFFCURVE",
"306 91 OFFCURVE",
"362 91 CURVE SMOOTH",
"464 91 OFFCURVE",
"495 127 OFFCURVE",
"495 264 CURVE SMOOTH",
"495 523 LINE SMOOTH",
"495 680 OFFCURVE",
"416 727 OFFCURVE",
"312 727 CURVE SMOOTH",
"215 727 OFFCURVE",
"118 676 OFFCURVE",
"49 615 CURVE",
"83 570 LINE",
"167 644 OFFCURVE",
"250 668 OFFCURVE",
"312 668 CURVE SMOOTH",
"379 668 OFFCURVE",
"426 639 OFFCURVE",
"426 517 CURVE SMOOTH",
"426 295 LINE SMOOTH",
"426 157 OFFCURVE",
"424 150 OFFCURVE",
"362 150 CURVE SMOOTH",
"317 150 OFFCURVE",
"197 203 OFFCURVE",
"93 254 CURVE",
"77 254 LINE",
"77 0 LINE"
);
},
{
closed = 1;
nodes = (
"356 294 LINE",
"356 348 LINE",
"283 348 LINE",
"283 494 LINE",
"356 494 LINE",
"356 548 LINE",
"146 548 LINE",
"146 494 LINE",
"219 494 LINE",
"219 348 LINE",
"146 348 LINE",
"146 294 LINE"
);
}
);
width = 583;
}
);
unicode = A023;
},
{
glyphname = uniA024;
lastChange = "2017-01-18 15:57:01 +0000";
layers = (
{
layerId = UUID0;
paths = (
{
closed = 1;
nodes = (
"391 0 LINE",
"391 59 LINE",
"259 59 LINE",
"259 655 LINE",
"391 655 LINE",
"391 714 LINE",
"59 714 LINE",
"59 655 LINE",
"190 655 LINE",
"190 59 LINE",
"59 59 LINE",
"59 0 LINE"
);
}
);
width = 449;
}
);
unicode = A024;
},
{
glyphname = uniA025;
lastChange = "2017-01-18 15:57:01 +0000";
layers = (
{
layerId = UUID0;
paths = (
{
closed = 1;
nodes = (
"542 58 LINE",
"423 58 OFFCURVE",
"351 101 OFFCURVE",
"351 189 CURVE SMOOTH",
"351 298 OFFCURVE",
"460 331 OFFCURVE",
"542 332 CURVE",
"542 382 LINE",
"460 383 OFFCURVE",
"351 417 OFFCURVE",
"351 525 CURVE SMOOTH",
"351 613 OFFCURVE",
"423 656 OFFCURVE",
"542 656 CURVE",
"542 714 LINE",
"417 712 OFFCURVE",
"323 668 OFFCURVE",
"293 586 CURVE",
"242 574 OFFCURVE",
"198 551 OFFCURVE",
"165 518 CURVE",
"81 604 LINE",
"39 565 LINE",
"130 473 LINE",
"111 440 OFFCURVE",
"101 400 OFFCURVE",
"101 355 CURVE SMOOTH",
"101 310 OFFCURVE",
"112 271 OFFCURVE",
"131 239 CURVE",
"39 146 LINE",
"81 107 LINE",
"167 195 LINE",
"200 163 OFFCURVE",
"244 141 OFFCURVE",
"292 129 CURVE",
"322 45 OFFCURVE",
"416 1 OFFCURVE",
"542 0 CURVE"
);
},
{
closed = 1;
nodes = (
"255 206 OFFCURVE",
"231 221 OFFCURVE",
"212 241 CURVE",
"258 287 LINE",
"217 326 LINE",
"181 289 LINE",
"173 309 OFFCURVE",
"169 331 OFFCURVE",
"169 355 CURVE SMOOTH",
"169 379 OFFCURVE",
"173 401 OFFCURVE",
"181 421 CURVE",
"217 385 LINE",
"258 424 LINE",
"212 470 LINE",
"231 491 OFFCURVE",
"255 507 OFFCURVE",
"283 518 CURVE",
"285 430 OFFCURVE",
"340 381 OFFCURVE",
"406 357 CURVE",
"340 332 OFFCURVE",
"285 283 OFFCURVE",
"283 195 CURVE"
);
}
);
width = 601;
}
);
unicode = A025;
},
{
glyphname = uniA027;
lastChange = "2017-01-18 15:57:01 +0000";
layers = (
{
layerId = UUID0;
paths = (
{
closed = 1;
nodes = (
"395 -13 OFFCURVE",
"451 120 OFFCURVE",
"451 295 CURVE SMOOTH",
"451 418 LINE SMOOTH",
"451 594 OFFCURVE",
"395 727 OFFCURVE",
"260 727 CURVE SMOOTH",
"125 727 OFFCURVE",
"68 594 OFFCURVE",
"68 418 CURVE",
"68 295 LINE SMOOTH",
"68 120 OFFCURVE",
"125 -13 OFFCURVE",
"260 -13 CURVE SMOOTH"
);
},
{
closed = 1;
nodes = (
"170 46 OFFCURVE",
"137 152 OFFCURVE",
"137 291 CURVE SMOOTH",
"137 423 LINE",
"137 562 OFFCURVE",
"170 668 OFFCURVE",
"260 668 CURVE SMOOTH",
"350 668 OFFCURVE",
"383 562 OFFCURVE",
"383 423 CURVE SMOOTH",
"383 291 LINE SMOOTH",
"383 152 OFFCURVE",
"350 46 OFFCURVE",
"260 46 CURVE SMOOTH"
);
},
{
closed = 1;
nodes = (
"345 181 LINE",
"345 234 LINE",
"292 234 LINE",
"292 498 LINE",
"345 498 LINE",
"345 552 LINE",
"174 552 LINE",
"174 498 LINE",
"228 498 LINE",
"228 234 LINE",
"174 234 LINE",
"174 181 LINE"
);
}
);
width = 520;
}
);
unicode = A027;
},
{
glyphname = uniA028;
lastChange = "2017-01-18 15:57:01 +0000";
layers = (
{
layerId = UUID0;
paths = (
{
closed = 1;
nodes = (
"469 396 LINE",
"469 455 LINE",
"293 455 LINE",
"293 655 LINE",
"449 655 LINE",
"449 714 LINE",
"68 714 LINE",
"68 655 LINE",
"225 655 LINE",
"225 455 LINE",
"49 455 LINE",
"49 396 LINE"
);
},
{
closed = 1;
nodes = (
"469 0 LINE",
"469 59 LINE",
"293 59 LINE",
"293 259 LINE",
"449 259 LINE",
"449 317 LINE",
"68 317 LINE",
"68 259 LINE",
"225 259 LINE",
"225 59 LINE",
"49 59 LINE",
"49 0 LINE"
);
}
);
width = 518;
}
);
unicode = A028;
},
{
glyphname = uniA02A;
lastChange = "2017-01-18 15:57:01 +0000";
layers = (
{
layerId = UUID0;
paths = (
{
closed = 1;
nodes = (
"340 415 LINE",
"340 550 LINE SMOOTH",
"340 636 OFFCURVE",
"370 668 OFFCURVE",
"414 668 CURVE SMOOTH",
"469 668 OFFCURVE",
"488 640 OFFCURVE",
"488 503 CURVE",
"554 503 LINE",
"554 612 OFFCURVE",
"541 727 OFFCURVE",
"419 727 CURVE SMOOTH",
"366 727 OFFCURVE",
"331 705 OFFCURVE",
"306 667 CURVE",
"281 705 OFFCURVE",
"247 727 OFFCURVE",
"193 727 CURVE SMOOTH",
"72 727 OFFCURVE",
"59 612 OFFCURVE",
"59 503 CURVE",
"125 503 LINE",
"125 640 OFFCURVE",
"144 668 OFFCURVE",
"198 668 CURVE SMOOTH",
"243 668 OFFCURVE",
"272 636 OFFCURVE",
"272 550 CURVE SMOOTH",
"272 415 LINE"
);
},
{
closed = 1;
nodes = (
"418 -13 OFFCURVE",
"480 90 OFFCURVE",
"494 244 CURVE",
"427 244 LINE",
"419 125 OFFCURVE",
"378 46 OFFCURVE",
"302 46 CURVE SMOOTH",
"227 46 OFFCURVE",
"187 126 OFFCURVE",
"178 244 CURVE",
"112 244 LINE",
"127 92 OFFCURVE",
"191 -13 OFFCURVE",
"303 -13 CURVE SMOOTH"
);
},
{
closed = 1;
nodes = (
"338 193 LINE",
"338 354 LINE",
"274 354 LINE",
"274 193 LINE"
);
}
);
width = 612;
}
);
unicode = A02A;
},
{
glyphname = uniA02B;
lastChange = "2017-01-18 15:57:01 +0000";
layers = (
{
layerId = UUID0;
paths = (
{
closed = 1;
nodes = (
"391 0 LINE",
"391 59 LINE",
"259 59 LINE",
"259 298 LINE",
"355 200 LINE",
"396 240 LINE",
"264 374 LINE",
"396 508 LINE",
"354 546 LINE",
"259 449 LINE",
"259 655 LINE",
"391 655 LINE",
"391 714 LINE",
"59 714 LINE",
"59 655 LINE",
"190 655 LINE",
"190 449 LINE",
"95 546 LINE",
"54 508 LINE",
"185 374 LINE",
"54 240 LINE",
"94 200 LINE",
"190 298 LINE",
"190 59 LINE",
"59 59 LINE",
"59 0 LINE"
);
}
);
width = 449;
}
);
unicode = A02B;
},
{
glyphname = uniA02C;
lastChange = "2017-01-18 15:57:01 +0000";
layers = (
{
layerId = UUID0;
paths = (
{
closed = 1;
nodes = (
"321 0 LINE",
"321 333 LINE",
"451 347 OFFCURVE",
"514 438 OFFCURVE",
"514 529 CURVE SMOOTH",
"514 626 OFFCURVE",
"452 727 OFFCURVE",
"287 727 CURVE SMOOTH",
"122 727 OFFCURVE",
"59 625 OFFCURVE",
"59 529 CURVE SMOOTH",
"59 438 OFFCURVE",
"122 347 OFFCURVE",
"252 333 CURVE",
"252 0 LINE"
);
},
{
closed = 1;
nodes = (
"463 151 LINE",
"463 311 LINE",
"400 311 LINE",
"400 151 LINE"
);
},
{
closed = 1;
nodes = (
"167 391 OFFCURVE",
"127 461 OFFCURVE",
"127 529 CURVE SMOOTH",
"127 598 OFFCURVE",
"168 668 OFFCURVE",
"287 668 CURVE SMOOTH",
"410 668 OFFCURVE",
"445 598 OFFCURVE",
"445 529 CURVE SMOOTH",
"445 461 OFFCURVE",
"409 391 OFFCURVE",
"287 391 CURVE SMOOTH"
);
}
);
width = 572;
}
);
unicode = A02C;
},
{
glyphname = uniA02E;
lastChange = "2017-01-18 15:57:01 +0000";
layers = (
{
layerId = UUID0;
paths = (
{
closed = 1;
nodes = (
"289 714 LINE",
"221 714 LINE",
"221 99 LINE",
"66 181 LINE",
"39 126 LINE",
"289 -13 LINE"
);
},
{
closed = 1;
nodes = (
"456 53 LINE",
"456 424 LINE",
"393 424 LINE",
"393 53 LINE"
);
}
);
width = 524;
}
);
unicode = A02E;
},
{
glyphname = uniA02F;
lastChange = "2017-01-18 15:57:01 +0000";
layers = (
{
layerId = UUID0;
paths = (
{
closed = 1;
nodes = (
"436 59 LINE",
"319 59 OFFCURVE",
"137 153 OFFCURVE",
"137 362 CURVE SMOOTH",
"137 572 OFFCURVE",
"319 655 OFFCURVE",
"436 655 CURVE",
"436 714 LINE",
"277 704 OFFCURVE",
"68 596 OFFCURVE",
"68 362 CURVE SMOOTH",
"68 129 OFFCURVE",
"277 10 OFFCURVE",
"436 0 CURVE"
);
},
{
closed = 1;
nodes = (
"408 232 LINE",
"318 232 OFFCURVE",
"288 302 OFFCURVE",
"288 360 CURVE SMOOTH",
"288 419 OFFCURVE",
"319 499 OFFCURVE",
"408 499 CURVE",
"408 553 LINE",
"277 553 OFFCURVE",
"224 441 OFFCURVE",
"224 360 CURVE SMOOTH",
"224 276 OFFCURVE",
"279 178 OFFCURVE",
"408 178 CURVE"
);
}
);
width = 495;
}
);
unicode = A02F;
},
{
glyphname = uniA031;
lastChange = "2017-01-18 15:57:01 +0000";
layers = (
{
layerId = UUID0;
paths = (
{
closed = 1;
nodes = (
"393 -13 OFFCURVE",
"426 127 OFFCURVE",
"431 252 CURVE",
"529 252 LINE",
"529 311 LINE",
"432 311 LINE",
"432 423 LINE",
"529 423 LINE",
"529 482 LINE",
"432 482 LINE",
"432 564 LINE SMOOTH",
"432 605 OFFCURVE",
"433 668 OFFCURVE",
"482 668 CURVE SMOOTH",
"505 668 OFFCURVE",
"518 658 OFFCURVE",
"535 645 CURVE",
"557 698 LINE",
"537 714 OFFCURVE",
"511 727 OFFCURVE",
"481 727 CURVE SMOOTH",
"396 727 OFFCURVE",
"363 664 OFFCURVE",
"363 566 CURVE SMOOTH",
"363 482 LINE",
"266 482 LINE",
"266 423 LINE",
"363 423 LINE",
"363 311 LINE",
"266 311 LINE",
"266 252 LINE",
"363 252 LINE",
"359 140 OFFCURVE",
"332 46 OFFCURVE",
"260 46 CURVE SMOOTH",
"187 46 OFFCURVE",
"156 154 OFFCURVE",
"156 279 CURVE SMOOTH",
"156 714 LINE",
"88 714 LINE",
"88 284 LINE SMOOTH",
"88 152 OFFCURVE",
"115 -13 OFFCURVE",
"259 -13 CURVE SMOOTH"
);
}
);
width = 606;
}
);
unicode = A031;
},
{
glyphname = uniA032;
lastChange = "2017-01-18 15:57:01 +0000";
layers = (
{
layerId = UUID0;
paths = (
{
closed = 1;
nodes = (
"277 174 LINE",
"327 196 OFFCURVE",
"372 231 OFFCURVE",
"407 277 CURVE",
"417 242 OFFCURVE",
"423 204 OFFCURVE",
"423 162 CURVE",
"489 170 LINE",
"488 233 OFFCURVE",
"474 292 OFFCURVE",
"449 344 CURVE",
"474 395 OFFCURVE",
"488 454 OFFCURVE",
"489 518 CURVE",
"423 525 LINE",
"423 483 OFFCURVE",
"417 445 OFFCURVE",
"407 410 CURVE",
"372 456 OFFCURVE",
"327 491 OFFCURVE",
"277 514 CURVE",
"277 631 LINE",
"420 577 LINE",
"441 637 LINE",
"208 727 LINE",
"208 99 LINE",
"88 163 LINE",
"59 108 LINE",
"277 -13 LINE"
);
},
{
closed = 1;
nodes = (
"277 446 LINE",
"320 420 OFFCURVE",
"354 386 OFFCURVE",
"379 344 CURVE",
"354 301 OFFCURVE",
"320 267 OFFCURVE",
"277 241 CURVE"
);
}
);
width = 547;
}
);
unicode = A032;
},
{
glyphname = uniA034;
lastChange = "2017-01-18 15:57:01 +0000";
layers = (
{
layerId = UUID0;
paths = (
{
closed = 1;
nodes = (
"277 219 LINE",
"455 116 LINE",
"480 167 LINE",
"343 245 LINE",
"480 323 LINE",
"480 342 LINE",
"343 420 LINE",
"480 498 LINE",
"455 549 LINE",
"277 446 LINE",
"277 631 LINE",
"448 574 LINE",
"469 634 LINE",
"208 727 LINE",
"208 99 LINE",
"88 163 LINE",
"59 108 LINE",
"277 -13 LINE"
);
},
{
closed = 1;
nodes = (
"277 396 LINE",
"388 333 LINE",
"277 268 LINE"
);
}
);
width = 539;
}
);
unicode = A034;
},
{
glyphname = uniA035;
lastChange = "2017-01-18 15:57:01 +0000";
layers = (
{
layerId = UUID0;
paths = (
{
closed = 1;
nodes = (
"433 0 LINE",
"433 619 LINE",
"538 564 LINE",
"563 621 LINE",
"365 729 LINE",
"365 613 LINE",
"160 694 LINE",
"160 423 LINE",
"62 423 LINE",
"62 365 LINE",
"160 365 LINE",
"160 190 LINE",
"228 190 LINE",
"228 365 LINE",
"326 365 LINE",
"326 423 LINE",
"228 423 LINE",
"228 600 LINE",
"365 543 LINE",
"365 0 LINE"
);
},
{
closed = 1;
nodes = (
"282 -13 OFFCURVE",
"333 54 OFFCURVE",
"339 200 CURVE",
"282 200 LINE",
"273 82 OFFCURVE",
"250 46 OFFCURVE",
"194 46 CURVE SMOOTH",
"124 46 OFFCURVE",
"115 104 OFFCURVE",
"106 200 CURVE",
"49 200 LINE",
"54 91 OFFCURVE",
"82 -13 OFFCURVE",
"194 -13 CURVE SMOOTH"
);
}
);
width = 602;
}
);
unicode = A035;
},
{
glyphname = uniA037;
lastChange = "2017-01-18 15:57:01 +0000";
layers = (
{
layerId = UUID0;
paths = (
{
closed = 1;
nodes = (
"533 0 LINE",
"533 619 LINE",
"646 560 LINE",
"666 619 LINE",
"464 729 LINE",
"464 468 LINE",
"353 468 LINE SMOOTH",
"193 468 OFFCURVE",
"59 390 OFFCURVE",
"59 231 CURVE SMOOTH",
"59 73 OFFCURVE",
"182 0 OFFCURVE",
"365 0 CURVE SMOOTH"
);
},
{
closed = 1;
nodes = (
"234 147 LINE",
"234 204 LINE",
"182 204 LINE",
"182 147 LINE"
);
},
{
closed = 1;
nodes = (
"188 85 OFFCURVE",
"127 140 OFFCURVE",
"127 231 CURVE SMOOTH",
"127 323 OFFCURVE",
"188 380 OFFCURVE",
"271 400 CURVE",
"271 66 LINE"
);
},
{
closed = 1;
nodes = (
"234 261 LINE",
"234 318 LINE",
"182 318 LINE",
"182 261 LINE"
);
},
{
closed = 1;
nodes = (
"427 108 LINE",
"427 204 LINE",
"375 204 LINE",
"375 108 LINE"
);
},
{
closed = 1;
nodes = (
"333 409 LINE",
"464 409 LINE",
"464 59 LINE",
"333 59 LINE"
);
},
{
closed = 1;
nodes = (
"427 261 LINE",
"427 357 LINE",
"375 357 LINE",
"375 261 LINE"
);
}
);
width = 705;
}
);
unicode = A037;
},
{
glyphname = uniA038;
lastChange = "2017-01-18 15:57:01 +0000";
layers = (
{
layerId = UUID0;
paths = (
{
closed = 1;
nodes = (
"435 0 LINE",
"435 619 LINE",
"548 560 LINE",
"568 619 LINE",
"367 729 LINE",
"367 468 LINE",
"353 468 LINE SMOOTH",
"193 468 OFFCURVE",
"59 390 OFFCURVE",
"59 231 CURVE SMOOTH",
"59 73 OFFCURVE",
"182 0 OFFCURVE",
"365 0 CURVE SMOOTH"
);
},
{
closed = 1;
nodes = (
"261 59 OFFCURVE",
"188 86 OFFCURVE",
"151 144 CURVE",
"367 144 LINE",
"367 59 LINE",
"343 59 LINE"
);
},
{
closed = 1;
nodes = (
"128 208 OFFCURVE",
"127 219 OFFCURVE",
"127 231 CURVE SMOOTH",
"127 247 OFFCURVE",
"128 262 OFFCURVE",
"132 275 CURVE",
"367 275 LINE",
"367 197 LINE",
"130 197 LINE"
);
},
{
closed = 1;
nodes = (
"195 382 OFFCURVE",
"265 409 OFFCURVE",
"343 409 CURVE SMOOTH",
"367 409 LINE",
"367 329 LINE",
"157 329 LINE"
);
}
);
width = 607;
}
);
unicode = A038;
},
{
glyphname = uniA03A;
lastChange = "2017-01-18 15:57:01 +0000";
layers = (
{
layerId = UUID0;
paths = (
{
closed = 1;
nodes = (
"506 -13 OFFCURVE",
"553 85 OFFCURVE",
"553 261 CURVE SMOOTH",
"553 458 LINE SMOOTH",
"553 633 OFFCURVE",
"506 727 OFFCURVE",
"372 727 CURVE SMOOTH",
"237 727 OFFCURVE",
"190 633 OFFCURVE",
"190 458 CURVE",
"190 352 LINE",
"122 340 LINE",
"122 607 LINE",
"59 607 LINE",
"59 269 LINE",
"190 293 LINE",
"190 261 LINE SMOOTH",
"190 85 OFFCURVE",
"237 -13 OFFCURVE",
"372 -13 CURVE SMOOTH"
);
},
{
closed = 1;
nodes = (
"282 46 OFFCURVE",
"258 113 OFFCURVE",
"258 251 CURVE SMOOTH",
"258 305 LINE",
"485 347 LINE",
"485 251 LINE SMOOTH",
"485 113 OFFCURVE",
"461 46 OFFCURVE",
"372 46 CURVE SMOOTH"
);
},
{
closed = 1;
nodes = (
"258 462 LINE",
"258 601 OFFCURVE",
"282 668 OFFCURVE",
"372 668 CURVE SMOOTH",
"461 668 OFFCURVE",
"485 601 OFFCURVE",
"485 462 CURVE SMOOTH",
"485 403 LINE",
"258 364 LINE"
);
}
);
width = 622;
}
);
unicode = A03A;
},
{
glyphname = uniA03B;
lastChange = "2017-01-18 15:57:01 +0000";
layers = (
{
layerId = UUID0;
paths = (
{
closed = 1;
nodes = (
"103 0 LINE",
"207 273 LINE",
"311 0 LINE",
"375 0 LINE",
"239 357 LINE",
"375 714 LINE",
"311 714 LINE",
"207 441 LINE",
"103 714 LINE",
"39 714 LINE",
"175 357 LINE",
"39 0 LINE"
);
},
{
closed = 1;
nodes = (
"409 242 LINE",
"409 530 LINE",
"345 530 LINE",
"345 242 LINE"
);
},
{
closed = 1;
nodes = (
"514 242 LINE",
"514 530 LINE",
"450 530 LINE",
"450 242 LINE"
);
}
);
width = 572;
}
);
unicode = A03B;
},
{
glyphname = uniA03D;
lastChange = "2017-01-18 15:57:01 +0000";
layers = (
{
layerId = UUID0;
paths = (
{
closed = 1;
nodes = (
"371 -13 OFFCURVE",
"392 161 OFFCURVE",
"392 358 CURVE SMOOTH",
"392 564 OFFCURVE",
"372 727 OFFCURVE",
"230 727 CURVE SMOOTH",
"92 727 OFFCURVE",
"68 566 OFFCURVE",
"68 362 CURVE SMOOTH",
"68 158 OFFCURVE",
"88 -13 OFFCURVE",
"229 -13 CURVE SMOOTH"
);
},
{
closed = 1;
nodes = (
"150 46 OFFCURVE",
"138 171 OFFCURVE",
"137 339 CURVE",
"324 339 LINE",
"323 168 OFFCURVE",
"311 46 OFFCURVE",
"229 46 CURVE SMOOTH"
);
},
{
closed = 1;
nodes = (
"138 559 OFFCURVE",
"152 668 OFFCURVE",
"229 668 CURVE SMOOTH",
"307 668 OFFCURVE",
"322 557 OFFCURVE",
"323 397 CURVE",
"137 397 LINE"
);
},
{
closed = 1;
nodes = (
"498 213 LINE",
"498 560 LINE",
"435 560 LINE",
"435 213 LINE"
);
},
{
closed = 1;
nodes = (
"603 213 LINE",
"603 560 LINE",
"540 560 LINE",
"540 213 LINE"
);
}
);
width = 667;
}
);
unicode = A03D;
},
{
glyphname = uniA03E;
lastChange = "2017-01-18 15:57:01 +0000";
layers = (
{
layerId = UUID0;
paths = (
{
closed = 1;
nodes = (
"247 -13 OFFCURVE",
"281 9 OFFCURVE",
"306 47 CURVE",
"331 9 OFFCURVE",
"366 -13 OFFCURVE",
"419 -13 CURVE SMOOTH",
"541 -13 OFFCURVE",
"554 102 OFFCURVE",
"554 211 CURVE",
"488 211 LINE",
"488 74 OFFCURVE",
"469 46 OFFCURVE",
"414 46 CURVE SMOOTH",
"370 46 OFFCURVE",
"340 78 OFFCURVE",
"340 164 CURVE SMOOTH",
"340 319 LINE",
"454 333 OFFCURVE",
"495 422 OFFCURVE",
"495 517 CURVE SMOOTH",
"495 619 OFFCURVE",
"447 727 OFFCURVE",
"307 727 CURVE SMOOTH",
"166 727 OFFCURVE",
"118 618 OFFCURVE",
"118 517 CURVE SMOOTH",
"118 420 OFFCURVE",
"159 334 OFFCURVE",
"272 319 CURVE",
"272 164 LINE SMOOTH",
"272 78 OFFCURVE",
"243 46 OFFCURVE",
"198 46 CURVE SMOOTH",
"144 46 OFFCURVE",
"125 74 OFFCURVE",
"125 211 CURVE",
"59 211 LINE",
"59 102 OFFCURVE",
"72 -13 OFFCURVE",
"193 -13 CURVE SMOOTH"
);
},
{
closed = 1;
nodes = (
"211 372 OFFCURVE",
"181 439 OFFCURVE",
"181 517 CURVE SMOOTH",
"181 595 OFFCURVE",
"208 673 OFFCURVE",
"307 673 CURVE SMOOTH",
"411 673 OFFCURVE",
"431 590 OFFCURVE",
"431 517 CURVE SMOOTH",
"431 444 OFFCURVE",
"404 372 OFFCURVE",
"307 372 CURVE SMOOTH"
);
},
{
closed = 1;
nodes = (
"338 458 LINE",
"338 589 LINE",
"274 589 LINE",
"274 458 LINE"
);
}
);
width = 612;
}
);
unicode = A03E;
},
{
glyphname = uniA03F;
lastChange = "2017-01-18 15:57:01 +0000";
layers = (
{
layerId = UUID0;
paths = (
{
closed = 1;
nodes = (
"156 0 LINE",
"156 342 LINE",
"437 342 LINE",
"437 0 LINE",
"505 0 LINE",
"505 714 LINE",
"437 714 LINE",
"437 400 LINE",
"156 400 LINE",
"156 714 LINE",
"88 714 LINE",
"88 0 LINE"
);
}
);
width = 593;
}
);
unicode = A03F;
},
{
glyphname = uniA041;
lastChange = "2017-01-18 15:57:01 +0000";
layers = (
{
layerId = UUID0;
paths = (
{
closed = 1;
nodes = (
"506 -13 OFFCURVE",
"525 115 OFFCURVE",
"525 273 CURVE SMOOTH",
"525 714 LINE",
"457 714 LINE",
"457 439 LINE",
"338 439 LINE",
"338 714 LINE",
"275 714 LINE",
"275 439 LINE",
"156 439 LINE",
"156 714 LINE",
"88 714 LINE",
"88 273 LINE SMOOTH",
"88 115 OFFCURVE",
"104 -13 OFFCURVE",
"305 -13 CURVE SMOOTH"
);
},
{
closed = 1;
nodes = (
"158 61 OFFCURVE",
"156 148 OFFCURVE",
"156 263 CURVE",
"156 380 LINE",
"275 380 LINE",
"275 47 LINE"
);
},
{
closed = 1;
nodes = (
"338 380 LINE",
"457 380 LINE",
"457 263 LINE SMOOTH",
"457 148 OFFCURVE",
"456 60 OFFCURVE",
"338 47 CURVE"
);
}
);
width = 613;
}
);
unicode = A041;
},
{
glyphname = uniA042;
lastChange = "2017-01-18 15:57:01 +0000";
layers = (
{
layerId = UUID0;
paths = (
{
closed = 1;
nodes = (
"375 -13 OFFCURVE",
"412 69 OFFCURVE",
"412 182 CURVE SMOOTH",
"412 383 LINE",
"481 383 LINE",
"481 127 LINE",
"544 127 LINE",
"544 659 LINE",
"481 659 LINE",
"481 442 LINE",
"412 442 LINE",
"412 714 LINE",
"344 714 LINE",
"344 181 LINE SMOOTH",
"344 77 OFFCURVE",
"313 46 OFFCURVE",
"250 46 CURVE SMOOTH",
"187 46 OFFCURVE",
"156 76 OFFCURVE",
"156 181 CURVE SMOOTH",
"156 714 LINE",
"88 714 LINE",
"88 182 LINE SMOOTH",
"88 69 OFFCURVE",
"125 -13 OFFCURVE",
"250 -13 CURVE SMOOTH"
);
}
);
width = 623;
}
);
unicode = A042;
},
{
glyphname = uniA044;
lastChange = "2017-01-18 15:57:01 +0000";
layers = (
{
layerId = UUID0;
paths = (
{
closed = 1;
nodes = (
"379 0 LINE",
"379 359 LINE",
"503 359 LINE",
"503 417 LINE",
"319 417 LINE SMOOTH",
"211 417 OFFCURVE",
"153 452 OFFCURVE",
"140 510 CURVE",
"504 510 LINE",
"504 563 LINE",
"139 563 LINE",
"152 621 OFFCURVE",
"210 655 OFFCURVE",
"319 655 CURVE SMOOTH",
"503 655 LINE",
"503 714 LINE",
"336 714 LINE SMOOTH",
"170 714 OFFCURVE",
"68 651 OFFCURVE",
"68 537 CURVE SMOOTH",
"68 424 OFFCURVE",
"159 365 OFFCURVE",
"311 359 CURVE",
"311 0 LINE"
);
},
{
closed = 1;
nodes = (
"145 83 LINE",
"145 283 LINE",
"82 283 LINE",
"82 83 LINE"
);
},
{
closed = 1;
nodes = (
"260 83 LINE",
"260 283 LINE",
"196 283 LINE",
"196 83 LINE"
);
},
{
closed = 1;
nodes = (
"493 83 LINE",
"493 283 LINE",
"430 283 LINE",
"430 83 LINE"
);
}
);
width = 573;
}
);
unicode = A044;
},
{
glyphname = uniA045;
lastChange = "2017-01-18 15:57:01 +0000";
layers = (
{
layerId = UUID0;
paths = (
{
closed = 1;
nodes = (
"418 -10 OFFCURVE",
"501 39 OFFCURVE",
"501 169 CURVE SMOOTH",
"501 714 LINE",
"309 714 LINE SMOOTH",
"160 714 OFFCURVE",
"63 617 OFFCURVE",
"63 494 CURVE SMOOTH",
"63 360 OFFCURVE",
"165 266 OFFCURVE",
"309 266 CURVE SMOOTH",
"433 266 LINE",
"433 171 LINE SMOOTH",
"433 61 OFFCURVE",
"361 49 OFFCURVE",
"291 49 CURVE SMOOTH",
"236 49 OFFCURVE",
"164 59 OFFCURVE",
"113 135 CURVE",
"64 99 LINE",
"106 29 OFFCURVE",
"182 -10 OFFCURVE",
"293 -10 CURVE SMOOTH"
);
},
{
closed = 1;
nodes = (
"184 342 OFFCURVE",
"145 393 OFFCURVE",
"134 458 CURVE",
"262 458 LINE",
"262 328 LINE"
);
},
{
closed = 1;
nodes = (
"326 458 LINE",
"433 458 LINE",
"433 324 LINE",
"326 324 LINE"
);
},
{
closed = 1;
nodes = (
"139 583 OFFCURVE",
"176 638 OFFCURVE",
"262 652 CURVE",
"262 516 LINE",
"133 516 LINE"
);
},
{
closed = 1;
nodes = (
"326 655 LINE",
"433 655 LINE",
"433 516 LINE",
"326 516 LINE"
);
}
);
width = 589;
}
);
unicode = A045;
},
{
glyphname = uniA046;
lastChange = "2017-01-18 15:57:01 +0000";
layers = (
{
layerId = UUID0;
paths = (
{
closed = 1;
nodes = (
"382 -13 OFFCURVE",
"385 146 OFFCURVE",
"385 331 CURVE SMOOTH",
"385 336 LINE",
"389 336 LINE SMOOTH",
"447 336 OFFCURVE",
"488 284 OFFCURVE",
"488 220 CURVE SMOOTH",
"488 164 OFFCURVE",
"473 125 OFFCURVE",
"426 89 CURVE",
"465 45 LINE",
"539 103 OFFCURVE",
"557 163 OFFCURVE",
"557 220 CURVE SMOOTH",
"557 272 OFFCURVE",
"528 331 OFFCURVE",
"480 362 CURVE",
"527 394 OFFCURVE",
"557 448 OFFCURVE",
"557 503 CURVE SMOOTH",
"557 551 OFFCURVE",
"549 615 OFFCURVE",
"472 678 CURVE",
"428 636 LINE",
"479 598 OFFCURVE",
"488 545 OFFCURVE",
"488 505 CURVE SMOOTH",
"488 443 OFFCURVE",
"449 390 OFFCURVE",
"389 390 CURVE SMOOTH",
"385 390 LINE",
"385 394 LINE SMOOTH",
"385 583 OFFCURVE",
"381 727 OFFCURVE",
"248 727 CURVE SMOOTH",
"136 727 OFFCURVE",
"115 628 OFFCURVE",
"111 488 CURVE",
"39 488 LINE",
"39 429 LINE",
"110 429 LINE",
"110 302 LINE",
"39 302 LINE",
"39 244 LINE",
"110 244 LINE",
"114 96 OFFCURVE",
"134 -13 OFFCURVE",
"247 -13 CURVE SMOOTH"
);
},
{
closed = 1;
nodes = (
"185 46 OFFCURVE",
"178 122 OFFCURVE",
"178 234 CURVE SMOOTH",
"178 244 LINE",
"259 244 LINE",
"259 302 LINE",
"178 302 LINE",
"178 429 LINE",
"259 429 LINE",
"259 488 LINE",
"178 488 LINE",
"178 599 OFFCURVE",
"185 668 OFFCURVE",
"247 668 CURVE SMOOTH",
"310 668 OFFCURVE",
"316 596 OFFCURVE",
"316 484 CURVE SMOOTH",
"316 232 LINE SMOOTH",
"316 120 OFFCURVE",
"310 46 OFFCURVE",
"247 46 CURVE SMOOTH"
);
}
);
width = 620;
}
);
unicode = A046;
},
{
glyphname = uniA048;
lastChange = "2017-01-18 15:57:01 +0000";
layers = (
{
layerId = UUID0;
paths = (
{
closed = 1;
nodes = (
"474 332 OFFCURVE",
"569 463 OFFCURVE",
"580 674 CURVE",
"511 674 LINE",
"502 521 OFFCURVE",
"450 412 OFFCURVE",
"351 394 CURVE",
"351 714 LINE",
"288 714 LINE",
"288 393 LINE",
"181 412 OFFCURVE",
"134 527 OFFCURVE",
"127 674 CURVE",
"59 674 LINE",
"68 480 OFFCURVE",
"145 332 OFFCURVE",
"319 332 CURVE SMOOTH"
);
},
{
closed = 1;
nodes = (
"535 0 LINE",
"535 59 LINE",
"115 59 LINE",
"115 0 LINE"
);
},
{
closed = 1;
nodes = (
"525 186 LINE",
"525 244 LINE",
"125 244 LINE",
"125 186 LINE"
);
}
);
width = 639;
}
);
unicode = A048;
},
{
glyphname = uniA049;
lastChange = "2017-01-18 15:57:01 +0000";
layers = (
{
layerId = UUID0;
paths = (
{
closed = 1;
nodes = (
"332 0 LINE",
"332 104 LINE",
"498 104 LINE",
"498 163 LINE",
"332 163 LINE",
"332 231 LINE",
"483 231 LINE",
"483 290 LINE",
"332 290 LINE",
"332 359 LINE",
"498 359 LINE",
"498 417 LINE",
"314 417 LINE SMOOTH",
"206 417 OFFCURVE",
"148 452 OFFCURVE",
"135 510 CURVE",
"500 510 LINE",
"500 563 LINE",
"134 563 LINE",
"147 621 OFFCURVE",
"206 655 OFFCURVE",
"314 655 CURVE SMOOTH",
"498 655 LINE",
"498 714 LINE",
"331 714 LINE SMOOTH",
"166 714 OFFCURVE",
"63 651 OFFCURVE",
"63 537 CURVE SMOOTH",
"63 436 OFFCURVE",
"138 377 OFFCURVE",
"264 362 CURVE",
"264 290 LINE",
"112 290 LINE",
"112 231 LINE",
"264 231 LINE",
"264 163 LINE",
"98 163 LINE",
"98 104 LINE",
"264 104 LINE",
"264 0 LINE"
);
}
);
width = 563;
}
);
unicode = A049;
},
{
glyphname = uniA04A;
lastChange = "2017-01-18 15:57:01 +0000";
layers = (
{
layerId = UUID0;
paths = (
{
closed = 1;
nodes = (
"433 0 LINE",
"433 263 LINE",
"156 155 LINE",
"156 559 LINE",
"433 451 LINE",
"433 714 LINE",
"365 714 LINE",
"365 540 LINE",
"88 650 LINE",
"88 63 LINE",
"365 174 LINE",
"365 0 LINE"
);
}
);
width = 501;
}
);
unicode = A04A;
},
{
glyphname = uniA04C;
lastChange = "2017-01-18 15:57:01 +0000";
layers = (
{
layerId = UUID0;
paths = (
{
closed = 1;
nodes = (
"492 0 LINE",
"492 714 LINE",
"377 714 LINE SMOOTH",
"212 714 OFFCURVE",
"63 700 OFFCURVE",
"63 576 CURVE SMOOTH",
"63 521 OFFCURVE",
"94 487 OFFCURVE",
"143 466 CURVE",
"94 446 OFFCURVE",
"63 413 OFFCURVE",
"63 358 CURVE SMOOTH",
"63 302 OFFCURVE",
"95 268 OFFCURVE",
"145 248 CURVE",
"95 228 OFFCURVE",
"63 193 OFFCURVE",
"63 138 CURVE SMOOTH",
"63 14 OFFCURVE",
"201 0 OFFCURVE",
"368 0 CURVE SMOOTH"
);
},
{
closed = 1;
nodes = (
"227 59 OFFCURVE",
"132 64 OFFCURVE",
"132 138 CURVE SMOOTH",
"132 211 OFFCURVE",
"227 221 OFFCURVE",
"351 221 CURVE SMOOTH",
"423 221 LINE",
"423 59 LINE",
"351 59 LINE SMOOTH"
);
},
{
closed = 1;
nodes = (
"216 275 OFFCURVE",
"132 287 OFFCURVE",
"132 358 CURVE SMOOTH",
"132 429 OFFCURVE",
"216 439 OFFCURVE",
"335 439 CURVE SMOOTH",
"423 439 LINE",
"423 275 LINE",
"335 275 LINE SMOOTH"
);
},
{
closed = 1;
nodes = (
"214 494 OFFCURVE",
"132 506 OFFCURVE",
"132 576 CURVE SMOOTH",
"132 650 OFFCURVE",
"227 655 OFFCURVE",
"351 655 CURVE SMOOTH",
"423 655 LINE",
"423 493 LINE",
"333 493 LINE SMOOTH"
);
}
);
width = 580;
}
);
unicode = A04C;
},
{
glyphname = uniA04D;
lastChange = "2017-01-18 15:57:01 +0000";
layers = (
{
layerId = UUID0;
paths = (
{
closed = 1;
nodes = (
"407 630 LINE",
"537 567 LINE",
"558 623 LINE",
"339 729 LINE",
"339 604 LINE",
"185 601 OFFCURVE",
"59 530 OFFCURVE",
"59 391 CURVE SMOOTH",
"59 253 OFFCURVE",
"170 188 OFFCURVE",
"339 182 CURVE",
"339 83 LINE",
"136 168 LINE",
"115 112 LINE",
"407 -15 LINE"
);
},
{
closed = 1;
nodes = (
"224 240 OFFCURVE",
"127 275 OFFCURVE",
"127 391 CURVE SMOOTH",
"127 505 OFFCURVE",
"224 545 OFFCURVE",
"339 546 CURVE",
"339 240 LINE"
);
},
{
closed = 1;
nodes = (
"279 336 LINE",
"279 452 LINE",
"215 452 LINE",
"215 336 LINE"
);
}
);
width = 597;
}
);
unicode = A04D;
},
{
glyphname = uniA04F;
lastChange = "2017-01-18 15:57:01 +0000";
layers = (
{
layerId = UUID0;
paths = (
{
closed = 1;
nodes = (
"340 -13 OFFCURVE",
"343 146 OFFCURVE",
"343 331 CURVE SMOOTH",
"343 339 LINE",
"386 339 LINE",
"386 149 LINE",
"449 149 LINE",
"449 339 LINE",
"491 339 LINE",
"491 149 LINE",
"554 149 LINE",
"554 599 LINE",
"491 599 LINE",
"491 397 LINE",
"449 397 LINE",
"449 599 LINE",
"386 599 LINE",
"386 397 LINE",
"343 397 LINE",
"343 584 OFFCURVE",
"338 727 OFFCURVE",
"206 727 CURVE SMOOTH",
"72 727 OFFCURVE",
"68 584 OFFCURVE",
"68 397 CURVE SMOOTH",
"68 326 LINE SMOOTH",
"68 139 OFFCURVE",
"72 -13 OFFCURVE",
"205 -13 CURVE SMOOTH"
);
},
{
closed = 1;
nodes = (
"144 46 OFFCURVE",
"137 122 OFFCURVE",
"137 234 CURVE SMOOTH",
"137 489 LINE SMOOTH",
"137 599 OFFCURVE",
"144 668 OFFCURVE",
"205 668 CURVE SMOOTH",
"268 668 OFFCURVE",
"275 596 OFFCURVE",
"275 484 CURVE SMOOTH",
"275 232 LINE",
"275 120 OFFCURVE",
"268 46 OFFCURVE",
"205 46 CURVE SMOOTH"
);
},
{
closed = 1;
nodes = (
"238 269 LINE",
"238 462 LINE",
"174 462 LINE",
"174 269 LINE"
);
}
);
width = 623;
}
);
unicode = A04F;
},
{
glyphname = uniA050;
lastChange = "2017-01-18 15:57:01 +0000";
layers = (
{
layerId = UUID0;
paths = (
{
closed = 1;
nodes = (
"435 0 LINE",
"435 619 LINE",
"548 560 LINE",
"568 619 LINE",
"367 729 LINE",
"367 438 LINE",
"353 438 LINE SMOOTH",
"193 438 OFFCURVE",
"59 361 OFFCURVE",
"59 217 CURVE SMOOTH",
"59 73 OFFCURVE",
"182 0 OFFCURVE",
"365 0 CURVE SMOOTH"
);
},
{
closed = 1;
nodes = (
"227 59 OFFCURVE",
"127 101 OFFCURVE",
"127 217 CURVE SMOOTH",
"127 333 OFFCURVE",
"227 380 OFFCURVE",
"343 380 CURVE SMOOTH",
"367 380 LINE",
"367 59 LINE",
"343 59 LINE SMOOTH"
);
}
);
width = 607;
}
);
unicode = A050;
},
{
glyphname = uniA052;
lastChange = "2017-01-18 15:57:01 +0000";
layers = (
{
layerId = UUID0;
paths = (
{
closed = 1;
nodes = (
"144 0 LINE",
"321 293 LINE",
"499 0 LINE",
"555 0 LINE",
"555 714 LINE",
"499 714 LINE",
"321 420 LINE",
"144 714 LINE",
"88 714 LINE",
"88 0 LINE"
);
},
{
closed = 1;
nodes = (
"156 576 LINE",
"285 357 LINE",
"156 138 LINE"
);
},
{
closed = 1;
nodes = (
"357 356 LINE",
"486 576 LINE",
"486 138 LINE"
);
},
{
closed = 1;
nodes = (
"457 309 LINE",
"457 405 LINE",
"411 405 LINE",
"411 309 LINE"
);
}
);
width = 643;
}
);
unicode = A052;
},
{
glyphname = uniA053;
lastChange = "2017-01-18 15:57:01 +0000";
layers = (
{
layerId = UUID0;
paths = (
{
closed = 1;
nodes = (
"433 0 LINE",
"433 619 LINE",
"538 564 LINE",
"563 621 LINE",
"365 729 LINE",
"365 614 LINE",
"162 694 LINE",
"162 423 LINE",
"62 423 LINE",
"62 365 LINE",
"162 365 LINE",
"162 190 LINE",
"226 190 LINE",
"226 365 LINE",
"326 365 LINE",
"326 423 LINE",
"226 423 LINE",
"226 600 LINE",
"365 546 LINE",
"365 0 LINE"
);
},
{
closed = 1;
nodes = (
"282 -13 OFFCURVE",
"333 54 OFFCURVE",
"339 200 CURVE",
"282 200 LINE",
"273 82 OFFCURVE",
"250 46 OFFCURVE",
"194 46 CURVE SMOOTH",
"124 46 OFFCURVE",
"115 104 OFFCURVE",
"106 200 CURVE",
"49 200 LINE",
"54 91 OFFCURVE",
"82 -13 OFFCURVE",
"194 -13 CURVE SMOOTH"
);
},
{
closed = 1;
nodes = (
"552 239 LINE",
"552 415 LINE",
"488 415 LINE",
"488 239 LINE"
);
}
);
width = 611;
}
);
unicode = A053;
},
{
glyphname = uniA055;
lastChange = "2017-01-18 15:57:01 +0000";
layers = (
{
layerId = UUID0;
paths = (
{
closed = 1;
nodes = (
"435 0 LINE",
"435 619 LINE",
"548 560 LINE",
"568 619 LINE",
"367 729 LINE",
"367 438 LINE",
"353 438 LINE SMOOTH",
"193 438 OFFCURVE",
"59 361 OFFCURVE",
"59 217 CURVE SMOOTH",
"59 73 OFFCURVE",
"182 0 OFFCURVE",
"365 0 CURVE SMOOTH"
);
},
{
closed = 1;
nodes = (
"227 59 OFFCURVE",
"127 101 OFFCURVE",
"127 217 CURVE SMOOTH",
"127 333 OFFCURVE",
"227 380 OFFCURVE",
"343 380 CURVE SMOOTH",
"367 380 LINE",
"367 59 LINE",
"343 59 LINE SMOOTH"
);
},
{
closed = 1;
nodes = (
"220 493 LINE",
"220 669 LINE",
"156 669 LINE",
"156 493 LINE"
);
},
{
closed = 1;
nodes = (
"552 239 LINE",
"552 415 LINE",
"488 415 LINE",
"488 239 LINE"
);
}
);
width = 617;
}
);
unicode = A055;
},
{
glyphname = uniA056;
lastChange = "2017-01-18 15:57:01 +0000";
layers = (
{
layerId = UUID0;
paths = (
{
closed = 1;
nodes = (
"247 -13 OFFCURVE",
"281 9 OFFCURVE",
"306 47 CURVE",
"331 9 OFFCURVE",
"366 -13 OFFCURVE",
"419 -13 CURVE SMOOTH",
"541 -13 OFFCURVE",
"554 102 OFFCURVE",
"554 211 CURVE",
"488 211 LINE",
"488 74 OFFCURVE",
"469 46 OFFCURVE",
"414 46 CURVE SMOOTH",
"370 46 OFFCURVE",
"340 78 OFFCURVE",
"340 164 CURVE SMOOTH",
"340 192 LINE",
"448 208 OFFCURVE",
"520 299 OFFCURVE",
"520 459 CURVE SMOOTH",
"520 635 OFFCURVE",
"432 727 OFFCURVE",
"306 727 CURVE SMOOTH",
"182 727 OFFCURVE",
"93 636 OFFCURVE",
"93 461 CURVE SMOOTH",
"93 297 OFFCURVE",
"166 208 OFFCURVE",
"272 192 CURVE",
"272 164 LINE SMOOTH",
"272 78 OFFCURVE",
"243 46 OFFCURVE",
"198 46 CURVE SMOOTH",
"144 46 OFFCURVE",
"125 74 OFFCURVE",
"125 211 CURVE",
"59 211 LINE",
"59 102 OFFCURVE",
"72 -13 OFFCURVE",
"193 -13 CURVE SMOOTH"
);
},
{
closed = 1;
nodes = (
"249 249 OFFCURVE",
"198 277 OFFCURVE",
"175 354 CURVE",
"438 354 LINE",
"415 279 OFFCURVE",
"366 249 OFFCURVE",
"305 249 CURVE SMOOTH"
);
},
{
closed = 1;
nodes = (
"162 423 OFFCURVE",
"161 441 OFFCURVE",
"161 461 CURVE SMOOTH",
"161 475 OFFCURVE",
"162 489 OFFCURVE",
"163 501 CURVE",
"449 501 LINE",
"450 488 OFFCURVE",
"451 473 OFFCURVE",
"451 458 CURVE SMOOTH",
"451 439 OFFCURVE",
"450 423 OFFCURVE",
"448 407 CURVE",
"164 407 LINE"
);
},
{
closed = 1;
nodes = (
"194 636 OFFCURVE",
"246 668 OFFCURVE",
"305 668 CURVE SMOOTH",
"368 668 OFFCURVE",
"418 635 OFFCURVE",
"440 555 CURVE",
"172 555 LINE"
);
}
);
width = 612;
}
);
unicode = A056;
},
{
glyphname = uniA058;
lastChange = "2017-01-18 15:57:01 +0000";
layers = (
{
layerId = UUID0;
paths = (
{
closed = 1;
nodes = (
"325 0 LINE",
"325 306 LINE",
"503 140 LINE",
"543 183 LINE",
"334 377 LINE",
"543 571 LINE",
"504 615 LINE",
"325 448 LINE",
"325 714 LINE",
"256 714 LINE",
"256 449 LINE",
"78 615 LINE",
"39 571 LINE",
"248 377 LINE",
"39 183 LINE",
"79 140 LINE",
"256 305 LINE",
"256 0 LINE"
);
}
);
width = 582;
}
);
unicode = A058;
},
{
glyphname = uniA059;
lastChange = "2017-01-18 15:57:01 +0000";
layers = (
{
layerId = UUID0;
paths = (
{
closed = 1;
nodes = (
"356 -13 OFFCURVE",
"404 10 OFFCURVE",
"440 51 CURVE",
"459 33 OFFCURVE",
"480 16 OFFCURVE",
"504 0 CURVE",
"535 53 LINE",
"512 69 OFFCURVE",
"492 85 OFFCURVE",
"475 103 CURVE",
"508 167 OFFCURVE",
"524 256 OFFCURVE",
"524 358 CURVE SMOOTH",
"524 462 OFFCURVE",
"507 552 OFFCURVE",
"472 616 CURVE",
"490 635 OFFCURVE",
"511 652 OFFCURVE",
"535 667 CURVE",
"504 720 LINE",
"479 703 OFFCURVE",
"457 685 OFFCURVE",
"437 667 CURVE",
"402 705 OFFCURVE",
"355 727 OFFCURVE",
"296 727 CURVE SMOOTH",
"240 727 OFFCURVE",
"194 706 OFFCURVE",
"159 669 CURVE",
"140 687 OFFCURVE",
"119 704 OFFCURVE",
"95 720 CURVE",
"64 667 LINE",
"87 653 OFFCURVE",
"106 638 OFFCURVE",
"123 621 CURVE",
"86 557 OFFCURVE",
"68 467 OFFCURVE",
"68 362 CURVE SMOOTH",
"68 257 OFFCURVE",
"85 166 OFFCURVE",
"121 99 CURVE",
"104 83 OFFCURVE",
"86 67 OFFCURVE",
"64 53 CURVE",
"95 0 LINE",
"118 15 OFFCURVE",
"138 31 OFFCURVE",
"156 48 CURVE",
"191 9 OFFCURVE",
"238 -13 OFFCURVE",
"296 -13 CURVE SMOOTH"
);
},
{
closed = 1;
nodes = (
"145 210 OFFCURVE",
"137 282 OFFCURVE",
"137 362 CURVE SMOOTH",
"137 441 OFFCURVE",
"146 510 OFFCURVE",
"167 562 CURVE",
"196 510 OFFCURVE",
"208 445 OFFCURVE",
"208 363 CURVE SMOOTH",
"208 276 OFFCURVE",
"195 210 OFFCURVE",
"165 156 CURVE"
);
},
{
closed = 1;
nodes = (
"253 46 OFFCURVE",
"221 63 OFFCURVE",
"197 94 CURVE",
"250 166 OFFCURVE",
"271 255 OFFCURVE",
"271 363 CURVE SMOOTH",
"271 465 OFFCURVE",
"253 550 OFFCURVE",
"201 622 CURVE",
"225 651 OFFCURVE",
"256 668 OFFCURVE",
"295 668 CURVE SMOOTH",
"338 668 OFFCURVE",
"371 650 OFFCURVE",
"396 618 CURVE",
"346 547 OFFCURVE",
"328 463 OFFCURVE",
"328 363 CURVE SMOOTH",
"328 258 OFFCURVE",
"349 171 OFFCURVE",
"398 100 CURVE",
"373 65 OFFCURVE",
"339 46 OFFCURVE",
"295 46 CURVE SMOOTH"
);
},
{
closed = 1;
nodes = (
"403 217 OFFCURVE",
"392 281 OFFCURVE",
"392 363 CURVE SMOOTH",
"392 441 OFFCURVE",
"402 503 OFFCURVE",
"429 555 CURVE",
"447 502 OFFCURVE",
"456 435 OFFCURVE",
"456 358 CURVE SMOOTH",
"456 283 OFFCURVE",
"447 217 OFFCURVE",
"430 165 CURVE"
);
}
);
width = 592;
}
);
unicode = A059;
},
{
glyphname = uniA05A;
lastChange = "2017-01-18 15:57:01 +0000";
layers = (
{
layerId = UUID0;
paths = (
{
closed = 1;
nodes = (
"254 222 OFFCURVE",
"288 244 OFFCURVE",
"313 281 CURVE",
"338 244 OFFCURVE",
"373 222 OFFCURVE",
"426 222 CURVE SMOOTH",
"558 222 OFFCURVE",
"563 346 OFFCURVE",
"563 455 CURVE SMOOTH",
"563 468 LINE",
"495 468 LINE",
"495 464 LINE SMOOTH",
"495 328 OFFCURVE",
"486 280 OFFCURVE",
"421 280 CURVE SMOOTH",
"377 280 OFFCURVE",
"348 313 OFFCURVE",
"348 398 CURVE SMOOTH",
"348 430 LINE",
"432 443 OFFCURVE",
"490 504 OFFCURVE",
"490 577 CURVE SMOOTH",
"490 659 OFFCURVE",
"415 727 OFFCURVE",
"312 727 CURVE SMOOTH",
"209 727 OFFCURVE",
"137 659 OFFCURVE",
"137 577 CURVE SMOOTH",
"137 503 OFFCURVE",
"194 442 OFFCURVE",
"279 430 CURVE",
"279 398 LINE SMOOTH",
"279 313 OFFCURVE",
"250 280 OFFCURVE",
"206 280 CURVE SMOOTH",
"141 280 OFFCURVE",
"132 328 OFFCURVE",
"132 464 CURVE SMOOTH",
"132 468 LINE",
"63 468 LINE",
"63 455 LINE SMOOTH",
"63 346 OFFCURVE",
"69 222 OFFCURVE",
"201 222 CURVE SMOOTH"
);
},
{
closed = 1;
nodes = (
"353 0 LINE",
"353 194 LINE",
"284 194 LINE",
"284 0 LINE"
);
},
{
closed = 1;
nodes = (
"243 481 OFFCURVE",
"200 523 OFFCURVE",
"200 578 CURVE SMOOTH",
"200 631 OFFCURVE",
"243 673 OFFCURVE",
"312 673 CURVE SMOOTH",
"381 673 OFFCURVE",
"427 634 OFFCURVE",
"427 578 CURVE SMOOTH",
"427 521 OFFCURVE",
"381 481 OFFCURVE",
"312 481 CURVE SMOOTH"
);
}
);
width = 627;
}
);
unicode = A05A;
},
{
glyphname = uniA05C;
lastChange = "2017-01-18 15:57:01 +0000";
layers = (
{
layerId = UUID0;
paths = (
{
closed = 1;
nodes = (
"207 438 LINE",
"256 396 LINE",
"255 384 OFFCURVE",
"255 371 OFFCURVE",
"255 357 CURVE SMOOTH",
"255 197 OFFCURVE",
"318 77 OFFCURVE",
"446 -5 CURVE",
"481 48 LINE",
"375 119 OFFCURVE",
"323 207 OFFCURVE",
"323 357 CURVE SMOOTH",
"323 505 OFFCURVE",
"376 600 OFFCURVE",
"481 667 CURVE",
"446 720 LINE",
"345 653 OFFCURVE",
"288 570 OFFCURVE",
"266 468 CURVE",
"144 572 LINE",
"144 103 LINE",
"70 153 LINE",
"39 104 LINE",
"207 -15 LINE"
);
},
{
closed = 1;
nodes = (
"513 189 LINE",
"477 230 OFFCURVE",
"455 274 OFFCURVE",
"450 333 CURVE",
"498 333 LINE",
"498 392 LINE",
"451 392 LINE",
"459 463 OFFCURVE",
"491 500 OFFCURVE",
"513 526 CURVE",
"469 568 LINE",
"435 535 OFFCURVE",
"394 480 OFFCURVE",
"385 392 CURVE",
"346 392 LINE",
"346 333 LINE",
"384 333 LINE",
"389 252 OFFCURVE",
"421 196 OFFCURVE",
"469 147 CURVE"
);
}
);
width = 571;
}
);
unicode = A05C;
},
{
glyphname = uniA05D;
lastChange = "2017-01-18 15:57:01 +0000";
layers = (
{
layerId = UUID0;
paths = (
{
closed = 1;
nodes = (
"214 75 OFFCURVE",
"277 191 OFFCURVE",
"280 346 CURVE",
"334 346 LINE",
"337 191 OFFCURVE",
"400 75 OFFCURVE",
"525 -5 CURVE",
"561 48 LINE",
"457 117 OFFCURVE",
"405 203 OFFCURVE",
"402 346 CURVE",
"531 346 LINE",
"531 405 LINE",
"404 405 LINE",
"415 526 OFFCURVE",
"467 607 OFFCURVE",
"561 667 CURVE",
"525 720 LINE",
"404 640 OFFCURVE",
"347 536 OFFCURVE",
"336 405 CURVE",
"278 405 LINE",
"268 536 OFFCURVE",
"210 640 OFFCURVE",
"89 720 CURVE",
"54 667 LINE",
"147 607 OFFCURVE",
"199 526 OFFCURVE",
"210 405 CURVE",
"83 405 LINE",
"83 346 LINE",
"212 346 LINE",
"209 203 OFFCURVE",
"157 117 OFFCURVE",
"54 48 CURVE",
"89 -5 LINE"
);
}
);
width = 614;
}
);
unicode = A05D;
},
{
glyphname = uniA05E;
lastChange = "2017-01-18 15:57:01 +0000";
layers = (
{
layerId = UUID0;
paths = (
{
closed = 1;
nodes = (
"153 36 OFFCURVE",
"196 86 OFFCURVE",
"223 146 CURVE",
"407 146 LINE",
"434 86 OFFCURVE",
"476 36 OFFCURVE",
"540 -5 CURVE",
"576 48 LINE",
"469 119 OFFCURVE",
"437 207 OFFCURVE",
"437 357 CURVE SMOOTH",
"437 505 OFFCURVE",
"471 600 OFFCURVE",
"576 667 CURVE",
"540 720 LINE",
"476 676 OFFCURVE",
"434 625 OFFCURVE",
"407 566 CURVE",
"222 566 LINE",
"196 625 OFFCURVE",
"153 676 OFFCURVE",
"89 720 CURVE",
"54 667 LINE",
"159 600 OFFCURVE",
"192 505 OFFCURVE",
"192 357 CURVE SMOOTH",
"192 207 OFFCURVE",
"160 119 OFFCURVE",
"54 48 CURVE",
"89 -5 LINE"
);
},
{
closed = 1;
nodes = (
"253 242 OFFCURVE",
"258 283 OFFCURVE",
"260 327 CURVE",
"369 327 LINE",
"371 283 OFFCURVE",
"376 242 OFFCURVE",
"386 205 CURVE",
"243 205 LINE"
);
},
{
closed = 1;
nodes = (
"259 429 OFFCURVE",
"253 469 OFFCURVE",
"243 507 CURVE",
"386 507 LINE",
"376 469 OFFCURVE",
"371 429 OFFCURVE",
"369 385 CURVE",
"260 385 LINE"
);
}
);
width = 629;
}
);
unicode = A05E;
},
{
glyphname = uniA060;
lastChange = "2017-01-18 15:57:01 +0000";
layers = (
{
layerId = UUID0;
paths = (
{
closed = 1;
nodes = (
"525 292 LINE",
"691 -8 LINE",
"713 -8 LINE",
"713 719 LINE",
"691 719 LINE",
"525 418 LINE",
"364 719 LINE",
"309 687 LINE",
"491 355 LINE",
"309 24 LINE",
"364 -8 LINE"
);
},
{
closed = 1;
nodes = (
"168 297 LINE",
"250 138 LINE",
"323 162 LINE",
"323 553 LINE",
"254 578 LINE",
"168 413 LINE",
"83 578 LINE",
"39 553 LINE",
"139 356 LINE",
"39 165 LINE",
"87 138 LINE"
);
},
{
closed = 1;
nodes = (
"198 356 LINE",
"272 503 LINE",
"272 213 LINE"
);
},
{
closed = 1;
nodes = (
"560 355 LINE",
"645 513 LINE",
"645 198 LINE"
);
}
);
width = 801;
}
);
unicode = A060;
},
{
glyphname = uniA061;
lastChange = "2017-01-18 15:57:01 +0000";
layers = (
{
layerId = UUID0;
paths = (
{
closed = 1;
nodes = (
"259 368 OFFCURVE",
"293 390 OFFCURVE",
"318 428 CURVE",
"343 390 OFFCURVE",
"378 368 OFFCURVE",
"431 368 CURVE SMOOTH",
"563 368 OFFCURVE",
"568 492 OFFCURVE",
"568 601 CURVE SMOOTH",
"568 714 LINE",
"500 714 LINE",
"500 611 LINE SMOOTH",
"500 474 OFFCURVE",
"491 427 OFFCURVE",
"426 427 CURVE SMOOTH",
"382 427 OFFCURVE",
"353 459 OFFCURVE",
"353 544 CURVE SMOOTH",
"353 714 LINE",
"284 714 LINE",
"284 544 LINE SMOOTH",
"284 459 OFFCURVE",
"255 427 OFFCURVE",
"210 427 CURVE SMOOTH",
"146 427 OFFCURVE",
"137 474 OFFCURVE",
"137 611 CURVE SMOOTH",
"137 714 LINE",
"68 714 LINE",
"68 601 LINE SMOOTH",
"68 492 OFFCURVE",
"74 368 OFFCURVE",
"206 368 CURVE SMOOTH"
);
},
{
closed = 1;
nodes = (
"534 0 LINE",
"534 59 LINE",
"114 59 LINE",
"114 0 LINE"
);
},
{
closed = 1;
nodes = (
"524 186 LINE",
"524 244 LINE",
"124 244 LINE",
"124 186 LINE"
);
}
);
width = 637;
}
);
unicode = A061;
},
{
glyphname = uniA063;
lastChange = "2017-01-18 15:57:01 +0000";
layers = (
{
layerId = UUID0;
paths = (
{
closed = 1;
nodes = (
"486 714 LINE",
"417 714 LINE",
"417 70 LINE",
"111 166 LINE",
"91 105 LINE",
"486 -15 LINE"
);
},
{
closed = 1;
nodes = (
"356 218 LINE",
"356 271 LINE",
"73 271 LINE",
"73 218 LINE"
);
},
{
closed = 1;
nodes = (
"356 330 LINE",
"356 384 LINE",
"73 384 LINE",
"73 330 LINE"
);
},
{
closed = 1;
nodes = (
"361 694 LINE",
"298 694 LINE",
"298 542 LINE",
"63 704 LINE",
"63 435 LINE",
"127 435 LINE",
"127 589 LINE",
"361 425 LINE"
);
}
);
width = 574;
}
);
unicode = A063;
},
{
glyphname = uniA064;
lastChange = "2017-01-18 15:57:01 +0000";
layers = (
{
layerId = UUID0;
paths = (
{
closed = 1;
nodes = (
"438 -13 OFFCURVE",
"441 146 OFFCURVE",
"441 331 CURVE SMOOTH",
"441 394 LINE",
"441 583 OFFCURVE",
"437 727 OFFCURVE",
"304 727 CURVE SMOOTH",
"170 727 OFFCURVE",
"166 584 OFFCURVE",
"166 397 CURVE SMOOTH",
"166 326 LINE SMOOTH",
"166 139 OFFCURVE",
"170 -13 OFFCURVE",
"303 -13 CURVE SMOOTH"
);
},
{
closed = 1;
nodes = (
"122 66 LINE",
"122 226 LINE",
"59 226 LINE",
"59 66 LINE"
);
},
{
closed = 1;
nodes = (
"241 46 OFFCURVE",
"234 122 OFFCURVE",
"234 234 CURVE SMOOTH",
"234 489 LINE SMOOTH",
"234 599 OFFCURVE",
"241 668 OFFCURVE",
"303 668 CURVE SMOOTH",
"366 668 OFFCURVE",
"373 596 OFFCURVE",
"373 484 CURVE SMOOTH",
"373 232 LINE",
"373 120 OFFCURVE",
"366 46 OFFCURVE",
"303 46 CURVE SMOOTH"
);
},
{
closed = 1;
nodes = (
"548 66 LINE",
"548 226 LINE",
"485 226 LINE",
"485 66 LINE"
);
},
{
closed = 1;
nodes = (
"122 519 LINE",
"122 679 LINE",
"59 679 LINE",
"59 519 LINE"
);
},
{
closed = 1;
nodes = (
"548 519 LINE",
"548 679 LINE",
"485 679 LINE",
"485 519 LINE"
);
}
);
width = 607;
}
);
unicode = A064;
},
{
glyphname = uniA065;
lastChange = "2017-01-18 15:57:01 +0000";
layers = (
{
layerId = UUID0;
paths = (
{
closed = 1;
nodes = (
"407 0 LINE",
"407 714 LINE",
"339 714 LINE",
"339 607 LINE",
"185 603 OFFCURVE",
"59 525 OFFCURVE",
"59 386 CURVE SMOOTH",
"59 249 OFFCURVE",
"170 176 OFFCURVE",
"339 169 CURVE",
"339 0 LINE"
);
},
{
closed = 1;
nodes = (
"224 229 OFFCURVE",
"127 271 OFFCURVE",
"127 386 CURVE SMOOTH",
"127 500 OFFCURVE",
"224 548 OFFCURVE",
"339 549 CURVE",
"339 228 LINE"
);
},
{
closed = 1;
nodes = (
"541 145 LINE",
"541 626 LINE",
"477 626 LINE",
"477 145 LINE"
);
}
);
width = 609;
}
);
unicode = A065;
},
{
glyphname = uniA067;
lastChange = "2017-01-18 15:57:01 +0000";
layers = (
{
layerId = UUID0;
paths = (
{
closed = 1;
nodes = (
"438 0 LINE",
"438 59 LINE",
"286 59 LINE",
"286 156 LINE",
"418 156 LINE",
"418 215 LINE",
"286 215 LINE",
"286 406 LINE",
"409 292 LINE",
"449 333 LINE",
"293 476 LINE",
"449 621 LINE",
"408 659 LINE",
"286 546 LINE",
"286 714 LINE",
"218 714 LINE",
"218 545 LINE",
"95 659 LINE",
"54 621 LINE",
"210 476 LINE",
"54 333 LINE",
"94 292 LINE",
"218 407 LINE",
"218 215 LINE",
"86 215 LINE",
"86 156 LINE",
"218 156 LINE",
"218 59 LINE",
"66 59 LINE",
"66 0 LINE"
);
}
);
width = 503;
}
);
unicode = A067;
},
{
glyphname = uniA068;
lastChange = "2017-01-18 15:57:01 +0000";
layers = (
{
layerId = UUID0;
paths = (
{
closed = 1;
nodes = (
"137 234 LINE",
"150 343 OFFCURVE",
"221 378 OFFCURVE",
"301 378 CURVE SMOOTH",
"376 378 OFFCURVE",
"452 357 OFFCURVE",
"475 234 CURVE",
"544 234 LINE",
"524 354 OFFCURVE",
"441 421 OFFCURVE",
"340 434 CURVE",
"340 550 LINE",
"340 636 OFFCURVE",
"370 668 OFFCURVE",
"414 668 CURVE SMOOTH",
"469 668 OFFCURVE",
"488 640 OFFCURVE",
"488 503 CURVE",
"554 503 LINE",
"554 612 OFFCURVE",
"541 727 OFFCURVE",
"419 727 CURVE SMOOTH",
"366 727 OFFCURVE",
"331 705 OFFCURVE",
"306 667 CURVE",
"281 705 OFFCURVE",
"247 727 OFFCURVE",
"193 727 CURVE SMOOTH",
"72 727 OFFCURVE",
"59 612 OFFCURVE",
"59 503 CURVE",
"125 503 LINE",
"125 640 OFFCURVE",
"144 668 OFFCURVE",
"198 668 CURVE SMOOTH",
"243 668 OFFCURVE",
"272 636 OFFCURVE",
"272 550 CURVE SMOOTH",
"272 435 LINE",
"167 424 OFFCURVE",
"86 358 OFFCURVE",
"68 234 CURVE"
);
},
{
closed = 1;
nodes = (
"406 -13 OFFCURVE",
"472 62 OFFCURVE",
"490 183 CURVE",
"423 183 LINE",
"411 94 OFFCURVE",
"367 46 OFFCURVE",
"305 46 CURVE SMOOTH",
"244 46 OFFCURVE",
"201 94 OFFCURVE",
"189 183 CURVE",
"125 183 LINE",
"140 64 OFFCURVE",
"210 -13 OFFCURVE",
"306 -13 CURVE SMOOTH"
);
},
{
closed = 1;
nodes = (
"338 169 LINE",
"338 305 LINE",
"274 305 LINE",
"274 169 LINE"
);
}
);
width = 612;
}
);
unicode = A068;
},
{
glyphname = uniA06A;
lastChange = "2017-01-18 15:57:01 +0000";
layers = (
{
layerId = UUID0;
paths = (
{
closed = 1;
nodes = (
"513 499 LINE",
"449 499 LINE",
"449 321 LINE",
"63 533 LINE",
"63 238 LINE",
"127 238 LINE",
"127 433 LINE",
"513 229 LINE"
);
},
{
closed = 1;
nodes = (
"464 0 LINE",
"464 59 LINE",
"112 59 LINE",
"112 0 LINE"
);
},
{
closed = 1;
nodes = (
"439 142 LINE",
"439 200 LINE",
"137 200 LINE",
"137 142 LINE"
);
},
{
closed = 1;
nodes = (
"430 714 LINE",
"366 714 LINE",
"366 603 LINE",
"142 724 LINE",
"142 531 LINE",
"205 531 LINE",
"205 625 LINE",
"430 507 LINE"
);
}
);
width = 576;
}
);
unicode = A06A;
},
{
glyphname = uniA06B;
lastChange = "2017-01-18 15:57:01 +0000";
layers = (
{
layerId = UUID0;
paths = (
{
closed = 1;
nodes = (
"416 366 LINE",
"569 571 LINE",
"520 609 LINE",
"416 467 LINE",
"416 714 LINE",
"348 714 LINE",
"348 85 LINE",
"137 182 LINE",
"115 128 LINE",
"416 -15 LINE"
);
},
{
closed = 1;
nodes = (
"293 292 LINE",
"293 351 LINE",
"63 351 LINE",
"63 292 LINE"
);
},
{
closed = 1;
nodes = (
"293 680 LINE",
"229 680 LINE",
"229 542 LINE",
"63 689 LINE",
"63 420 LINE",
"127 420 LINE",
"127 560 LINE",
"293 410 LINE"
);
}
);
width = 608;
}
);
unicode = A06B;
},
{
glyphname = uniA06C;
lastChange = "2017-01-18 15:57:01 +0000";
layers = (
{
layerId = UUID0;
paths = (
{
closed = 1;
nodes = (
"284 0 LINE",
"284 335 LINE",
"401 280 LINE",
"401 714 LINE",
"333 714 LINE",
"333 377 LINE",
"215 435 LINE",
"215 0 LINE"
);
},
{
closed = 1;
nodes = (
"114 65 OFFCURVE",
"167 111 OFFCURVE",
"167 180 CURVE SMOOTH",
"167 244 OFFCURVE",
"125 292 OFFCURVE",
"39 310 CURVE",
"39 252 LINE",
"80 241 OFFCURVE",
"105 222 OFFCURVE",
"105 180 CURVE SMOOTH",
"105 135 OFFCURVE",
"73 118 OFFCURVE",
"39 107 CURVE",
"39 49 LINE"
);
},
{
closed = 1;
nodes = (
"460 52 LINE",
"419 64 OFFCURVE",
"394 83 OFFCURVE",
"394 125 CURVE SMOOTH",
"394 169 OFFCURVE",
"426 187 OFFCURVE",
"460 197 CURVE",
"460 256 LINE",
"385 240 OFFCURVE",
"333 194 OFFCURVE",
"333 125 CURVE SMOOTH",
"333 61 OFFCURVE",
"374 13 OFFCURVE",
"460 -5 CURVE"
);
},
{
closed = 1;
nodes = (
"231 469 OFFCURVE",
"284 515 OFFCURVE",
"284 584 CURVE SMOOTH",
"284 647 OFFCURVE",
"243 696 OFFCURVE",
"156 713 CURVE",
"156 656 LINE",
"197 645 OFFCURVE",
"223 625 OFFCURVE",
"223 584 CURVE SMOOTH",
"223 539 OFFCURVE",
"190 521 OFFCURVE",
"156 511 CURVE",
"156 453 LINE"
);
},
{
closed = 1;
nodes = (
"577 510 LINE",
"536 521 OFFCURVE",
"511 541 OFFCURVE",
"511 582 CURVE SMOOTH",
"511 627 OFFCURVE",
"543 645 OFFCURVE",
"577 655 CURVE",
"577 713 LINE",
"502 697 OFFCURVE",
"450 651 OFFCURVE",
"450 582 CURVE SMOOTH",
"450 519 OFFCURVE",
"491 470 OFFCURVE",
"577 453 CURVE"
);
}
);
width = 616;
}
);
unicode = A06C;
},
{
glyphname = uniA06E;
lastChange = "2017-01-18 15:57:01 +0000";
layers = (
{
layerId = UUID0;
paths = (
{
closed = 1;
nodes = (
"362 0 LINE",
"362 575 LINE",
"522 500 LINE",
"522 714 LINE",
"459 714 LINE",
"459 595 LINE",
"294 681 LINE",
"294 473 LINE",
"144 582 LINE",
"144 225 LINE",
"70 275 LINE",
"39 227 LINE",
"207 107 LINE",
"207 465 LINE",
"294 403 LINE",
"294 0 LINE"
);
},
{
closed = 1;
nodes = (
"522 149 LINE",
"522 422 LINE",
"459 422 LINE",
"459 149 LINE"
);
}
);
width = 591;
}
);
unicode = A06E;
},
{
glyphname = uniA06F;
lastChange = "2017-01-18 15:57:01 +0000";
layers = (
{
layerId = UUID0;
paths = (
{
closed = 1;
nodes = (
"137 0 LINE",
"137 186 LINE",
"345 86 LINE",
"345 623 LINE",
"465 561 LINE",
"495 615 LINE",
"277 727 LINE",
"277 509 LINE",
"68 650 LINE",
"68 400 LINE",
"132 400 LINE",
"132 533 LINE",
"277 439 LINE",
"277 185 LINE",
"68 293 LINE",
"68 0 LINE"
);
},
{
closed = 1;
nodes = (
"476 267 LINE",
"476 471 LINE",
"413 471 LINE",
"413 267 LINE"
);
}
);
width = 554;
}
);
unicode = A06F;
},
{
glyphname = uniA071;
lastChange = "2017-01-18 15:57:01 +0000";
layers = (
{
layerId = UUID0;
paths = (
{
closed = 1;
nodes = (
"127 15 LINE",
"144 160 OFFCURVE",
"194 255 OFFCURVE",
"287 255 CURVE SMOOTH",
"385 255 OFFCURVE",
"434 160 OFFCURVE",
"449 15 CURVE",
"512 15 LINE",
"496 171 OFFCURVE",
"439 287 OFFCURVE",
"329 310 CURVE",
"494 702 LINE",
"437 724 LINE",
"292 373 LINE",
"73 701 LINE",
"73 318 LINE",
"136 318 LINE",
"136 502 LINE",
"265 312 LINE",
"144 298 OFFCURVE",
"81 178 OFFCURVE",
"63 15 CURVE"
);
},
{
closed = 1;
nodes = (
"320 0 LINE",
"320 154 LINE",
"256 154 LINE",
"256 0 LINE"
);
}
);
width = 576;
}
);
unicode = A071;
},
{
glyphname = uniA072;
lastChange = "2017-01-18 15:57:01 +0000";
layers = (
{
layerId = UUID0;
paths = (
{
closed = 1;
nodes = (
"206 222 LINE",
"352 222 LINE",
"352 113 LINE",
"282 162 LINE",
"254 111 LINE",
"420 -10 LINE",
"420 604 LINE",
"490 555 LINE",
"519 605 LINE",
"352 727 LINE",
"352 609 LINE",
"137 729 LINE",
"137 113 LINE",
"67 162 LINE",
"39 111 LINE",
"206 -10 LINE"
);
},
{
closed = 1;
nodes = (
"307 369 LINE",
"307 465 LINE",
"255 465 LINE",
"255 369 LINE"
);
},
{
closed = 1;
nodes = (
"206 618 LINE",
"352 539 LINE",
"352 275 LINE",
"206 275 LINE"
);
}
);
width = 558;
}
);
unicode = A072;
},
{
glyphname = uniA074;
lastChange = "2017-01-18 15:57:01 +0000";
layers = (
{
layerId = UUID0;
paths = (
{
closed = 1;
nodes = (
"122 0 LINE",
"122 116 LINE",
"299 15 LINE",
"299 588 LINE",
"408 530 LINE",
"408 416 LINE",
"472 416 LINE",
"472 714 LINE",
"408 714 LINE",
"408 598 LINE",
"231 699 LINE",
"231 126 LINE",
"122 183 LINE",
"122 298 LINE",
"59 298 LINE",
"59 0 LINE"
);
}
);
width = 530;
}
);
unicode = A074;
},
{
glyphname = uniA075;
lastChange = "2017-01-18 15:57:01 +0000";
layers = (
{
layerId = UUID0;
paths = (
{
closed = 1;
nodes = (
"290 245 LINE",
"441 158 LINE",
"471 214 LINE",
"290 318 LINE",
"290 619 LINE",
"441 533 LINE",
"471 588 LINE",
"221 727 LINE",
"221 503 LINE",
"73 588 LINE",
"43 532 LINE",
"221 430 LINE",
"221 99 LINE",
"69 181 LINE",
"39 126 LINE",
"290 -13 LINE"
);
}
);
width = 510;
}
);
unicode = A075;
},
{
glyphname = uniA076;
lastChange = "2017-01-18 15:57:01 +0000";
layers = (
{
layerId = UUID0;
paths = (
{
closed = 1;
nodes = (
"259 0 LINE",
"259 300 LINE",
"317 300 LINE",
"317 86 LINE",
"381 86 LINE",
"381 300 LINE",
"437 300 LINE",
"437 86 LINE",
"500 86 LINE",
"500 521 LINE",
"437 521 LINE",
"437 358 LINE",
"381 358 LINE",
"381 521 LINE",
"317 521 LINE",
"317 358 LINE",
"259 358 LINE",
"259 644 LINE",
"507 557 LINE",
"527 617 LINE",
"190 729 LINE",
"190 0 LINE"
);
},
{
closed = 1;
nodes = (
"132 59 LINE",
"132 283 LINE",
"68 283 LINE",
"68 59 LINE"
);
},
{
closed = 1;
nodes = (
"132 401 LINE",
"132 625 LINE",
"68 625 LINE",
"68 401 LINE"
);
}
);
width = 585;
}
);
unicode = A076;
},
{
glyphname = uniA078;
lastChange = "2017-01-18 15:57:01 +0000";
layers = (
{
layerId = UUID0;
paths = (
{
closed = 1;
nodes = (
"436 -13 OFFCURVE",
"488 40 OFFCURVE",
"519 104 CURVE",
"464 131 LINE",
"439 73 OFFCURVE",
"396 46 OFFCURVE",
"365 46 CURVE SMOOTH",
"335 46 OFFCURVE",
"306 63 OFFCURVE",
"306 148 CURVE SMOOTH",
"306 241 LINE",
"411 256 OFFCURVE",
"485 342 OFFCURVE",
"485 484 CURVE SMOOTH",
"485 640 OFFCURVE",
"393 727 OFFCURVE",
"272 727 CURVE SMOOTH",
"153 727 OFFCURVE",
"59 641 OFFCURVE",
"59 485 CURVE SMOOTH",
"59 340 OFFCURVE",
"135 256 OFFCURVE",
"238 241 CURVE",
"238 144 LINE SMOOTH",
"238 52 OFFCURVE",
"258 -13 OFFCURVE",
"364 -13 CURVE SMOOTH"
);
},
{
closed = 1;
nodes = (
"407 118 LINE",
"407 214 LINE",
"355 214 LINE",
"355 118 LINE"
);
},
{
closed = 1;
nodes = (
"186 311 OFFCURVE",
"138 353 OFFCURVE",
"128 448 CURVE",
"240 448 LINE",
"240 300 LINE"
);
},
{
closed = 1;
nodes = (
"304 448 LINE",
"415 448 LINE",
"406 355 OFFCURVE",
"361 312 OFFCURVE",
"304 300 CURVE"
);
},
{
closed = 1;
nodes = (
"132 607 OFFCURVE",
"182 654 OFFCURVE",
"240 665 CURVE",
"240 501 LINE",
"127 501 LINE"
);
},
{
closed = 1;
nodes = (
"304 665 LINE",
"364 653 OFFCURVE",
"411 605 OFFCURVE",
"417 501 CURVE",
"304 501 LINE"
);
}
);
width = 568;
}
);
unicode = A078;
},
{
glyphname = uniA079;
lastChange = "2017-01-18 15:57:01 +0000";
layers = (
{
layerId = UUID0;
paths = (
{
closed = 1;
nodes = (
"151 0 LINE",
"151 632 LINE",
"291 578 LINE",
"291 394 LINE",
"203 394 LINE",
"203 340 LINE",
"291 340 LINE",
"291 247 LINE",
"203 247 LINE",
"203 193 LINE",
"291 193 LINE",
"291 0 LINE",
"359 0 LINE",
"359 193 LINE",
"452 193 LINE",
"452 247 LINE",
"359 247 LINE",
"359 340 LINE",
"452 340 LINE",
"452 394 LINE",
"359 394 LINE",
"359 619 LINE",
"489 556 LINE",
"514 612 LINE",
"291 729 LINE",
"291 646 LINE",
"88 727 LINE",
"88 0 LINE"
);
}
);
width = 553;
}
);
unicode = A079;
},
{
glyphname = uniA07B;
lastChange = "2017-01-18 15:57:01 +0000";
layers = (
{
layerId = UUID0;
paths = (
{
closed = 1;
nodes = (
"283 0 LINE",
"283 213 LINE",
"435 213 LINE",
"435 267 LINE",
"283 267 LINE",
"283 403 LINE",
"420 403 LINE",
"420 457 LINE",
"283 457 LINE",
"283 660 LINE",
"419 660 LINE",
"498 526 LINE",
"550 559 LINE",
"459 714 LINE",
"39 714 LINE",
"39 660 LINE",
"215 660 LINE",
"215 457 LINE",
"78 457 LINE",
"78 403 LINE",
"215 403 LINE",
"215 267 LINE",
"63 267 LINE",
"63 213 LINE",
"215 213 LINE",
"215 0 LINE"
);
}
);
width = 589;
}
);
unicode = A07B;
},
{
glyphname = uniA07C;
lastChange = "2017-01-18 15:57:01 +0000";
layers = (
{
layerId = UUID0;
paths = (
{
closed = 1;
nodes = (
"298 0 LINE",
"298 213 LINE",
"488 213 LINE",
"488 267 LINE",
"298 267 LINE",
"298 481 LINE",
"474 481 LINE",
"474 535 LINE",
"298 535 LINE",
"298 714 LINE",
"229 714 LINE",
"229 535 LINE",
"54 535 LINE",
"54 481 LINE",
"229 481 LINE",
"229 267 LINE",
"39 267 LINE",
"39 213 LINE",
"229 213 LINE",
"229 0 LINE"
);
}
);
width = 527;
}
);
unicode = A07C;
},
{
glyphname = uniA07D;
lastChange = "2017-01-18 15:57:01 +0000";
layers = (
{
layerId = UUID0;
paths = (
{
closed = 1;
nodes = (
"200 -13 OFFCURVE",
"220 4 OFFCURVE",
"240 42 CURVE",
"255 4 OFFCURVE",
"275 -13 OFFCURVE",
"314 -13 CURVE SMOOTH",
"390 -13 OFFCURVE",
"412 76 OFFCURVE",
"412 166 CURVE SMOOTH",
"412 194 OFFCURVE",
"412 273 OFFCURVE",
"404 364 CURVE",
"531 364 LINE",
"531 137 LINE",
"595 137 LINE",
"595 635 LINE",
"531 635 LINE",
"531 422 LINE",
"398 422 LINE",
"379 571 OFFCURVE",
"337 727 OFFCURVE",
"240 727 CURVE SMOOTH",
"88 727 OFFCURVE",
"68 352 OFFCURVE",
"68 166 CURVE SMOOTH",
"68 76 OFFCURVE",
"84 -13 OFFCURVE",
"167 -13 CURVE SMOOTH"
);
},
{
closed = 1;
nodes = (
"142 46 OFFCURVE",
"134 105 OFFCURVE",
"134 166 CURVE SMOOTH",
"134 275 OFFCURVE",
"150 668 OFFCURVE",
"240 668 CURVE SMOOTH",
"324 668 OFFCURVE",
"346 311 OFFCURVE",
"346 166 CURVE SMOOTH",
"346 75 OFFCURVE",
"334 46 OFFCURVE",
"309 46 CURVE SMOOTH",
"289 46 OFFCURVE",
"272 78 OFFCURVE",
"272 164 CURVE SMOOTH",
"272 229 LINE",
"208 229 LINE",
"208 164 LINE SMOOTH",
"208 78 OFFCURVE",
"191 46 OFFCURVE",
"171 46 CURVE SMOOTH"
);
},
{
closed = 1;
nodes = (
"500 184 LINE",
"500 320 LINE",
"436 320 LINE",
"436 184 LINE"
);
},
{
closed = 1;
nodes = (
"500 466 LINE",
"500 603 LINE",
"436 603 LINE",
"436 466 LINE"
);
}
);
width = 663;
}
);
unicode = A07D;
},
{
glyphname = uniA07F;
lastChange = "2017-01-18 15:57:01 +0000";
layers = (
{
layerId = UUID0;
paths = (
{
closed = 1;
nodes = (
"168 83 LINE",
"376 83 LINE",
"425 -13 LINE",
"481 15 LINE",
"447 83 LINE",
"496 83 LINE",
"496 142 LINE",
"417 142 LINE",
"308 357 LINE",
"414 566 LINE",
"496 566 LINE",
"496 625 LINE",
"444 625 LINE",
"481 699 LINE",
"425 727 LINE",
"373 625 LINE",
"171 625 LINE",
"120 727 LINE",
"63 699 LINE",
"101 625 LINE",
"49 625 LINE",
"49 566 LINE",
"130 566 LINE",
"237 357 LINE",
"127 142 LINE",
"49 142 LINE",
"49 83 LINE",
"98 83 LINE",
"63 15 LINE",
"120 -13 LINE"
);
},
{
closed = 1;
nodes = (
"272 287 LINE",
"346 142 LINE",
"198 142 LINE"
);
},
{
closed = 1;
nodes = (
"201 566 LINE",
"343 566 LINE",
"272 426 LINE"
);
}
);
width = 545;
}
);
unicode = A07F;
},
{
glyphname = uniA080;
lastChange = "2017-01-18 15:57:01 +0000";
layers = (
{
layerId = UUID0;
paths = (
{
closed = 1;
nodes = (
"335 308 LINE",
"427 125 LINE",
"476 147 LINE",
"366 369 LINE",
"476 589 LINE",
"426 612 LINE",
"335 430 LINE",
"245 612 LINE",
"195 589 LINE",
"305 369 LINE",
"195 147 LINE",
"245 125 LINE"
);
},
{
closed = 1;
nodes = (
"156 0 LINE",
"156 714 LINE",
"88 714 LINE",
"88 0 LINE"
);
},
{
closed = 1;
nodes = (
"583 0 LINE",
"583 714 LINE",
"515 714 LINE",
"515 0 LINE"
);
}
);
width = 671;
}
);
unicode = A080;
},
{
glyphname = uniA081;
lastChange = "2017-01-18 15:57:01 +0000";
layers = (
{
layerId = UUID0;
paths = (
{
closed = 1;
nodes = (
"535 0 LINE",
"535 263 LINE",
"258 155 LINE",
"258 559 LINE",
"535 451 LINE",
"535 714 LINE",
"466 714 LINE",
"466 540 LINE",
"189 650 LINE",
"189 483 LINE",
"85 463 OFFCURVE",
"39 366 OFFCURVE",
"39 294 CURVE",
"107 283 LINE",
"107 342 OFFCURVE",
"130 407 OFFCURVE",
"189 427 CURVE",
"189 63 LINE",
"466 174 LINE",
"466 0 LINE"
);
},
{
closed = 1;
nodes = (
"433 273 LINE",
"433 449 LINE",
"370 449 LINE",
"370 273 LINE"
);
}
);
width = 603;
}
);
unicode = A081;
},
{
glyphname = uniA083;
lastChange = "2017-01-18 15:57:01 +0000";
layers = (
{
layerId = UUID0;
paths = (
{
closed = 1;
nodes = (
"259 427 OFFCURVE",
"293 449 OFFCURVE",
"318 486 CURVE",
"343 449 OFFCURVE",
"378 427 OFFCURVE",
"431 427 CURVE SMOOTH",
"563 427 OFFCURVE",
"568 551 OFFCURVE",
"568 660 CURVE SMOOTH",
"568 714 LINE",
"500 714 LINE",
"500 669 LINE SMOOTH",
"500 533 OFFCURVE",
"491 485 OFFCURVE",
"426 485 CURVE SMOOTH",
"382 485 OFFCURVE",
"353 518 OFFCURVE",
"353 603 CURVE SMOOTH",
"353 714 LINE",
"284 714 LINE",
"284 603 LINE SMOOTH",
"284 518 OFFCURVE",
"255 485 OFFCURVE",
"210 485 CURVE SMOOTH",
"146 485 OFFCURVE",
"137 533 OFFCURVE",
"137 669 CURVE SMOOTH",
"137 714 LINE",
"68 714 LINE",
"68 660 LINE SMOOTH",
"68 551 OFFCURVE",
"74 427 OFFCURVE",
"206 427 CURVE SMOOTH"
);
},
{
closed = 1;
nodes = (
"438 -13 OFFCURVE",
"514 61 OFFCURVE",
"543 193 CURVE",
"479 217 LINE",
"460 110 OFFCURVE",
"410 46 OFFCURVE",
"318 46 CURVE SMOOTH",
"220 46 OFFCURVE",
"171 113 OFFCURVE",
"155 217 CURVE",
"90 193 LINE",
"113 84 OFFCURVE",
"178 -13 OFFCURVE",
"318 -13 CURVE SMOOTH"
);
},
{
closed = 1;
nodes = (
"350 135 LINE",
"350 247 LINE",
"453 247 LINE",
"453 301 LINE",
"350 301 LINE",
"350 397 LINE",
"287 397 LINE",
"287 301 LINE",
"184 301 LINE",
"184 247 LINE",
"287 247 LINE",
"287 135 LINE"
);
}
);
width = 637;
}
);
unicode = A083;
},
{
glyphname = uniA084;
lastChange = "2017-01-18 15:57:01 +0000";
layers = (
{
layerId = UUID0;
paths = (
{
closed = 1;
nodes = (
"259 397 OFFCURVE",
"293 419 OFFCURVE",
"318 457 CURVE",
"343 419 OFFCURVE",
"378 397 OFFCURVE",
"431 397 CURVE SMOOTH",
"563 397 OFFCURVE",
"568 521 OFFCURVE",
"568 630 CURVE SMOOTH",
"568 714 LINE",
"500 714 LINE",
"500 640 LINE SMOOTH",
"500 503 OFFCURVE",
"491 456 OFFCURVE",
"426 456 CURVE SMOOTH",
"382 456 OFFCURVE",
"353 488 OFFCURVE",
"353 574 CURVE SMOOTH",
"353 714 LINE",
"284 714 LINE",
"284 574 LINE SMOOTH",
"284 488 OFFCURVE",
"255 456 OFFCURVE",
"210 456 CURVE SMOOTH",
"146 456 OFFCURVE",
"137 503 OFFCURVE",
"137 640 CURVE SMOOTH",
"137 714 LINE",
"68 714 LINE",
"68 630 LINE SMOOTH",
"68 521 OFFCURVE",
"74 397 OFFCURVE",
"206 397 CURVE SMOOTH"
);
},
{
closed = 1;
nodes = (
"438 -13 OFFCURVE",
"514 61 OFFCURVE",
"543 193 CURVE",
"479 217 LINE",
"460 110 OFFCURVE",
"410 46 OFFCURVE",
"318 46 CURVE SMOOTH",
"220 46 OFFCURVE",
"171 113 OFFCURVE",
"155 217 CURVE",
"90 193 LINE",
"113 84 OFFCURVE",
"178 -13 OFFCURVE",
"318 -13 CURVE SMOOTH"
);
},
{
closed = 1;
nodes = (
"350 135 LINE",
"350 354 LINE",
"287 354 LINE",
"287 135 LINE"
);
}
);
width = 637;
}
);
unicode = A084;
},
{
glyphname = uniA085;
lastChange = "2017-01-18 15:57:01 +0000";
layers = (
{
layerId = UUID0;
paths = (
{
closed = 1;
nodes = (
"385 -13 OFFCURVE",
"454 40 OFFCURVE",
"502 124 CURVE",
"451 154 LINE",
"422 105 OFFCURVE",
"388 60 OFFCURVE",
"317 48 CURVE",
"317 315 LINE",
"479 315 LINE",
"479 369 LINE",
"317 369 LINE",
"317 587 LINE",
"358 580 OFFCURVE",
"396 558 OFFCURVE",
"420 503 CURVE",
"483 503 LINE",
"483 714 LINE",
"420 714 LINE",
"420 597 LINE",
"403 619 OFFCURVE",
"363 648 OFFCURVE",
"284 648 CURVE SMOOTH",
"146 648 OFFCURVE",
"68 537 OFFCURVE",
"68 323 CURVE SMOOTH",
"68 109 OFFCURVE",
"146 -13 OFFCURVE",
"284 -13 CURVE SMOOTH"
);
},
{
closed = 1;
nodes = (
"174 72 OFFCURVE",
"137 166 OFFCURVE",
"137 323 CURVE SMOOTH",
"137 481 OFFCURVE",
"174 566 OFFCURVE",
"249 585 CURVE",
"249 50 LINE"
);
}
);
width = 561;
}
);
unicode = A085;
},
{
glyphname = uniA087;
lastChange = "2017-01-18 15:57:01 +0000";
layers = (
{
layerId = UUID0;
paths = (
{
closed = 1;
nodes = (
"522 -13 OFFCURVE",
"539 161 OFFCURVE",
"539 358 CURVE SMOOTH",
"539 564 OFFCURVE",
"523 727 OFFCURVE",
"382 727 CURVE SMOOTH",
"275 727 OFFCURVE",
"239 632 OFFCURVE",
"229 496 CURVE",
"129 494 OFFCURVE",
"59 446 OFFCURVE",
"59 365 CURVE SMOOTH",
"59 284 OFFCURVE",
"128 237 OFFCURVE",
"228 235 CURVE",
"237 92 OFFCURVE",
"270 -13 OFFCURVE",
"381 -13 CURVE SMOOTH"
);
},
{
closed = 1;
nodes = (
"191 54 LINE",
"191 184 LINE",
"128 184 LINE",
"128 54 LINE"
);
},
{
closed = 1;
nodes = (
"161 291 OFFCURVE",
"122 314 OFFCURVE",
"122 366 CURVE SMOOTH",
"122 417 OFFCURVE",
"161 440 OFFCURVE",
"226 441 CURVE",
"225 416 OFFCURVE",
"225 389 OFFCURVE",
"225 362 CURVE SMOOTH",
"225 337 OFFCURVE",
"225 313 OFFCURVE",
"226 289 CURVE"
);
},
{
closed = 1;
nodes = (
"298 46 OFFCURVE",
"293 183 OFFCURVE",
"293 362 CURVE SMOOTH",
"293 543 OFFCURVE",
"298 668 OFFCURVE",
"381 668 CURVE SMOOTH",
"465 668 OFFCURVE",
"470 539 OFFCURVE",
"470 358 CURVE SMOOTH",
"470 178 OFFCURVE",
"465 46 OFFCURVE",
"381 46 CURVE SMOOTH"
);
},
{
closed = 1;
nodes = (
"191 552 LINE",
"191 682 LINE",
"128 682 LINE",
"128 552 LINE"
);
}
);
width = 607;
}
);
unicode = A087;
},
{
glyphname = uniA088;
lastChange = "2017-01-18 15:57:01 +0000";
layers = (
{
layerId = UUID0;
paths = (
{
closed = 1;
nodes = (
"313 0 LINE",
"313 104 LINE",
"423 118 OFFCURVE",
"495 210 OFFCURVE",
"495 372 CURVE SMOOTH",
"495 532 OFFCURVE",
"422 622 OFFCURVE",
"313 637 CURVE",
"313 714 LINE",
"250 714 LINE",
"250 636 LINE",
"143 622 OFFCURVE",
"68 533 OFFCURVE",
"68 373 CURVE SMOOTH",
"68 208 OFFCURVE",
"143 118 OFFCURVE",
"250 104 CURVE",
"250 0 LINE"
);
},
{
closed = 1;
nodes = (
"186 177 OFFCURVE",
"137 237 OFFCURVE",
"137 373 CURVE SMOOTH",
"137 504 OFFCURVE",
"186 563 OFFCURVE",
"250 577 CURVE",
"250 164 LINE"
);
},
{
closed = 1;
nodes = (
"313 577 LINE",
"380 562 OFFCURVE",
"427 500 OFFCURVE",
"427 370 CURVE SMOOTH",
"427 240 OFFCURVE",
"380 178 OFFCURVE",
"313 164 CURVE"
);
},
{
closed = 1;
nodes = (
"398 326 LINE",
"398 432 LINE",
"346 432 LINE",
"346 326 LINE"
);
}
);
width = 563;
}
);
unicode = A088;
},
{
glyphname = uniA08A;
lastChange = "2017-01-18 15:57:01 +0000";
layers = (
{
layerId = UUID0;
paths = (
{
closed = 1;
nodes = (
"304 -13 OFFCURVE",
"309 121 OFFCURVE",
"309 307 CURVE SMOOTH",
"309 339 LINE",
"400 339 LINE",
"400 307 LINE",
"400 121 OFFCURVE",
"406 -13 OFFCURVE",
"521 -13 CURVE SMOOTH",
"635 -13 OFFCURVE",
"641 119 OFFCURVE",
"641 307 CURVE SMOOTH",
"641 417 LINE SMOOTH",
"641 604 OFFCURVE",
"635 727 OFFCURVE",
"521 727 CURVE SMOOTH",
"407 727 OFFCURVE",
"400 607 OFFCURVE",
"400 418 CURVE SMOOTH",
"400 397 LINE",
"309 397 LINE",
"309 418 LINE SMOOTH",
"309 607 OFFCURVE",
"303 727 OFFCURVE",
"189 727 CURVE SMOOTH",
"75 727 OFFCURVE",
"68 604 OFFCURVE",
"68 417 CURVE SMOOTH",
"68 307 LINE SMOOTH",
"68 119 OFFCURVE",
"75 -13 OFFCURVE",
"188 -13 CURVE SMOOTH"
);
},
{
closed = 1;
nodes = (
"381 24 LINE",
"381 161 LINE",
"329 161 LINE",
"329 24 LINE"
);
},
{
closed = 1;
nodes = (
"146 46 OFFCURVE",
"137 122 OFFCURVE",
"137 234 CURVE SMOOTH",
"137 489 LINE SMOOTH",
"137 599 OFFCURVE",
"146 668 OFFCURVE",
"188 668 CURVE SMOOTH",
"231 668 OFFCURVE",
"241 596 OFFCURVE",
"241 484 CURVE SMOOTH",
"241 232 LINE",
"241 120 OFFCURVE",
"231 46 OFFCURVE",
"188 46 CURVE SMOOTH"
);
},
{
closed = 1;
nodes = (
"478 46 OFFCURVE",
"469 120 OFFCURVE",
"469 232 CURVE SMOOTH",
"469 484 LINE",
"469 596 OFFCURVE",
"478 668 OFFCURVE",
"521 668 CURVE SMOOTH",
"563 668 OFFCURVE",
"573 599 OFFCURVE",
"573 489 CURVE SMOOTH",
"573 234 LINE SMOOTH",
"573 122 OFFCURVE",
"563 46 OFFCURVE",
"521 46 CURVE SMOOTH"
);
},
{
closed = 1;
nodes = (
"381 566 LINE",
"381 703 LINE",
"329 703 LINE",
"329 566 LINE"
);
}
);
width = 709;
}
);
unicode = A08A;
},
{
glyphname = uniA08B;
lastChange = "2017-01-18 15:57:01 +0000";
layers = (
{
layerId = UUID0;
paths = (
{
closed = 1;
nodes = (
"295 -13 OFFCURVE",
"334 30 OFFCURVE",
"356 98 CURVE",
"403 73 OFFCURVE",
"454 55 OFFCURVE",
"502 40 CURVE",
"519 94 LINE",
"461 111 OFFCURVE",
"411 129 OFFCURVE",
"370 152 CURVE",
"379 207 OFFCURVE",
"382 271 OFFCURVE",
"382 339 CURVE",
"527 339 LINE",
"527 397 LINE",
"382 397 LINE",
"381 458 OFFCURVE",
"378 513 OFFCURVE",
"371 561 CURVE",
"416 586 OFFCURVE",
"468 604 OFFCURVE",
"519 619 CURVE",
"502 673 LINE",
"455 659 OFFCURVE",
"404 640 OFFCURVE",
"358 615 CURVE",
"337 684 OFFCURVE",
"298 727 OFFCURVE",
"226 727 CURVE SMOOTH",
"87 727 OFFCURVE",
"68 566 OFFCURVE",
"68 362 CURVE SMOOTH",
"68 158 OFFCURVE",
"83 -13 OFFCURVE",
"225 -13 CURVE SMOOTH"
);
},
{
closed = 1;
nodes = (
"276 233 OFFCURVE",
"256 277 OFFCURVE",
"252 339 CURVE",
"314 339 LINE",
"313 287 OFFCURVE",
"313 239 OFFCURVE",
"310 198 CURVE"
);
},
{
closed = 1;
nodes = (
"142 46 OFFCURVE",
"137 183 OFFCURVE",
"137 362 CURVE SMOOTH",
"137 543 OFFCURVE",
"142 668 OFFCURVE",
"225 668 CURVE SMOOTH",
"267 668 OFFCURVE",
"290 635 OFFCURVE",
"301 579 CURVE",
"235 529 OFFCURVE",
"188 459 OFFCURVE",
"188 362 CURVE SMOOTH",
"188 257 OFFCURVE",
"235 185 OFFCURVE",
"301 134 CURVE",
"289 79 OFFCURVE",
"267 46 OFFCURVE",
"225 46 CURVE SMOOTH"
);
},
{
closed = 1;
nodes = (
"505 197 LINE",
"505 286 LINE",
"442 286 LINE",
"442 197 LINE"
);
},
{
closed = 1;
nodes = (
"260 447 OFFCURVE",
"281 485 OFFCURVE",
"310 515 CURVE",
"313 480 OFFCURVE",
"313 440 OFFCURVE",
"314 397 CURVE",
"253 397 LINE"
);
},
{
closed = 1;
nodes = (
"505 446 LINE",
"505 535 LINE",
"442 535 LINE",
"442 446 LINE"
);
}
);
width = 586;
}
);
unicode = A08B;
},
{
glyphname = uniA08D;
lastChange = "2017-01-18 15:57:01 +0000";
layers = (
{
layerId = UUID0;
paths = (
{
closed = 1;
nodes = (
"506 -13 OFFCURVE",
"525 115 OFFCURVE",
"525 273 CURVE SMOOTH",
"525 714 LINE",
"457 714 LINE",
"457 263 LINE SMOOTH",
"457 146 OFFCURVE",
"456 57 OFFCURVE",
"332 47 CURVE",
"332 714 LINE",
"269 714 LINE",
"269 415 LINE",
"156 415 LINE",
"156 714 LINE",
"88 714 LINE",
"88 273 LINE SMOOTH",
"88 115 OFFCURVE",
"104 -13 OFFCURVE",
"305 -13 CURVE SMOOTH"
);
},
{
closed = 1;
nodes = (
"158 64 OFFCURVE",
"156 150 OFFCURVE",
"156 263 CURVE",
"156 356 LINE",
"269 356 LINE",
"269 48 LINE"
);
},
{
closed = 1;
nodes = (
"423 146 LINE",
"423 273 LINE",
"366 273 LINE",
"366 146 LINE"
);
},
{
closed = 1;
nodes = (
"423 327 LINE",
"423 454 LINE",
"366 454 LINE",
"366 327 LINE"
);
},
{
closed = 1;
nodes = (
"423 508 LINE",
"423 635 LINE",
"366 635 LINE",
"366 508 LINE"
);
}
);
width = 613;
}
);
unicode = A08D;
},
{
glyphname = uniA08E;
lastChange = "2017-01-18 15:57:01 +0000";
layers = (
{
layerId = UUID0;
paths = (
{
closed = 1;
nodes = (
"195 0 LINE",
"195 186 LINE",
"404 86 LINE",
"404 622 LINE",
"506 571 LINE",
"531 627 LINE",
"335 729 LINE",
"335 185 LINE",
"127 293 LINE",
"127 0 LINE"
);
},
{
closed = 1;
nodes = (
"122 384 OFFCURVE",
"153 453 OFFCURVE",
"153 511 CURVE SMOOTH",
"153 565 OFFCURVE",
"127 632 OFFCURVE",
"72 671 CURVE",
"39 624 LINE",
"72 595 OFFCURVE",
"90 549 OFFCURVE",
"90 511 CURVE SMOOTH",
"90 473 OFFCURVE",
"72 430 OFFCURVE",
"39 400 CURVE",
"71 354 LINE"
);
},
{
closed = 1;
nodes = (
"302 363 LINE",
"267 372 OFFCURVE",
"233 389 OFFCURVE",
"233 424 CURVE SMOOTH",
"233 454 OFFCURVE",
"246 477 OFFCURVE",
"301 485 CURVE",
"301 542 LINE",
"246 550 OFFCURVE",
"233 573 OFFCURVE",
"233 603 CURVE SMOOTH",
"233 638 OFFCURVE",
"267 655 OFFCURVE",
"302 664 CURVE",
"290 721 LINE",
"236 706 OFFCURVE",
"170 665 OFFCURVE",
"170 603 CURVE SMOOTH",
"170 557 OFFCURVE",
"199 529 OFFCURVE",
"238 513 CURVE",
"199 497 OFFCURVE",
"170 470 OFFCURVE",
"170 424 CURVE SMOOTH",
"170 356 OFFCURVE",
"236 321 OFFCURVE",
"290 306 CURVE"
);
}
);
width = 570;
}
);
unicode = A08E;
},
{
glyphname = uniA090;
lastChange = "2017-01-18 15:57:01 +0000";
layers = (
{
layerId = UUID0;
paths = (
{
closed = 1;
nodes = (
"316 0 LINE",
"316 278 LINE",
"486 56 LINE",
"486 687 LINE",
"316 464 LINE",
"316 714 LINE",
"248 714 LINE",
"248 464 LINE",
"78 687 LINE",
"78 56 LINE",
"248 278 LINE",
"248 0 LINE"
);
},
{
closed = 1;
nodes = (
"138 345 LINE",
"230 345 LINE",
"138 229 LINE"
);
},
{
closed = 1;
nodes = (
"138 513 LINE",
"229 398 LINE",
"138 398 LINE"
);
},
{
closed = 1;
nodes = (
"334 345 LINE",
"427 345 LINE",
"427 229 LINE"
);
},
{
closed = 1;
nodes = (
"427 513 LINE",
"427 398 LINE",
"335 398 LINE"
);
}
);
width = 564;
}
);
unicode = A090;
},
{
glyphname = uniA091;
lastChange = "2017-01-18 15:57:01 +0000";
layers = (
{
layerId = UUID0;
paths = (
{
closed = 1;
nodes = (
"290 619 LINE",
"441 533 LINE",
"471 588 LINE",
"221 727 LINE",
"221 99 LINE",
"69 181 LINE",
"39 126 LINE",
"290 -13 LINE"
);
},
{
closed = 1;
nodes = (
"140 261 LINE",
"140 481 LINE",
"77 481 LINE",
"77 261 LINE"
);
},
{
closed = 1;
nodes = (
"433 261 LINE",
"433 481 LINE",
"370 481 LINE",
"370 261 LINE"
);
}
);
width = 510;
}
);
unicode = A091;
},
{
glyphname = uniA093;
lastChange = "2017-01-18 15:57:01 +0000";
layers = (
{
layerId = UUID0;
paths = (
{
closed = 1;
nodes = (
"314 0 LINE",
"314 241 LINE",
"383 223 OFFCURVE",
"431 153 OFFCURVE",
"451 50 CURVE",
"511 69 LINE",
"484 195 OFFCURVE",
"416 285 OFFCURVE",
"314 301 CURVE",
"314 353 LINE",
"490 353 LINE",
"490 406 LINE",
"314 406 LINE",
"314 458 LINE",
"416 474 OFFCURVE",
"484 563 OFFCURVE",
"511 690 CURVE",
"451 708 LINE",
"431 605 OFFCURVE",
"383 536 OFFCURVE",
"314 518 CURVE",
"314 714 LINE",
"246 714 LINE",
"246 518 LINE",
"180 535 OFFCURVE",
"130 605 OFFCURVE",
"109 708 CURVE",
"49 689 LINE",
"77 564 OFFCURVE",
"146 474 OFFCURVE",
"246 458 CURVE",
"246 406 LINE",
"70 406 LINE",
"70 353 LINE",
"246 353 LINE",
"246 301 LINE",
"146 284 OFFCURVE",
"77 194 OFFCURVE",
"49 69 CURVE",
"109 50 LINE",
"130 154 OFFCURVE",
"180 224 OFFCURVE",
"246 241 CURVE",
"246 0 LINE"
);
}
);
width = 560;
}
);
unicode = A093;
},
{
glyphname = uniA094;
lastChange = "2017-01-18 15:57:01 +0000";
layers = (
{
layerId = UUID0;
paths = (
{
closed = 1;
nodes = (
"454 -13 OFFCURVE",
"524 148 OFFCURVE",
"524 362 CURVE SMOOTH",
"524 576 OFFCURVE",
"449 727 OFFCURVE",
"296 727 CURVE SMOOTH",
"140 727 OFFCURVE",
"68 574 OFFCURVE",
"68 358 CURVE SMOOTH",
"68 142 OFFCURVE",
"140 -13 OFFCURVE",
"296 -13 CURVE SMOOTH"
);
},
{
closed = 1;
nodes = (
"231 46 OFFCURVE",
"188 89 OFFCURVE",
"164 161 CURVE",
"242 283 LINE",
"257 275 OFFCURVE",
"276 271 OFFCURVE",
"297 271 CURVE SMOOTH",
"317 271 OFFCURVE",
"335 274 OFFCURVE",
"350 282 CURVE",
"429 160 LINE",
"405 89 OFFCURVE",
"363 46 OFFCURVE",
"297 46 CURVE SMOOTH"
);
},
{
closed = 1;
nodes = (
"139 279 OFFCURVE",
"137 317 OFFCURVE",
"137 358 CURVE SMOOTH",
"137 521 OFFCURVE",
"174 641 OFFCURVE",
"265 664 CURVE",
"265 521 LINE",
"209 505 OFFCURVE",
"182 451 OFFCURVE",
"182 394 CURVE SMOOTH",
"182 370 OFFCURVE",
"187 347 OFFCURVE",
"197 327 CURVE",
"144 244 LINE"
);
},
{
closed = 1;
nodes = (
"261 324 OFFCURVE",
"238 355 OFFCURVE",
"238 394 CURVE SMOOTH",
"238 434 OFFCURVE",
"257 470 OFFCURVE",
"297 470 CURVE SMOOTH",
"335 470 OFFCURVE",
"354 437 OFFCURVE",
"354 394 CURVE SMOOTH",
"354 354 OFFCURVE",
"330 324 OFFCURVE",
"294 324 CURVE SMOOTH"
);
},
{
closed = 1;
nodes = (
"395 327 LINE",
"405 347 OFFCURVE",
"411 370 OFFCURVE",
"411 394 CURVE SMOOTH",
"411 450 OFFCURVE",
"382 505 OFFCURVE",
"328 521 CURVE",
"328 664 LINE",
"414 642 OFFCURVE",
"456 524 OFFCURVE",
"456 362 CURVE SMOOTH",
"456 320 OFFCURVE",
"453 280 OFFCURVE",
"448 244 CURVE"
);
}
);
width = 592;
}
);
unicode = A094;
},
{
glyphname = uniA096;
lastChange = "2017-01-18 15:57:01 +0000";
layers = (
{
layerId = UUID0;
paths = (
{
closed = 1;
nodes = (
"318 -8 OFFCURVE",
"344 52 OFFCURVE",
"344 144 CURVE SMOOTH",
"344 358 LINE",
"484 373 OFFCURVE",
"550 483 OFFCURVE",
"561 679 CURVE",
"492 679 LINE",
"483 513 OFFCURVE",
"438 431 OFFCURVE",
"341 417 CURVE",
"341 714 LINE",
"278 714 LINE",
"278 417 LINE",
"173 431 OFFCURVE",
"134 519 OFFCURVE",
"127 679 CURVE",
"59 679 LINE",
"67 498 OFFCURVE",
"118 374 OFFCURVE",
"275 358 CURVE",
"275 148 LINE SMOOTH",
"275 63 OFFCURVE",
"246 51 OFFCURVE",
"217 51 CURVE SMOOTH",
"185 51 OFFCURVE",
"149 78 OFFCURVE",
"135 125 CURVE",
"77 100 LINE",
"96 47 OFFCURVE",
"141 -8 OFFCURVE",
"213 -8 CURVE SMOOTH"
);
},
{
closed = 1;
nodes = (
"234 539 LINE",
"234 662 LINE",
"175 662 LINE",
"175 539 LINE"
);
},
{
closed = 1;
nodes = (
"444 539 LINE",
"444 662 LINE",
"385 662 LINE",
"385 539 LINE"
);
}
);
width = 619;
}
);
unicode = A096;
},
{
glyphname = uniA097;
lastChange = "2017-01-18 15:57:01 +0000";
layers = (
{
layerId = UUID0;
paths = (
{
closed = 1;
nodes = (
"287 0 LINE",
"287 575 LINE",
"447 500 LINE",
"447 714 LINE",
"384 714 LINE",
"384 595 LINE",
"219 681 LINE",
"219 0 LINE"
);
},
{
closed = 1;
nodes = (
"122 149 LINE",
"122 422 LINE",
"59 422 LINE",
"59 149 LINE"
);
},
{
closed = 1;
nodes = (
"447 149 LINE",
"447 422 LINE",
"384 422 LINE",
"384 149 LINE"
);
}
);
width = 506;
}
);
unicode = A097;
},
{
glyphname = uniA098;
lastChange = "2017-01-18 15:57:01 +0000";
layers = (
{
layerId = UUID0;
paths = (
{
closed = 1;
nodes = (
"265 361 LINE",
"345 354 OFFCURVE",
"375 279 OFFCURVE",
"375 223 CURVE SMOOTH",
"375 201 OFFCURVE",
"370 169 OFFCURVE",
"363 155 CURVE",
"419 133 LINE",
"434 162 OFFCURVE",
"438 193 OFFCURVE",
"438 223 CURVE SMOOTH",
"438 302 OFFCURVE",
"401 403 OFFCURVE",
"265 415 CURVE",
"265 615 LINE",
"419 533 LINE",
"447 588 LINE",
"197 727 LINE",
"197 99 LINE",
"66 170 LINE",
"39 115 LINE",
"265 -13 LINE"
);
},
{
closed = 1;
nodes = (
"544 189 LINE",
"544 194 OFFCURVE",
"544 199 OFFCURVE",
"544 204 CURVE SMOOTH",
"544 247 OFFCURVE",
"538 286 OFFCURVE",
"527 320 CURVE",
"470 305 LINE",
"477 279 OFFCURVE",
"481 251 OFFCURVE",
"481 219 CURVE SMOOTH",
"481 209 OFFCURVE",
"480 199 OFFCURVE",
"480 189 CURVE"
);
},
{
closed = 1;
nodes = (
"412 474 LINE",
"379 495 OFFCURVE",
"341 509 OFFCURVE",
"303 514 CURVE",
"293 460 LINE",
"326 455 OFFCURVE",
"356 444 OFFCURVE",
"383 427 CURVE"
);
},
{
closed = 1;
nodes = (
"512 359 LINE",
"495 396 OFFCURVE",
"471 427 OFFCURVE",
"443 451 CURVE",
"406 410 LINE",
"428 391 OFFCURVE",
"447 366 OFFCURVE",
"460 334 CURVE"
);
}
);
width = 603;
}
);
unicode = A098;
},
{
glyphname = uniA09A;
lastChange = "2017-01-18 15:57:01 +0000";
layers = (
{
layerId = UUID0;
paths = (
{
closed = 1;
nodes = (
"493 -13 OFFCURVE",
"537 81 OFFCURVE",
"537 165 CURVE SMOOTH",
"537 232 OFFCURVE",
"508 314 OFFCURVE",
"427 342 CURVE",
"427 714 LINE",
"359 714 LINE",
"359 401 LINE",
"68 688 LINE",
"68 182 LINE",
"137 182 LINE",
"137 543 LINE",
"329 350 LINE",
"225 333 OFFCURVE",
"189 238 OFFCURVE",
"189 165 CURVE SMOOTH",
"189 81 OFFCURVE",
"234 -13 OFFCURVE",
"363 -13 CURVE SMOOTH"
);
},
{
closed = 1;
nodes = (
"273 42 OFFCURVE",
"252 107 OFFCURVE",
"252 165 CURVE SMOOTH",
"252 224 OFFCURVE",
"274 299 OFFCURVE",
"363 299 CURVE SMOOTH",
"458 299 OFFCURVE",
"473 219 OFFCURVE",
"473 165 CURVE SMOOTH",
"473 112 OFFCURVE",
"456 42 OFFCURVE",
"363 42 CURVE SMOOTH"
);
}
);
width = 595;
}
);
unicode = A09A;
},
{
glyphname = uniA09B;
lastChange = "2017-01-18 15:57:01 +0000";
layers = (
{
layerId = UUID0;
paths = (
{
closed = 1;
nodes = (
"389 0 LINE",
"389 615 LINE",
"508 551 LINE",
"537 606 LINE",
"321 729 LINE",
"321 397 LINE",
"261 397 LINE",
"251 508 OFFCURVE",
"193 606 OFFCURVE",
"89 667 CURVE",
"59 614 LINE",
"138 564 OFFCURVE",
"184 496 OFFCURVE",
"193 397 CURVE",
"67 397 LINE",
"67 339 LINE",
"193 339 LINE",
"188 231 OFFCURVE",
"139 159 OFFCURVE",
"59 112 CURVE",
"89 59 LINE",
"190 115 OFFCURVE",
"254 217 OFFCURVE",
"262 339 CURVE",
"321 339 LINE",
"321 0 LINE"
);
}
);
width = 576;
}
);
unicode = A09B;
},
{
glyphname = uniA09D;
lastChange = "2017-01-18 15:57:01 +0000";
layers = (
{
layerId = UUID0;
paths = (
{
closed = 1;
nodes = (
"158 0 LINE",
"158 186 LINE",
"366 86 LINE",
"366 394 LINE",
"548 557 LINE",
"508 604 LINE",
"366 475 LINE",
"366 714 LINE",
"298 714 LINE",
"298 185 LINE",
"89 293 LINE",
"89 0 LINE"
);
},
{
closed = 1;
nodes = (
"237 395 OFFCURVE",
"246 471 OFFCURVE",
"246 569 CURVE SMOOTH",
"246 688 LINE",
"182 688 LINE",
"182 573 LINE SMOOTH",
"182 500 OFFCURVE",
"179 453 OFFCURVE",
"140 453 CURVE SMOOTH",
"120 453 OFFCURVE",
"104 483 OFFCURVE",
"98 505 CURVE",
"39 482 LINE",
"49 441 OFFCURVE",
"81 395 OFFCURVE",
"143 395 CURVE SMOOTH"
);
}
);
width = 587;
}
);
unicode = A09D;
},
{
glyphname = uniA09E;
lastChange = "2017-01-18 15:57:01 +0000";
layers = (
{
layerId = UUID0;
paths = (
{
closed = 1;
nodes = (
"127 0 LINE",
"127 196 LINE",
"314 111 LINE",
"314 396 LINE",
"465 310 LINE",
"495 366 LINE",
"314 469 LINE",
"314 619 LINE",
"465 533 LINE",
"495 588 LINE",
"246 727 LINE",
"246 209 LINE",
"59 293 LINE",
"59 0 LINE"
);
},
{
closed = 1;
nodes = (
"122 428 LINE",
"122 632 LINE",
"59 632 LINE",
"59 428 LINE"
);
}
);
width = 534;
}
);
unicode = A09E;
},
{
glyphname = uniA09F;
lastChange = "2017-01-18 15:57:01 +0000";
layers = (
{
layerId = UUID0;
paths = (
{
closed = 1;
nodes = (
"435 0 LINE",
"435 619 LINE",
"548 560 LINE",
"568 619 LINE",
"367 729 LINE",
"367 468 LINE",
"353 468 LINE SMOOTH",
"193 468 OFFCURVE",
"59 390 OFFCURVE",
"59 231 CURVE SMOOTH",
"59 73 OFFCURVE",
"182 0 OFFCURVE",
"365 0 CURVE SMOOTH"
);
},
{
closed = 1;
nodes = (
"227 59 OFFCURVE",
"127 115 OFFCURVE",
"127 231 CURVE SMOOTH",
"127 348 OFFCURVE",
"227 409 OFFCURVE",
"343 409 CURVE SMOOTH",
"367 409 LINE",
"367 59 LINE",
"343 59 LINE SMOOTH"
);
},
{
closed = 1;
nodes = (
"321 125 OFFCURVE",
"344 175 OFFCURVE",
"344 232 CURVE SMOOTH",
"344 289 OFFCURVE",
"321 344 OFFCURVE",
"261 344 CURVE SMOOTH",
"198 344 OFFCURVE",
"176 289 OFFCURVE",
"176 232 CURVE SMOOTH",
"176 174 OFFCURVE",
"198 125 OFFCURVE",
"261 125 CURVE SMOOTH"
);
},
{
closed = 1;
nodes = (
"231 172 OFFCURVE",
"221 199 OFFCURVE",
"221 232 CURVE SMOOTH",
"221 266 OFFCURVE",
"228 297 OFFCURVE",
"261 297 CURVE SMOOTH",
"292 297 OFFCURVE",
"298 269 OFFCURVE",
"298 232 CURVE SMOOTH",
"298 197 OFFCURVE",
"287 172 OFFCURVE",
"258 172 CURVE SMOOTH"
);
}
);
width = 607;
}
);
unicode = A09F;
},
{
glyphname = uniA0A1;
lastChange = "2017-01-18 15:57:01 +0000";
layers = (
{
layerId = UUID0;
paths = (
{
closed = 1;
nodes = (
"396 0 LINE",
"396 298 LINE",
"435 268 OFFCURVE",
"470 227 OFFCURVE",
"501 181 CURVE",
"545 229 LINE",
"496 292 OFFCURVE",
"447 339 OFFCURVE",
"396 371 CURVE",
"396 619 LINE",
"509 560 LINE",
"529 619 LINE",
"328 729 LINE",
"328 404 LINE",
"297 415 OFFCURVE",
"265 420 OFFCURVE",
"232 420 CURVE SMOOTH",
"155 420 OFFCURVE",
"59 352 OFFCURVE",
"59 212 CURVE SMOOTH",
"59 68 OFFCURVE",
"143 0 OFFCURVE",
"326 0 CURVE SMOOTH"
);
},
{
closed = 1;
nodes = (
"202 59 OFFCURVE",
"127 96 OFFCURVE",
"127 212 CURVE SMOOTH",
"127 313 OFFCURVE",
"175 361 OFFCURVE",
"235 361 CURVE SMOOTH",
"267 361 OFFCURVE",
"298 354 OFFCURVE",
"328 341 CURVE",
"328 59 LINE",
"318 59 LINE SMOOTH"
);
},
{
closed = 1;
nodes = (
"271 153 LINE",
"271 290 LINE",
"208 290 LINE",
"208 153 LINE"
);
},
{
closed = 1;
nodes = (
"219 500 LINE",
"219 636 LINE",
"156 636 LINE",
"156 500 LINE"
);
},
{
closed = 1;
nodes = (
"509 386 LINE",
"509 522 LINE",
"446 522 LINE",
"446 386 LINE"
);
}
);
width = 584;
}
);
unicode = A0A1;
},
{
glyphname = uniA0A2;
lastChange = "2017-01-18 15:57:01 +0000";
layers = (
{
layerId = UUID0;
paths = (
{
closed = 1;
nodes = (
"421 -12 OFFCURVE",
"487 95 OFFCURVE",
"487 209 CURVE SMOOTH",
"487 467 OFFCURVE",
"138 412 OFFCURVE",
"138 559 CURVE SMOOTH",
"138 628 OFFCURVE",
"192 668 OFFCURVE",
"280 668 CURVE SMOOTH",
"354 668 OFFCURVE",
"403 624 OFFCURVE",
"429 569 CURVE",
"482 604 LINE",
"438 682 OFFCURVE",
"369 727 OFFCURVE",
"280 727 CURVE SMOOTH",
"130 727 OFFCURVE",
"69 646 OFFCURVE",
"69 563 CURVE SMOOTH",
"69 349 OFFCURVE",
"419 438 OFFCURVE",
"419 208 CURVE SMOOTH",
"419 107 OFFCURVE",
"355 46 OFFCURVE",
"267 46 CURVE SMOOTH",
"205 46 OFFCURVE",
"129 88 OFFCURVE",
"108 159 CURVE",
"49 131 LINE",
"92 29 OFFCURVE",
"188 -12 OFFCURVE",
"267 -12 CURVE SMOOTH"
);
},
{
closed = 1;
nodes = (
"336 106 OFFCURVE",
"373 155 OFFCURVE",
"373 212 CURVE SMOOTH",
"373 269 OFFCURVE",
"336 325 OFFCURVE",
"266 325 CURVE SMOOTH",
"193 325 OFFCURVE",
"156 270 OFFCURVE",
"156 212 CURVE SMOOTH",
"156 155 OFFCURVE",
"193 106 OFFCURVE",
"266 106 CURVE SMOOTH"
);
},
{
closed = 1;
nodes = (
"227 152 OFFCURVE",
"207 179 OFFCURVE",
"207 212 CURVE SMOOTH",
"207 247 OFFCURVE",
"223 278 OFFCURVE",
"266 278 CURVE SMOOTH",
"306 278 OFFCURVE",
"323 249 OFFCURVE",
"323 212 CURVE SMOOTH",
"323 178 OFFCURVE",
"302 152 OFFCURVE",
"263 152 CURVE SMOOTH"
);
}
);
width = 556;
}
);
unicode = A0A2;
},
{
glyphname = uniA0A3;
lastChange = "2017-01-18 15:57:01 +0000";
layers = (
{
layerId = UUID0;
paths = (
{
closed = 1;
nodes = (
"427 0 LINE",
"273 360 LINE",
"427 714 LINE",
"54 714 LINE",
"208 360 LINE",
"54 0 LINE"
);
},
{
closed = 1;
nodes = (
"240 285 LINE",
"339 59 LINE",
"142 59 LINE"
);
},
{
closed = 1;
nodes = (
"147 655 LINE",
"333 655 LINE",
"240 438 LINE"
);
},
{
closed = 1;
nodes = (
"491 255 LINE",
"491 518 LINE",
"427 518 LINE",
"427 255 LINE"
);
}
);
width = 549;
}
);
unicode = A0A3;
},
{
glyphname = uniA0A5;
lastChange = "2017-01-18 15:57:01 +0000";
layers = (
{
layerId = UUID0;
paths = (
{
closed = 1;
nodes = (
"454 714 LINE",
"385 714 LINE",
"385 70 LINE",
"79 166 LINE",
"59 105 LINE",
"454 -15 LINE"
);
},
{
closed = 1;
nodes = (
"112 249 LINE",
"112 404 LINE",
"49 404 LINE",
"49 249 LINE"
);
},
{
closed = 1;
nodes = (
"280 249 LINE",
"280 404 LINE",
"217 404 LINE",
"217 249 LINE"
);
},
{
closed = 1;
nodes = (
"112 498 LINE",
"112 653 LINE",
"49 653 LINE",
"49 498 LINE"
);
},
{
closed = 1;
nodes = (
"280 498 LINE",
"280 653 LINE",
"217 653 LINE",
"217 498 LINE"
);
}
);
width = 542;
}
);
unicode = A0A5;
},
{
glyphname = uniA0A6;
lastChange = "2017-01-18 15:57:01 +0000";
layers = (
{
layerId = UUID0;
paths = (
{
closed = 1;
nodes = (
"453 -13 OFFCURVE",
"524 142 OFFCURVE",
"524 358 CURVE SMOOTH",
"524 574 OFFCURVE",
"453 727 OFFCURVE",
"296 727 CURVE SMOOTH",
"143 727 OFFCURVE",
"68 576 OFFCURVE",
"68 362 CURVE SMOOTH",
"68 148 OFFCURVE",
"138 -13 OFFCURVE",
"296 -13 CURVE SMOOTH"
);
},
{
closed = 1;
nodes = (
"233 207 LINE",
"233 311 LINE",
"181 311 LINE",
"181 207 LINE"
);
},
{
closed = 1;
nodes = (
"171 72 OFFCURVE",
"137 200 OFFCURVE",
"137 362 CURVE SMOOTH",
"137 524 OFFCURVE",
"178 642 OFFCURVE",
"264 664 CURVE",
"264 49 LINE"
);
},
{
closed = 1;
nodes = (
"411 207 LINE",
"411 311 LINE",
"358 311 LINE",
"358 207 LINE"
);
},
{
closed = 1;
nodes = (
"233 431 LINE",
"233 536 LINE",
"181 536 LINE",
"181 431 LINE"
);
},
{
closed = 1;
nodes = (
"328 664 LINE",
"417 641 OFFCURVE",
"456 521 OFFCURVE",
"456 358 CURVE SMOOTH",
"456 196 OFFCURVE",
"417 73 OFFCURVE",
"328 50 CURVE"
);
},
{
closed = 1;
nodes = (
"411 431 LINE",
"411 536 LINE",
"358 536 LINE",
"358 431 LINE"
);
}
);
width = 592;
}
);
unicode = A0A6;
},
{
glyphname = uniA0A8;
lastChange = "2017-01-18 15:57:01 +0000";
layers = (
{
layerId = UUID0;
paths = (
{
closed = 1;
nodes = (
"474 372 OFFCURVE",
"569 503 OFFCURVE",
"580 714 CURVE",
"511 714 LINE",
"501 545 OFFCURVE",
"438 431 OFFCURVE",
"319 431 CURVE SMOOTH",
"190 431 OFFCURVE",
"135 554 OFFCURVE",
"127 714 CURVE",
"59 714 LINE",
"68 520 OFFCURVE",
"145 372 OFFCURVE",
"319 372 CURVE SMOOTH"
);
},
{
closed = 1;
nodes = (
"238 0 LINE",
"238 288 LINE",
"174 288 LINE",
"174 0 LINE"
);
},
{
closed = 1;
nodes = (
"469 0 LINE",
"469 288 LINE",
"406 288 LINE",
"406 0 LINE"
);
},
{
closed = 1;
nodes = (
"351 500 LINE",
"351 698 LINE",
"288 698 LINE",
"288 500 LINE"
);
}
);
width = 639;
}
);
unicode = A0A8;
},
{
glyphname = uniA0AA;
lastChange = "2017-01-18 15:57:01 +0000";
layers = (
{
layerId = UUID0;
paths = (
{
closed = 1;
nodes = (
"288 361 LINE",
"368 354 OFFCURVE",
"397 279 OFFCURVE",
"397 223 CURVE SMOOTH",
"397 201 OFFCURVE",
"393 169 OFFCURVE",
"386 155 CURVE",
"442 133 LINE",
"457 162 OFFCURVE",
"461 193 OFFCURVE",
"461 223 CURVE SMOOTH",
"461 302 OFFCURVE",
"424 403 OFFCURVE",
"288 415 CURVE",
"288 714 LINE",
"220 714 LINE",
"220 83 LINE",
"90 147 LINE",
"69 91 LINE",
"288 -15 LINE"
);
},
{
closed = 1;
nodes = (
"122 350 LINE",
"122 578 LINE",
"59 578 LINE",
"59 350 LINE"
);
},
{
closed = 1;
nodes = (
"449 438 LINE",
"449 642 LINE",
"386 642 LINE",
"386 438 LINE"
);
}
);
width = 520;
}
);
unicode = A0AA;
},
{
glyphname = uniA0AB;
lastChange = "2017-01-18 15:57:01 +0000";
layers = (
{
layerId = UUID0;
paths = (
{
closed = 1;
nodes = (
"160 0 LINE",
"160 176 LINE",
"446 67 LINE",
"446 714 LINE",
"378 714 LINE",
"378 160 LINE",
"91 269 LINE",
"91 0 LINE"
);
},
{
closed = 1;
nodes = (
"117 310 LINE",
"117 406 LINE",
"59 406 LINE",
"59 310 LINE"
);
},
{
closed = 1;
nodes = (
"117 461 LINE",
"117 558 LINE",
"59 558 LINE",
"59 461 LINE"
);
},
{
closed = 1;
nodes = (
"273 310 LINE",
"273 406 LINE",
"215 406 LINE",
"215 310 LINE"
);
},
{
closed = 1;
nodes = (
"117 613 LINE",
"117 709 LINE",
"59 709 LINE",
"59 613 LINE"
);
},
{
closed = 1;
nodes = (
"273 461 LINE",
"273 558 LINE",
"215 558 LINE",
"215 461 LINE"
);
},
{
closed = 1;
nodes = (
"273 613 LINE",
"273 709 LINE",
"215 709 LINE",
"215 613 LINE"
);
}
);
width = 534;
}
);
unicode = A0AB;
},
{
glyphname = uniA0AD;
lastChange = "2017-01-18 15:57:01 +0000";
layers = (
{
layerId = UUID0;
paths = (
{
closed = 1;
nodes = (
"247 -13 OFFCURVE",
"281 9 OFFCURVE",
"306 47 CURVE",
"331 9 OFFCURVE",
"366 -13 OFFCURVE",
"419 -13 CURVE SMOOTH",
"541 -13 OFFCURVE",
"554 102 OFFCURVE",
"554 211 CURVE",
"488 211 LINE",
"488 74 OFFCURVE",
"469 46 OFFCURVE",
"414 46 CURVE SMOOTH",
"370 46 OFFCURVE",
"340 78 OFFCURVE",
"340 164 CURVE SMOOTH",
"340 319 LINE",
"454 333 OFFCURVE",
"495 422 OFFCURVE",
"495 517 CURVE SMOOTH",
"495 619 OFFCURVE",
"447 727 OFFCURVE",
"307 727 CURVE SMOOTH",
"166 727 OFFCURVE",
"118 618 OFFCURVE",
"118 517 CURVE SMOOTH",
"118 420 OFFCURVE",
"159 334 OFFCURVE",
"272 319 CURVE",
"272 164 LINE SMOOTH",
"272 78 OFFCURVE",
"243 46 OFFCURVE",
"198 46 CURVE SMOOTH",
"144 46 OFFCURVE",
"125 74 OFFCURVE",
"125 211 CURVE",
"59 211 LINE",
"59 102 OFFCURVE",
"72 -13 OFFCURVE",
"193 -13 CURVE SMOOTH"
);
},
{
closed = 1;
nodes = (
"229 170 LINE",
"229 291 LINE",
"170 291 LINE",
"170 170 LINE"
);
},
{
closed = 1;
nodes = (
"442 170 LINE",
"442 291 LINE",
"383 291 LINE",
"383 170 LINE"
);
},
{
closed = 1;
nodes = (
"213 387 OFFCURVE",
"187 435 OFFCURVE",
"182 493 CURVE",
"274 493 LINE",
"274 375 LINE"
);
},
{
closed = 1;
nodes = (
"338 493 LINE",
"430 493 LINE",
"425 438 OFFCURVE",
"401 387 OFFCURVE",
"338 375 CURVE"
);
},
{
closed = 1;
nodes = (
"189 607 OFFCURVE",
"214 657 OFFCURVE",
"274 669 CURVE",
"274 552 LINE",
"183 552 LINE"
);
},
{
closed = 1;
nodes = (
"338 670 LINE",
"401 657 OFFCURVE",
"423 606 OFFCURVE",
"429 552 CURVE",
"338 552 LINE"
);
}
);
width = 612;
}
);
unicode = A0AD;
},
{
glyphname = uniA0AE;
lastChange = "2017-01-18 15:57:01 +0000";
layers = (
{
layerId = UUID0;
paths = (
{
closed = 1;
nodes = (
"453 -13 OFFCURVE",
"524 142 OFFCURVE",
"524 358 CURVE SMOOTH",
"524 574 OFFCURVE",
"453 727 OFFCURVE",
"296 727 CURVE SMOOTH",
"143 727 OFFCURVE",
"68 576 OFFCURVE",
"68 362 CURVE SMOOTH",
"68 148 OFFCURVE",
"138 -13 OFFCURVE",
"296 -13 CURVE SMOOTH"
);
},
{
closed = 1;
nodes = (
"380 167 LINE",
"380 225 LINE",
"212 225 LINE",
"212 167 LINE"
);
},
{
closed = 1;
nodes = (
"179 46 OFFCURVE",
"137 183 OFFCURVE",
"137 362 CURVE SMOOTH",
"137 543 OFFCURVE",
"188 668 OFFCURVE",
"295 668 CURVE SMOOTH",
"409 668 OFFCURVE",
"456 539 OFFCURVE",
"456 358 CURVE SMOOTH",
"456 178 OFFCURVE",
"409 46 OFFCURVE",
"295 46 CURVE SMOOTH"
);
},
{
closed = 1;
nodes = (
"414 279 LINE",
"414 337 LINE",
"326 337 LINE",
"326 411 LINE SMOOTH",
"326 497 OFFCURVE",
"335 500 OFFCURVE",
"351 500 CURVE SMOOTH",
"371 500 OFFCURVE",
"367 475 OFFCURVE",
"370 443 CURVE",
"426 443 LINE",
"423 517 OFFCURVE",
"409 559 OFFCURVE",
"355 559 CURVE SMOOTH",
"328 559 OFFCURVE",
"310 542 OFFCURVE",
"296 514 CURVE",
"283 542 OFFCURVE",
"265 559 OFFCURVE",
"238 559 CURVE SMOOTH",
"184 559 OFFCURVE",
"170 517 OFFCURVE",
"167 443 CURVE",
"223 443 LINE",
"226 475 OFFCURVE",
"222 500 OFFCURVE",
"242 500 CURVE SMOOTH",
"258 500 OFFCURVE",
"267 497 OFFCURVE",
"267 411 CURVE SMOOTH",
"267 337 LINE",
"178 337 LINE",
"178 279 LINE"
);
}
);
width = 592;
}
);
unicode = A0AE;
},
{
glyphname = uniA0B0;
lastChange = "2017-01-18 15:57:01 +0000";
layers = (
{
layerId = UUID0;
paths = (
{
closed = 1;
nodes = (
"258 186 LINE",
"464 72 LINE",
"492 120 LINE",
"258 250 LINE",
"258 253 LINE",
"492 383 LINE",
"464 432 LINE",
"258 317 LINE",
"258 575 LINE",
"458 465 LINE",
"458 714 LINE",
"394 714 LINE",
"394 565 LINE",
"190 676 LINE",
"190 83 LINE",
"61 147 LINE",
"39 91 LINE",
"258 -15 LINE"
);
}
);
width = 541;
}
);
unicode = A0B0;
},
{
glyphname = uniA0B1;
lastChange = "2017-01-18 15:57:01 +0000";
layers = (
{
layerId = UUID0;
paths = (
{
closed = 1;
nodes = (
"289 246 LINE",
"454 246 LINE",
"454 300 LINE",
"289 300 LINE",
"289 373 LINE",
"454 373 LINE",
"454 427 LINE",
"289 427 LINE",
"289 563 LINE",
"454 491 LINE",
"454 714 LINE",
"391 714 LINE",
"391 583 LINE",
"221 656 LINE",
"221 427 LINE",
"64 427 LINE",
"64 373 LINE",
"221 373 LINE",
"221 300 LINE",
"64 300 LINE",
"64 246 LINE",
"221 246 LINE",
"221 79 LINE",
"56 150 LINE",
"39 92 LINE",
"289 -15 LINE"
);
}
);
width = 518;
}
);
unicode = A0B1;
},
{
glyphname = uniA0B3;
lastChange = "2017-01-18 15:57:01 +0000";
layers = (
{
layerId = UUID0;
paths = (
{
closed = 1;
nodes = (
"454 -13 OFFCURVE",
"524 148 OFFCURVE",
"524 362 CURVE SMOOTH",
"524 576 OFFCURVE",
"449 727 OFFCURVE",
"296 727 CURVE SMOOTH",
"140 727 OFFCURVE",
"68 574 OFFCURVE",
"68 358 CURVE SMOOTH",
"68 142 OFFCURVE",
"140 -13 OFFCURVE",
"296 -13 CURVE SMOOTH"
);
},
{
closed = 1;
nodes = (
"260 46 OFFCURVE",
"230 60 OFFCURVE",
"207 84 CURVE",
"296 300 LINE",
"386 84 LINE",
"363 60 OFFCURVE",
"333 46 OFFCURVE",
"297 46 CURVE SMOOTH"
);
},
{
closed = 1;
nodes = (
"147 195 OFFCURVE",
"137 271 OFFCURVE",
"137 358 CURVE SMOOTH",
"137 452 OFFCURVE",
"149 531 OFFCURVE",
"177 586 CURVE",
"267 371 LINE",
"171 141 LINE"
);
},
{
closed = 1;
nodes = (
"326 371 LINE",
"415 585 LINE",
"442 531 OFFCURVE",
"456 454 OFFCURVE",
"456 362 CURVE SMOOTH",
"456 274 OFFCURVE",
"445 196 OFFCURVE",
"421 140 CURVE"
);
},
{
closed = 1;
nodes = (
"428 312 LINE",
"428 426 LINE",
"375 426 LINE",
"375 312 LINE"
);
},
{
closed = 1;
nodes = (
"215 638 LINE",
"237 657 OFFCURVE",
"264 668 OFFCURVE",
"297 668 CURVE SMOOTH",
"328 668 OFFCURVE",
"355 657 OFFCURVE",
"377 637 CURVE",
"296 442 LINE"
);
}
);
width = 592;
}
);
unicode = A0B3;
},
{
glyphname = uniA0B4;
lastChange = "2017-01-18 15:57:01 +0000";
layers = (
{
layerId = UUID0;
paths = (
{
closed = 1;
nodes = (
"297 575 LINE",
"496 465 LINE",
"496 714 LINE",
"433 714 LINE",
"433 561 LINE",
"229 676 LINE",
"229 83 LINE",
"61 162 LINE",
"39 105 LINE",
"297 -15 LINE"
);
},
{
closed = 1;
nodes = (
"138 232 LINE",
"138 452 LINE",
"75 452 LINE",
"75 232 LINE"
);
},
{
closed = 1;
nodes = (
"451 188 LINE",
"451 408 LINE",
"387 408 LINE",
"387 188 LINE"
);
}
);
width = 545;
}
);
unicode = A0B4;
},
{
glyphname = uniA0B5;
lastChange = "2017-01-18 15:57:01 +0000";
layers = (
{
layerId = UUID0;
paths = (
{
closed = 1;
nodes = (
"151 0 LINE",
"151 311 LINE",
"227 311 LINE",
"227 0 LINE",
"295 0 LINE",
"295 311 LINE",
"371 311 LINE",
"371 0 LINE",
"439 0 LINE",
"439 595 LINE",
"569 531 LINE",
"594 588 LINE",
"371 704 LINE",
"371 594 LINE",
"88 727 LINE",
"88 0 LINE"
);
},
{
closed = 1;
nodes = (
"151 632 LINE",
"227 599 LINE",
"227 364 LINE",
"151 364 LINE"
);
},
{
closed = 1;
nodes = (
"295 561 LINE",
"371 523 LINE",
"371 364 LINE",
"295 364 LINE"
);
}
);
width = 633;
}
);
unicode = A0B5;
},
{
glyphname = uniA0B7;
lastChange = "2017-01-18 15:57:01 +0000";
layers = (
{
layerId = UUID0;
paths = (
{
closed = 1;
nodes = (
"434 -13 OFFCURVE",
"490 120 OFFCURVE",
"490 295 CURVE SMOOTH",
"490 329 LINE",
"549 329 LINE",
"549 388 LINE",
"490 388 LINE",
"490 418 LINE SMOOTH",
"490 594 OFFCURVE",
"434 727 OFFCURVE",
"299 727 CURVE SMOOTH",
"164 727 OFFCURVE",
"107 594 OFFCURVE",
"107 418 CURVE SMOOTH",
"107 388 LINE",
"49 388 LINE",
"49 329 LINE",
"107 329 LINE",
"107 295 LINE SMOOTH",
"107 120 OFFCURVE",
"164 -13 OFFCURVE",
"299 -13 CURVE SMOOTH"
);
},
{
closed = 1;
nodes = (
"209 46 OFFCURVE",
"176 152 OFFCURVE",
"176 291 CURVE SMOOTH",
"176 329 LINE",
"422 329 LINE",
"422 291 LINE SMOOTH",
"422 152 OFFCURVE",
"389 46 OFFCURVE",
"299 46 CURVE SMOOTH"
);
},
{
closed = 1;
nodes = (
"176 423 LINE",
"176 562 OFFCURVE",
"209 668 OFFCURVE",
"299 668 CURVE SMOOTH",
"389 668 OFFCURVE",
"422 562 OFFCURVE",
"422 423 CURVE SMOOTH",
"422 388 LINE",
"176 388 LINE"
);
}
);
width = 598;
}
);
unicode = A0B7;
},
{
glyphname = uniA0B8;
lastChange = "2017-01-18 15:57:01 +0000";
layers = (
{
layerId = UUID0;
paths = (
{
closed = 1;
nodes = (
"350 0 LINE",
"350 139 LINE",
"516 139 LINE",
"516 193 LINE",
"350 193 LINE",
"350 264 LINE",
"501 264 LINE",
"501 317 LINE",
"350 317 LINE",
"350 397 LINE",
"287 397 LINE",
"287 317 LINE",
"135 317 LINE",
"135 264 LINE",
"287 264 LINE",
"287 193 LINE",
"121 193 LINE",
"121 139 LINE",
"287 139 LINE",
"287 0 LINE"
);
},
{
closed = 1;
nodes = (
"259 427 OFFCURVE",
"293 449 OFFCURVE",
"318 486 CURVE",
"343 449 OFFCURVE",
"378 427 OFFCURVE",
"431 427 CURVE SMOOTH",
"563 427 OFFCURVE",
"568 551 OFFCURVE",
"568 660 CURVE SMOOTH",
"568 714 LINE",
"500 714 LINE",
"500 669 LINE SMOOTH",
"500 533 OFFCURVE",
"491 485 OFFCURVE",
"426 485 CURVE SMOOTH",
"382 485 OFFCURVE",
"353 518 OFFCURVE",
"353 603 CURVE SMOOTH",
"353 714 LINE",
"284 714 LINE",
"284 603 LINE SMOOTH",
"284 518 OFFCURVE",
"255 485 OFFCURVE",
"210 485 CURVE SMOOTH",
"146 485 OFFCURVE",
"137 533 OFFCURVE",
"137 669 CURVE SMOOTH",
"137 714 LINE",
"68 714 LINE",
"68 660 LINE SMOOTH",
"68 551 OFFCURVE",
"74 427 OFFCURVE",
"206 427 CURVE SMOOTH"
);
}
);
width = 637;
}
);
unicode = A0B8;
},
{
glyphname = uniA0B9;
lastChange = "2017-01-18 15:57:01 +0000";
layers = (
{
layerId = UUID0;
paths = (
{
closed = 1;
nodes = (
"414 -13 OFFCURVE",
"471 69 OFFCURVE",
"471 182 CURVE SMOOTH",
"471 714 LINE",
"402 714 LINE",
"402 181 LINE SMOOTH",
"402 77 OFFCURVE",
"343 46 OFFCURVE",
"280 46 CURVE SMOOTH",
"216 46 OFFCURVE",
"156 76 OFFCURVE",
"156 181 CURVE SMOOTH",
"156 714 LINE",
"88 714 LINE",
"88 182 LINE SMOOTH",
"88 69 OFFCURVE",
"144 -13 OFFCURVE",
"279 -13 CURVE SMOOTH"
);
},
{
closed = 1;
nodes = (
"355 240 LINE",
"240 320 LINE",
"204 268 LINE",
"318 188 LINE"
);
},
{
closed = 1;
nodes = (
"355 420 LINE",
"240 500 LINE",
"204 448 LINE",
"318 369 LINE"
);
},
{
closed = 1;
nodes = (
"355 601 LINE",
"240 681 LINE",
"204 629 LINE",
"318 549 LINE"
);
}
);
width = 559;
}
);
unicode = A0B9;
},
{
glyphname = uniA0BB;
lastChange = "2017-01-18 15:57:01 +0000";
layers = (
{
layerId = UUID0;
paths = (
{
closed = 1;
nodes = (
"379 254 LINE",
"500 188 LINE",
"528 244 LINE",
"379 323 LINE",
"379 439 LINE",
"500 374 LINE",
"528 430 LINE",
"379 509 LINE",
"379 624 LINE",
"500 561 LINE",
"529 615 LINE",
"311 727 LINE",
"311 97 LINE",
"165 169 LINE",
"135 115 LINE",
"379 -13 LINE"
);
},
{
closed = 1;
nodes = (
"193 530 LINE",
"262 491 LINE",
"288 538 LINE",
"129 630 LINE",
"129 300 LINE",
"67 336 LINE",
"39 290 LINE",
"193 201 LINE"
);
}
);
width = 569;
}
);
unicode = A0BB;
},
{
glyphname = uniA0BC;
lastChange = "2017-01-18 15:57:01 +0000";
layers = (
{
layerId = UUID0;
paths = (
{
closed = 1;
nodes = (
"601 -13 OFFCURVE",
"617 161 OFFCURVE",
"617 358 CURVE SMOOTH",
"617 564 OFFCURVE",
"602 727 OFFCURVE",
"460 727 CURVE SMOOTH",
"368 727 OFFCURVE",
"329 653 OFFCURVE",
"313 544 CURVE",
"158 670 LINE",
"158 460 LINE",
"107 460 LINE",
"107 407 LINE",
"158 407 LINE",
"158 348 LINE",
"107 348 LINE",
"107 294 LINE",
"158 294 LINE",
"158 179 LINE",
"63 227 LINE",
"39 172 LINE",
"222 87 LINE",
"222 294 LINE",
"272 294 LINE",
"272 348 LINE",
"222 348 LINE",
"222 407 LINE",
"272 407 LINE",
"272 460 LINE",
"222 460 LINE",
"222 542 LINE",
"306 473 LINE",
"303 436 OFFCURVE",
"303 396 OFFCURVE",
"303 354 CURVE SMOOTH",
"303 151 OFFCURVE",
"318 -13 OFFCURVE",
"459 -13 CURVE SMOOTH"
);
},
{
closed = 1;
nodes = (
"376 46 OFFCURVE",
"371 183 OFFCURVE",
"371 362 CURVE SMOOTH",
"371 543 OFFCURVE",
"376 668 OFFCURVE",
"459 668 CURVE SMOOTH",
"543 668 OFFCURVE",
"548 539 OFFCURVE",
"548 358 CURVE SMOOTH",
"548 178 OFFCURVE",
"543 46 OFFCURVE",
"459 46 CURVE SMOOTH"
);
},
{
closed = 1;
nodes = (
"492 269 LINE",
"492 462 LINE",
"428 462 LINE",
"428 269 LINE"
);
}
);
width = 685;
}
);
unicode = A0BC;
},
{
glyphname = uniA0BD;
lastChange = "2017-01-18 15:57:01 +0000";
layers = (
{
layerId = UUID0;
paths = (
{
closed = 1;
nodes = (
"435 0 LINE",
"435 619 LINE",
"548 560 LINE",
"568 619 LINE",
"367 729 LINE",
"367 438 LINE",
"353 438 LINE SMOOTH",
"193 438 OFFCURVE",
"59 361 OFFCURVE",
"59 217 CURVE SMOOTH",
"59 73 OFFCURVE",
"182 0 OFFCURVE",
"365 0 CURVE SMOOTH"
);
},
{
closed = 1;
nodes = (
"227 59 OFFCURVE",
"127 101 OFFCURVE",
"127 217 CURVE SMOOTH",
"127 333 OFFCURVE",
"227 380 OFFCURVE",
"343 380 CURVE SMOOTH",
"367 380 LINE",
"367 59 LINE",
"343 59 LINE SMOOTH"
);
},
{
closed = 1;
nodes = (
"296 153 LINE",
"296 299 LINE",
"232 299 LINE",
"232 153 LINE"
);
}
);
width = 607;
}
);
unicode = A0BD;
},
{
glyphname = uniA0BF;
lastChange = "2017-01-18 15:57:01 +0000";
layers = (
{
layerId = UUID0;
paths = (
{
closed = 1;
nodes = (
"314 0 LINE",
"314 211 LINE",
"383 194 OFFCURVE",
"431 124 OFFCURVE",
"451 21 CURVE",
"511 40 LINE",
"484 166 OFFCURVE",
"416 255 OFFCURVE",
"314 271 CURVE",
"314 323 LINE",
"325 321 OFFCURVE",
"337 320 OFFCURVE",
"351 320 CURVE SMOOTH",
"431 320 OFFCURVE",
"469 370 OFFCURVE",
"469 422 CURVE SMOOTH",
"469 479 OFFCURVE",
"431 529 OFFCURVE",
"351 529 CURVE SMOOTH",
"337 529 OFFCURVE",
"325 528 OFFCURVE",
"314 525 CURVE",
"314 615 LINE",
"469 533 LINE",
"496 588 LINE",
"246 727 LINE",
"246 271 LINE",
"146 255 OFFCURVE",
"77 165 OFFCURVE",
"49 40 CURVE",
"109 21 LINE",
"130 125 OFFCURVE",
"180 194 OFFCURVE",
"246 211 CURVE",
"246 0 LINE"
);
},
{
closed = 1;
nodes = (
"337 369 OFFCURVE",
"325 370 OFFCURVE",
"314 373 CURVE",
"314 474 LINE",
"326 478 OFFCURVE",
"340 480 OFFCURVE",
"354 480 CURVE SMOOTH",
"397 480 OFFCURVE",
"417 458 OFFCURVE",
"417 422 CURVE SMOOTH",
"417 387 OFFCURVE",
"391 369 OFFCURVE",
"349 369 CURVE SMOOTH"
);
}
);
width = 560;
}
);
unicode = A0BF;
},
{
glyphname = uniA0C0;
lastChange = "2017-01-18 15:57:01 +0000";
layers = (
{
layerId = UUID0;
paths = (
{
closed = 1;
nodes = (
"145 0 LINE",
"145 160 LINE",
"243 124 OFFCURVE",
"306 91 OFFCURVE",
"362 91 CURVE SMOOTH",
"464 91 OFFCURVE",
"495 127 OFFCURVE",
"495 264 CURVE SMOOTH",
"495 523 LINE SMOOTH",
"495 680 OFFCURVE",
"416 727 OFFCURVE",
"312 727 CURVE SMOOTH",
"215 727 OFFCURVE",
"118 676 OFFCURVE",
"49 615 CURVE",
"83 570 LINE",
"167 644 OFFCURVE",
"250 668 OFFCURVE",
"312 668 CURVE SMOOTH",
"379 668 OFFCURVE",
"426 639 OFFCURVE",
"426 517 CURVE SMOOTH",
"426 295 LINE SMOOTH",
"426 157 OFFCURVE",
"424 150 OFFCURVE",
"362 150 CURVE SMOOTH",
"317 150 OFFCURVE",
"197 203 OFFCURVE",
"93 254 CURVE",
"77 254 LINE",
"77 0 LINE"
);
}
);
width = 583;
}
);
unicode = A0C0;
},
{
glyphname = uniA0C2;
lastChange = "2017-01-18 15:57:01 +0000";
layers = (
{
layerId = UUID0;
paths = (
{
closed = 1;
nodes = (
"267 414 LINE",
"311 414 LINE",
"311 411 LINE",
"311 327 OFFCURVE",
"326 228 OFFCURVE",
"431 228 CURVE SMOOTH",
"536 228 OFFCURVE",
"551 327 OFFCURVE",
"551 411 CURVE SMOOTH",
"551 493 OFFCURVE",
"538 603 OFFCURVE",
"431 603 CURVE SMOOTH",
"348 603 OFFCURVE",
"321 536 OFFCURVE",
"313 468 CURVE",
"267 468 LINE",
"267 714 LINE",
"199 714 LINE",
"199 468 LINE",
"57 468 LINE",
"57 414 LINE",
"199 414 LINE",
"199 99 LINE",
"79 163 LINE",
"49 108 LINE",
"267 -15 LINE"
);
},
{
closed = 1;
nodes = (
"375 282 OFFCURVE",
"374 353 OFFCURVE",
"374 411 CURVE SMOOTH",
"374 469 OFFCURVE",
"376 549 OFFCURVE",
"431 549 CURVE SMOOTH",
"481 549 OFFCURVE",
"487 464 OFFCURVE",
"487 411 CURVE SMOOTH",
"487 357 OFFCURVE",
"480 282 OFFCURVE",
"431 282 CURVE SMOOTH"
);
}
);
width = 600;
}
);
unicode = A0C2;
},
{
glyphname = uniA0C3;
lastChange = "2017-01-18 15:57:01 +0000";
layers = (
{
layerId = UUID0;
paths = (
{
closed = 1;
nodes = (
"346 385 LINE",
"362 385 LINE SMOOTH",
"422 385 OFFCURVE",
"450 353 OFFCURVE",
"450 306 CURVE SMOOTH",
"450 266 OFFCURVE",
"441 237 OFFCURVE",
"377 215 CURVE",
"404 161 LINE",
"495 197 OFFCURVE",
"518 249 OFFCURVE",
"518 301 CURVE SMOOTH",
"518 332 OFFCURVE",
"505 379 OFFCURVE",
"445 412 CURVE",
"505 443 OFFCURVE",
"518 491 OFFCURVE",
"518 522 CURVE SMOOTH",
"518 575 OFFCURVE",
"495 626 OFFCURVE",
"404 662 CURVE",
"377 608 LINE",
"441 586 OFFCURVE",
"450 558 OFFCURVE",
"450 517 CURVE SMOOTH",
"450 471 OFFCURVE",
"422 438 OFFCURVE",
"362 438 CURVE SMOOTH",
"346 438 LINE",
"346 714 LINE",
"277 714 LINE",
"277 99 LINE",
"125 181 LINE",
"95 126 LINE",
"346 -15 LINE"
);
},
{
closed = 1;
nodes = (
"122 301 LINE",
"122 560 LINE",
"59 560 LINE",
"59 301 LINE"
);
},
{
closed = 1;
nodes = (
"227 301 LINE",
"227 560 LINE",
"164 560 LINE",
"164 301 LINE"
);
}
);
width = 577;
}
);
unicode = A0C3;
},
{
glyphname = uniA0C5;
lastChange = "2017-01-18 15:57:01 +0000";
layers = (
{
layerId = UUID0;
paths = (
{
closed = 1;
nodes = (
"257 342 LINE",
"498 342 LINE",
"498 0 LINE",
"566 0 LINE",
"566 714 LINE",
"498 714 LINE",
"498 400 LINE",
"257 400 LINE",
"257 714 LINE",
"189 714 LINE",
"189 99 LINE",
"69 163 LINE",
"39 108 LINE",
"257 -13 LINE"
);
}
);
width = 654;
}
);
unicode = A0C5;
},
{
glyphname = uniA0C6;
lastChange = "2017-01-18 15:57:01 +0000";
layers = (
{
layerId = UUID0;
paths = (
{
closed = 1;
nodes = (
"310 -13 OFFCURVE",
"325 52 OFFCURVE",
"325 144 CURVE SMOOTH",
"325 172 LINE",
"462 182 OFFCURVE",
"523 250 OFFCURVE",
"523 332 CURVE SMOOTH",
"523 413 OFFCURVE",
"462 481 OFFCURVE",
"325 491 CURVE",
"325 526 LINE SMOOTH",
"325 531 OFFCURVE",
"325 536 OFFCURVE",
"325 541 CURVE",
"374 565 OFFCURVE",
"421 615 OFFCURVE",
"458 714 CURVE",
"397 727 LINE",
"377 668 OFFCURVE",
"353 628 OFFCURVE",
"318 604 CURVE",
"306 668 OFFCURVE",
"271 727 OFFCURVE",
"191 727 CURVE SMOOTH",
"119 727 OFFCURVE",
"84 678 OFFCURVE",
"84 621 CURVE SMOOTH",
"84 563 OFFCURVE",
"124 518 OFFCURVE",
"196 518 CURVE SMOOTH",
"215 518 OFFCURVE",
"236 518 OFFCURVE",
"257 521 CURVE",
"257 491 LINE",
"121 481 OFFCURVE",
"59 413 OFFCURVE",
"59 332 CURVE SMOOTH",
"59 250 OFFCURVE",
"121 182 OFFCURVE",
"257 172 CURVE",
"257 148 LINE SMOOTH",
"257 63 OFFCURVE",
"252 46 OFFCURVE",
"223 46 CURVE SMOOTH",
"195 46 OFFCURVE",
"159 66 OFFCURVE",
"133 111 CURVE",
"80 82 LINE",
"112 28 OFFCURVE",
"160 -13 OFFCURVE",
"224 -13 CURVE SMOOTH"
);
},
{
closed = 1;
nodes = (
"166 234 OFFCURVE",
"122 274 OFFCURVE",
"122 332 CURVE SMOOTH",
"122 389 OFFCURVE",
"166 430 OFFCURVE",
"259 437 CURVE",
"259 226 LINE"
);
},
{
closed = 1;
nodes = (
"323 437 LINE",
"416 430 OFFCURVE",
"460 389 OFFCURVE",
"460 332 CURVE SMOOTH",
"460 274 OFFCURVE",
"416 233 OFFCURVE",
"323 226 CURVE"
);
},
{
closed = 1;
nodes = (
"165 571 OFFCURVE",
"145 588 OFFCURVE",
"145 621 CURVE SMOOTH",
"145 655 OFFCURVE",
"160 673 OFFCURVE",
"192 673 CURVE SMOOTH",
"238 673 OFFCURVE",
"251 624 OFFCURVE",
"255 576 CURVE",
"239 573 OFFCURVE",
"221 571 OFFCURVE",
"202 571 CURVE SMOOTH"
);
}
);
width = 582;
}
);
unicode = A0C6;
},
{
glyphname = uniA0C8;
lastChange = "2017-01-18 15:57:01 +0000";
layers = (
{
layerId = UUID0;
paths = (
{
closed = 1;
nodes = (
"289 217 LINE",
"488 217 LINE",
"488 271 LINE",
"289 271 LINE",
"289 524 LINE",
"488 524 LINE",
"488 578 LINE",
"289 578 LINE",
"289 714 LINE",
"221 714 LINE",
"221 99 LINE",
"69 181 LINE",
"39 126 LINE",
"289 -13 LINE"
);
},
{
closed = 1;
nodes = (
"123 300 LINE",
"123 583 LINE",
"59 583 LINE",
"59 300 LINE"
);
}
);
width = 527;
}
);
unicode = A0C8;
},
{
glyphname = uniA0C9;
lastChange = "2017-01-18 15:57:01 +0000";
layers = (
{
layerId = UUID0;
paths = (
{
closed = 1;
nodes = (
"156 0 LINE",
"156 37 LINE",
"214 40 OFFCURVE",
"263 54 OFFCURVE",
"303 76 CURVE",
"346 52 OFFCURVE",
"400 38 OFFCURVE",
"464 37 CURVE",
"464 95 LINE",
"419 95 OFFCURVE",
"383 102 OFFCURVE",
"354 114 CURVE",
"394 152 OFFCURVE",
"415 201 OFFCURVE",
"415 250 CURVE SMOOTH",
"415 308 OFFCURVE",
"392 352 OFFCURVE",
"356 385 CURVE",
"388 397 OFFCURVE",
"425 404 OFFCURVE",
"464 406 CURVE",
"464 464 LINE",
"408 461 OFFCURVE",
"351 448 OFFCURVE",
"303 423 CURVE",
"259 446 OFFCURVE",
"207 458 OFFCURVE",
"156 463 CURVE",
"156 593 LINE",
"433 495 LINE",
"433 714 LINE",
"365 714 LINE",
"365 584 LINE",
"88 685 LINE",
"88 0 LINE"
);
},
{
closed = 1;
nodes = (
"156 405 LINE",
"189 402 OFFCURVE",
"221 396 OFFCURVE",
"249 385 CURVE",
"213 352 OFFCURVE",
"190 308 OFFCURVE",
"190 250 CURVE SMOOTH",
"190 201 OFFCURVE",
"212 152 OFFCURVE",
"252 114 CURVE",
"226 103 OFFCURVE",
"194 97 OFFCURVE",
"156 95 CURVE"
);
},
{
closed = 1;
nodes = (
"269 174 OFFCURVE",
"254 213 OFFCURVE",
"254 250 CURVE SMOOTH",
"254 295 OFFCURVE",
"272 330 OFFCURVE",
"303 354 CURVE",
"333 330 OFFCURVE",
"352 295 OFFCURVE",
"352 250 CURVE SMOOTH",
"352 213 OFFCURVE",
"337 174 OFFCURVE",
"303 145 CURVE"
);
}
);
width = 532;
}
);
unicode = A0C9;
},
{
glyphname = uniA0CB;
lastChange = "2017-01-18 15:57:01 +0000";
layers = (
{
layerId = UUID0;
paths = (
{
closed = 1;
nodes = (
"474 372 OFFCURVE",
"569 503 OFFCURVE",
"580 714 CURVE",
"511 714 LINE",
"501 545 OFFCURVE",
"438 431 OFFCURVE",
"319 431 CURVE SMOOTH",
"190 431 OFFCURVE",
"135 554 OFFCURVE",
"127 714 CURVE",
"59 714 LINE",
"68 520 OFFCURVE",
"145 372 OFFCURVE",
"319 372 CURVE SMOOTH"
);
},
{
closed = 1;
nodes = (
"238 0 LINE",
"238 288 LINE",
"174 288 LINE",
"174 0 LINE"
);
},
{
closed = 1;
nodes = (
"469 0 LINE",
"469 288 LINE",
"406 288 LINE",
"406 0 LINE"
);
}
);
width = 639;
}
);
unicode = A0CB;
},
{
glyphname = uniA0CC;
lastChange = "2017-01-18 15:57:01 +0000";
layers = (
{
layerId = UUID0;
paths = (
{
closed = 1;
nodes = (
"220 0 LINE",
"220 361 LINE",
"488 361 LINE",
"488 415 LINE",
"220 415 LINE",
"220 714 LINE",
"151 714 LINE",
"151 415 LINE",
"39 415 LINE",
"39 361 LINE",
"151 361 LINE",
"151 0 LINE"
);
},
{
closed = 1;
nodes = (
"421 104 LINE",
"421 283 LINE",
"358 283 LINE",
"358 104 LINE"
);
},
{
closed = 1;
nodes = (
"421 488 LINE",
"421 667 LINE",
"358 667 LINE",
"358 488 LINE"
);
}
);
width = 527;
}
);
unicode = A0CC;
},
{
glyphname = uniA0CD;
lastChange = "2017-01-18 15:57:01 +0000";
layers = (
{
layerId = UUID0;
paths = (
{
closed = 1;
nodes = (
"227 -13 OFFCURVE",
"256 4 OFFCURVE",
"277 42 CURVE",
"292 4 OFFCURVE",
"322 -13 OFFCURVE",
"360 -13 CURVE SMOOTH",
"460 -13 OFFCURVE",
"483 76 OFFCURVE",
"483 166 CURVE SMOOTH",
"483 198 OFFCURVE",
"477 293 OFFCURVE",
"459 396 CURVE",
"515 396 LINE",
"515 450 LINE",
"450 450 LINE",
"445 470 OFFCURVE",
"441 489 OFFCURVE",
"436 509 CURVE",
"500 509 LINE",
"500 563 LINE",
"419 563 LINE",
"388 655 OFFCURVE",
"343 727 OFFCURVE",
"277 727 CURVE SMOOTH",
"211 727 OFFCURVE",
"164 657 OFFCURVE",
"131 563 CURVE",
"54 563 LINE",
"54 509 LINE",
"115 509 LINE",
"109 490 OFFCURVE",
"104 470 OFFCURVE",
"101 450 CURVE",
"39 450 LINE",
"39 396 LINE",
"91 396 LINE",
"77 313 OFFCURVE",
"71 229 OFFCURVE",
"71 166 CURVE SMOOTH",
"71 76 OFFCURVE",
"86 -13 OFFCURVE",
"193 -13 CURVE SMOOTH"
);
},
{
closed = 1;
nodes = (
"154 46 OFFCURVE",
"137 76 OFFCURVE",
"137 166 CURVE SMOOTH",
"137 229 OFFCURVE",
"144 314 OFFCURVE",
"157 396 CURVE",
"234 396 LINE",
"234 450 LINE",
"166 450 LINE",
"170 470 OFFCURVE",
"175 490 OFFCURVE",
"180 509 CURVE",
"249 509 LINE",
"249 563 LINE",
"196 563 LINE",
"217 625 OFFCURVE",
"245 668 OFFCURVE",
"277 668 CURVE SMOOTH",
"309 668 OFFCURVE",
"336 626 OFFCURVE",
"358 563 CURVE",
"305 563 LINE",
"305 509 LINE",
"375 509 LINE",
"380 490 OFFCURVE",
"384 470 OFFCURVE",
"388 450 CURVE",
"319 450 LINE",
"319 396 LINE",
"398 396 LINE",
"410 320 OFFCURVE",
"417 238 OFFCURVE",
"417 166 CURVE SMOOTH",
"417 70 OFFCURVE",
"396 46 OFFCURVE",
"365 46 CURVE SMOOTH",
"331 46 OFFCURVE",
"309 78 OFFCURVE",
"309 164 CURVE SMOOTH",
"309 205 LINE",
"245 205 LINE",
"245 164 LINE SMOOTH",
"245 78 OFFCURVE",
"223 46 OFFCURVE",
"188 46 CURVE SMOOTH"
);
}
);
width = 554;
}
);
unicode = A0CD;
},
{
glyphname = uniA0CF;
lastChange = "2017-01-18 15:57:01 +0000";
layers = (
{
layerId = UUID0;
paths = (
{
closed = 1;
nodes = (
"335 619 LINE",
"487 533 LINE",
"517 588 LINE",
"267 727 LINE",
"267 462 LINE",
"122 462 LINE",
"122 616 LINE",
"59 616 LINE",
"59 244 LINE",
"122 244 LINE",
"122 408 LINE",
"267 408 LINE",
"267 99 LINE",
"115 181 LINE",
"85 126 LINE",
"335 -13 LINE"
);
}
);
width = 556;
}
);
unicode = A0CF;
},
{
glyphname = uniA0D0;
lastChange = "2017-01-18 15:57:01 +0000";
layers = (
{
layerId = UUID0;
paths = (
{
closed = 1;
nodes = (
"127 0 LINE",
"127 186 LINE",
"335 86 LINE",
"335 623 LINE",
"456 561 LINE",
"485 615 LINE",
"267 727 LINE",
"267 539 LINE",
"122 539 LINE",
"122 688 LINE",
"59 688 LINE",
"59 341 LINE",
"122 341 LINE",
"122 485 LINE",
"267 485 LINE",
"267 185 LINE",
"59 293 LINE",
"59 0 LINE"
);
}
);
width = 524;
}
);
unicode = A0D0;
},
{
glyphname = uniA0D1;
lastChange = "2017-01-18 15:57:01 +0000";
layers = (
{
layerId = UUID0;
paths = (
{
closed = 1;
nodes = (
"208 327 LINE",
"449 327 LINE",
"449 0 LINE",
"518 0 LINE",
"518 608 LINE",
"587 561 LINE",
"619 609 LINE",
"449 727 LINE",
"449 386 LINE",
"208 386 LINE",
"208 714 LINE",
"140 714 LINE",
"140 106 LINE",
"70 153 LINE",
"39 104 LINE",
"208 -13 LINE"
);
},
{
closed = 1;
nodes = (
"390 69 OFFCURVE",
"413 119 OFFCURVE",
"413 176 CURVE SMOOTH",
"413 232 OFFCURVE",
"390 288 OFFCURVE",
"330 288 CURVE SMOOTH",
"267 288 OFFCURVE",
"245 233 OFFCURVE",
"245 176 CURVE SMOOTH",
"245 118 OFFCURVE",
"267 69 OFFCURVE",
"330 69 CURVE SMOOTH"
);
},
{
closed = 1;
nodes = (
"300 116 OFFCURVE",
"290 143 OFFCURVE",
"290 176 CURVE SMOOTH",
"290 210 OFFCURVE",
"297 241 OFFCURVE",
"330 241 CURVE SMOOTH",
"360 241 OFFCURVE",
"367 212 OFFCURVE",
"367 176 CURVE SMOOTH",
"367 141 OFFCURVE",
"356 116 OFFCURVE",
"327 116 CURVE SMOOTH"
);
},
{
closed = 1;
nodes = (
"390 425 OFFCURVE",
"413 474 OFFCURVE",
"413 531 CURVE SMOOTH",
"413 588 OFFCURVE",
"390 644 OFFCURVE",
"330 644 CURVE SMOOTH",
"267 644 OFFCURVE",
"245 588 OFFCURVE",
"245 531 CURVE SMOOTH",
"245 474 OFFCURVE",
"267 425 OFFCURVE",
"330 425 CURVE SMOOTH"
);
},
{
closed = 1;
nodes = (
"300 471 OFFCURVE",
"290 498 OFFCURVE",
"290 531 CURVE SMOOTH",
"290 565 OFFCURVE",
"297 597 OFFCURVE",
"330 597 CURVE SMOOTH",
"360 597 OFFCURVE",
"367 568 OFFCURVE",
"367 531 CURVE SMOOTH",
"367 497 OFFCURVE",
"356 471 OFFCURVE",
"327 471 CURVE SMOOTH"
);
}
);
width = 658;
}
);
unicode = A0D1;
},
{
glyphname = uniA0D3;
lastChange = "2017-01-18 15:57:01 +0000";
layers = (
{
layerId = UUID0;
paths = (
{
closed = 1;
nodes = (
"489 714 LINE",
"421 714 LINE",
"421 535 LINE",
"69 729 LINE",
"69 443 LINE",
"138 443 LINE",
"138 625 LINE",
"489 434 LINE"
);
},
{
closed = 1;
nodes = (
"401 -13 OFFCURVE",
"478 61 OFFCURVE",
"507 193 CURVE",
"442 217 LINE",
"424 110 OFFCURVE",
"374 46 OFFCURVE",
"282 46 CURVE SMOOTH",
"184 46 OFFCURVE",
"135 113 OFFCURVE",
"119 217 CURVE",
"54 193 LINE",
"77 84 OFFCURVE",
"142 -13 OFFCURVE",
"282 -13 CURVE SMOOTH"
);
},
{
closed = 1;
nodes = (
"240 199 LINE",
"240 457 LINE",
"177 457 LINE",
"177 199 LINE"
);
},
{
closed = 1;
nodes = (
"382 199 LINE",
"382 457 LINE",
"318 457 LINE",
"318 199 LINE"
);
}
);
width = 561;
}
);
unicode = A0D3;
},
{
glyphname = uniA0D4;
lastChange = "2017-01-18 15:57:01 +0000";
layers = (
{
layerId = UUID0;
paths = (
{
closed = 1;
nodes = (
"491 714 LINE",
"423 714 LINE",
"423 545 LINE",
"71 729 LINE",
"71 473 LINE",
"140 473 LINE",
"140 628 LINE",
"491 443 LINE"
);
},
{
closed = 1;
nodes = (
"401 -13 OFFCURVE",
"478 61 OFFCURVE",
"507 193 CURVE",
"442 217 LINE",
"424 110 OFFCURVE",
"374 46 OFFCURVE",
"282 46 CURVE SMOOTH",
"184 46 OFFCURVE",
"135 113 OFFCURVE",
"119 217 CURVE",
"54 193 LINE",
"77 84 OFFCURVE",
"142 -13 OFFCURVE",
"282 -13 CURVE SMOOTH"
);
},
{
closed = 1;
nodes = (
"313 155 LINE",
"313 286 LINE",
"250 286 LINE",
"250 155 LINE"
);
},
{
closed = 1;
nodes = (
"242 331 LINE",
"242 461 LINE",
"179 461 LINE",
"179 331 LINE"
);
},
{
closed = 1;
nodes = (
"384 331 LINE",
"384 461 LINE",
"320 461 LINE",
"320 331 LINE"
);
}
);
width = 561;
}
);
unicode = A0D4;
},
{
glyphname = uniA0D6;
lastChange = "2017-01-18 15:57:01 +0000";
layers = (
{
layerId = UUID0;
paths = (
{
closed = 1;
nodes = (
"440 0 LINE",
"440 714 LINE",
"372 714 LINE",
"372 557 LINE",
"188 662 LINE",
"163 617 LINE",
"295 541 LINE",
"257 531 OFFCURVE",
"229 510 OFFCURVE",
"210 485 CURVE",
"183 535 OFFCURVE",
"136 574 OFFCURVE",
"66 586 CURVE",
"49 533 LINE",
"135 512 OFFCURVE",
"174 456 OFFCURVE",
"174 372 CURVE SMOOTH",
"174 300 OFFCURVE",
"136 241 OFFCURVE",
"49 219 CURVE",
"66 166 LINE",
"133 180 OFFCURVE",
"181 216 OFFCURVE",
"208 263 CURVE",
"228 239 OFFCURVE",
"256 219 OFFCURVE",
"294 210 CURVE",
"163 135 LINE",
"188 90 LINE",
"372 194 LINE",
"372 0 LINE"
);
},
{
closed = 1;
nodes = (
"265 257 OFFCURVE",
"238 310 OFFCURVE",
"237 367 CURVE SMOOTH",
"237 371 LINE SMOOTH",
"237 430 OFFCURVE",
"264 495 OFFCURVE",
"353 495 CURVE SMOOTH",
"360 495 OFFCURVE",
"366 495 OFFCURVE",
"372 494 CURVE",
"372 258 LINE",
"366 257 OFFCURVE",
"360 257 OFFCURVE",
"353 257 CURVE SMOOTH"
);
}
);
width = 528;
}
);
unicode = A0D6;
},
{
glyphname = uniA0D7;
lastChange = "2017-01-18 15:57:01 +0000";
layers = (
{
layerId = UUID0;
paths = (
{
closed = 1;
nodes = (
"327 0 LINE",
"327 342 LINE",
"487 342 LINE",
"487 396 LINE",
"327 396 LINE",
"327 714 LINE",
"258 714 LINE",
"258 557 LINE",
"75 662 LINE",
"49 617 LINE",
"181 541 LINE",
"94 517 OFFCURVE",
"60 438 OFFCURVE",
"60 371 CURVE SMOOTH",
"60 301 OFFCURVE",
"94 231 OFFCURVE",
"180 210 CURVE",
"49 135 LINE",
"75 90 LINE",
"258 194 LINE",
"258 0 LINE"
);
},
{
closed = 1;
nodes = (
"149 257 OFFCURVE",
"124 313 OFFCURVE",
"124 371 CURVE SMOOTH",
"124 430 OFFCURVE",
"150 495 OFFCURVE",
"239 495 CURVE SMOOTH",
"246 495 OFFCURVE",
"252 495 OFFCURVE",
"258 494 CURVE",
"258 258 LINE",
"252 257 OFFCURVE",
"246 257 OFFCURVE",
"239 257 CURVE SMOOTH"
);
},
{
closed = 1;
nodes = (
"439 114 LINE",
"439 264 LINE",
"375 264 LINE",
"375 114 LINE"
);
},
{
closed = 1;
nodes = (
"439 474 LINE",
"439 625 LINE",
"375 625 LINE",
"375 474 LINE"
);
}
);
width = 536;
}
);
unicode = A0D7;
},
{
glyphname = uniA0D8;
lastChange = "2017-01-18 15:57:01 +0000";
layers = (
{
layerId = UUID0;
paths = (
{
closed = 1;
nodes = (
"262 0 LINE",
"262 619 LINE",
"413 533 LINE",
"443 588 LINE",
"193 727 LINE",
"193 0 LINE"
);
},
{
closed = 1;
nodes = (
"112 100 LINE",
"112 320 LINE",
"49 320 LINE",
"49 100 LINE"
);
},
{
closed = 1;
nodes = (
"112 452 LINE",
"112 671 LINE",
"49 671 LINE",
"49 452 LINE"
);
},
{
closed = 1;
nodes = (
"405 227 LINE",
"405 447 LINE",
"342 447 LINE",
"342 227 LINE"
);
}
);
width = 482;
}
);
unicode = A0D8;
},
{
glyphname = uniA0DA;
lastChange = "2017-01-18 15:57:01 +0000";
layers = (
{
layerId = UUID0;
paths = (
{
closed = 1;
nodes = (
"234 0 LINE",
"234 161 LINE",
"387 161 LINE",
"387 0 LINE",
"456 0 LINE",
"456 325 LINE",
"567 337 OFFCURVE",
"573 454 OFFCURVE",
"573 557 CURVE SMOOTH",
"573 631 LINE",
"509 631 LINE",
"509 567 LINE SMOOTH",
"509 450 OFFCURVE",
"499 398 OFFCURVE",
"456 386 CURVE",
"456 714 LINE",
"387 714 LINE",
"387 220 LINE",
"234 220 LINE",
"234 714 LINE",
"166 714 LINE",
"166 386 LINE",
"123 398 OFFCURVE",
"112 450 OFFCURVE",
"112 567 CURVE SMOOTH",
"112 631 LINE",
"49 631 LINE",
"49 557 LINE SMOOTH",
"49 454 OFFCURVE",
"54 337 OFFCURVE",
"166 325 CURVE",
"166 0 LINE"
);
}
);
width = 622;
}
);
unicode = A0DA;
},
{
glyphname = uniA0DB;
lastChange = "2017-01-18 15:57:01 +0000";
layers = (
{
layerId = UUID0;
paths = (
{
closed = 1;
nodes = (
"301 336 LINE",
"529 190 LINE",
"560 236 LINE",
"352 369 LINE",
"560 502 LINE",
"529 548 LINE",
"301 402 LINE",
"59 558 LINE",
"59 180 LINE"
);
},
{
closed = 1;
nodes = (
"219 0 LINE",
"219 155 LINE",
"155 155 LINE",
"155 0 LINE"
);
},
{
closed = 1;
nodes = (
"440 0 LINE",
"440 155 LINE",
"377 155 LINE",
"377 0 LINE"
);
},
{
closed = 1;
nodes = (
"122 452 LINE",
"250 369 LINE",
"122 287 LINE"
);
},
{
closed = 1;
nodes = (
"219 559 LINE",
"219 714 LINE",
"155 714 LINE",
"155 559 LINE"
);
},
{
closed = 1;
nodes = (
"440 559 LINE",
"440 714 LINE",
"377 714 LINE",
"377 559 LINE"
);
}
);
width = 608;
}
);
unicode = A0DB;
},
{
glyphname = uniA0DD;
lastChange = "2017-01-18 15:57:01 +0000";
layers = (
{
layerId = UUID0;
paths = (
{
closed = 1;
nodes = (
"333 0 LINE",
"333 538 LINE",
"498 466 LINE",
"498 714 LINE",
"435 714 LINE",
"435 559 LINE",
"265 631 LINE",
"265 474 LINE",
"212 519 OFFCURVE",
"134 541 OFFCURVE",
"49 541 CURVE",
"49 482 LINE",
"165 482 OFFCURVE",
"265 431 OFFCURVE",
"265 319 CURVE SMOOTH",
"265 213 OFFCURVE",
"165 161 OFFCURVE",
"49 161 CURVE",
"49 103 LINE",
"130 103 OFFCURVE",
"210 125 OFFCURVE",
"265 171 CURVE",
"265 0 LINE"
);
},
{
closed = 1;
nodes = (
"138 260 LINE",
"138 387 LINE",
"75 387 LINE",
"75 260 LINE"
);
}
);
width = 547;
}
);
unicode = A0DD;
},
{
glyphname = uniA0DE;
lastChange = "2017-01-18 15:57:01 +0000";
layers = (
{
layerId = UUID0;
paths = (
{
closed = 1;
nodes = (
"127 0 LINE",
"127 196 LINE",
"314 111 LINE",
"314 264 LINE",
"521 450 LINE",
"480 497 LINE",
"314 346 LINE",
"314 457 LINE",
"496 621 LINE",
"456 668 LINE",
"314 539 LINE",
"314 714 LINE",
"246 714 LINE",
"246 209 LINE",
"59 293 LINE",
"59 0 LINE"
);
}
);
width = 560;
}
);
unicode = A0DE;
},
{
glyphname = uniA0E0;
lastChange = "2017-01-18 15:57:01 +0000";
layers = (
{
layerId = UUID0;
paths = (
{
closed = 1;
nodes = (
"151 0 LINE",
"151 196 LINE",
"338 111 LINE",
"338 433 LINE",
"459 449 OFFCURVE",
"537 552 OFFCURVE",
"560 714 CURVE",
"490 714 LINE",
"472 592 OFFCURVE",
"421 508 OFFCURVE",
"336 492 CURVE",
"336 714 LINE",
"272 714 LINE",
"272 492 LINE",
"231 499 OFFCURVE",
"199 520 OFFCURVE",
"175 552 CURVE",
"239 617 LINE",
"197 662 LINE",
"144 608 LINE",
"131 639 OFFCURVE",
"122 675 OFFCURVE",
"117 714 CURVE",
"49 714 LINE",
"56 655 OFFCURVE",
"71 603 OFFCURVE",
"94 559 CURVE",
"29 494 LINE",
"74 450 LINE",
"129 506 LINE",
"165 466 OFFCURVE",
"211 440 OFFCURVE",
"270 433 CURVE",
"270 209 LINE",
"83 293 LINE",
"83 0 LINE"
);
}
);
width = 608;
}
);
unicode = A0E0;
},
{
glyphname = uniA0E1;
lastChange = "2017-01-18 15:57:01 +0000";
layers = (
{
layerId = UUID0;
paths = (
{
closed = 1;
nodes = (
"151 0 LINE",
"151 196 LINE",
"338 111 LINE",
"338 270 LINE",
"508 363 LINE",
"480 418 LINE",
"338 339 LINE",
"338 433 LINE",
"459 449 OFFCURVE",
"537 552 OFFCURVE",
"560 714 CURVE",
"490 714 LINE",
"470 578 OFFCURVE",
"409 489 OFFCURVE",
"304 489 CURVE SMOOTH",
"191 489 OFFCURVE",
"135 583 OFFCURVE",
"117 714 CURVE",
"49 714 LINE",
"68 562 OFFCURVE",
"136 449 OFFCURVE",
"270 433 CURVE",
"270 209 LINE",
"83 293 LINE",
"83 0 LINE"
);
}
);
width = 608;
}
);
unicode = A0E1;
},
{
glyphname = uniA0E2;
lastChange = "2017-01-18 15:57:01 +0000";
layers = (
{
layerId = UUID0;
paths = (
{
closed = 1;
nodes = (
"151 0 LINE",
"151 196 LINE",
"338 111 LINE",
"338 433 LINE",
"459 449 OFFCURVE",
"537 552 OFFCURVE",
"560 714 CURVE",
"490 714 LINE",
"470 578 OFFCURVE",
"409 489 OFFCURVE",
"304 489 CURVE SMOOTH",
"191 489 OFFCURVE",
"135 583 OFFCURVE",
"117 714 CURVE",
"49 714 LINE",
"68 562 OFFCURVE",
"136 449 OFFCURVE",
"270 433 CURVE",
"270 209 LINE",
"83 293 LINE",
"83 0 LINE"
);
},
{
closed = 1;
nodes = (
"336 565 LINE",
"336 699 LINE",
"272 699 LINE",
"272 565 LINE"
);
}
);
width = 608;
}
);
unicode = A0E2;
},
{
glyphname = uniA0E4;
lastChange = "2017-01-18 15:57:01 +0000";
layers = (
{
layerId = UUID0;
paths = (
{
closed = 1;
nodes = (
"207 438 LINE",
"275 381 LINE",
"274 373 OFFCURVE",
"274 365 OFFCURVE",
"274 357 CURVE SMOOTH",
"274 197 OFFCURVE",
"337 77 OFFCURVE",
"465 -5 CURVE",
"501 48 LINE",
"395 119 OFFCURVE",
"343 207 OFFCURVE",
"343 357 CURVE SMOOTH",
"343 505 OFFCURVE",
"396 600 OFFCURVE",
"501 667 CURVE",
"465 720 LINE",
"360 650 OFFCURVE",
"303 562 OFFCURVE",
"283 454 CURVE",
"144 572 LINE",
"144 103 LINE",
"70 153 LINE",
"39 104 LINE",
"207 -15 LINE"
);
}
);
width = 540;
}
);
unicode = A0E4;
},
{
glyphname = uniA0E5;
lastChange = "2017-01-18 15:57:01 +0000";
layers = (
{
layerId = UUID0;
paths = (
{
closed = 1;
nodes = (
"303 0 LINE",
"303 124 LINE",
"430 137 OFFCURVE",
"488 204 OFFCURVE",
"488 283 CURVE SMOOTH",
"488 361 OFFCURVE",
"431 428 OFFCURVE",
"303 441 CURVE",
"303 536 LINE",
"479 443 LINE",
"479 714 LINE",
"410 714 LINE",
"410 545 LINE",
"59 729 LINE",
"59 473 LINE",
"127 473 LINE",
"127 628 LINE",
"234 571 LINE",
"234 0 LINE"
);
},
{
closed = 1;
nodes = (
"171 174 LINE",
"171 401 LINE",
"107 401 LINE",
"107 174 LINE"
);
},
{
closed = 1;
nodes = (
"303 387 LINE",
"386 376 OFFCURVE",
"425 337 OFFCURVE",
"425 283 CURVE SMOOTH",
"425 229 OFFCURVE",
"386 189 OFFCURVE",
"303 179 CURVE"
);
}
);
width = 547;
}
);
unicode = A0E5;
},
{
glyphname = uniA0E6;
lastChange = "2017-01-18 15:57:01 +0000";
layers = (
{
layerId = UUID0;
paths = (
{
closed = 1;
nodes = (
"327 264 LINE",
"335 263 OFFCURVE",
"343 262 OFFCURVE",
"353 262 CURVE SMOOTH",
"479 262 OFFCURVE",
"480 386 OFFCURVE",
"480 495 CURVE SMOOTH",
"480 657 LINE",
"417 657 LINE",
"417 505 LINE SMOOTH",
"417 368 OFFCURVE",
"412 321 OFFCURVE",
"348 321 CURVE SMOOTH",
"340 321 OFFCURVE",
"333 322 OFFCURVE",
"327 323 CURVE",
"327 714 LINE",
"259 714 LINE",
"259 83 LINE",
"61 179 LINE",
"39 123 LINE",
"327 -15 LINE"
);
},
{
closed = 1;
nodes = (
"149 345 LINE",
"149 630 LINE",
"85 630 LINE",
"85 345 LINE"
);
}
);
width = 539;
}
);
unicode = A0E6;
},
{
glyphname = uniA0E8;
lastChange = "2017-01-18 15:57:01 +0000";
layers = (
{
layerId = UUID0;
paths = (
{
closed = 1;
nodes = (
"438 0 LINE",
"438 59 LINE",
"286 59 LINE",
"286 156 LINE",
"418 156 LINE",
"418 215 LINE",
"286 215 LINE",
"286 406 LINE",
"409 292 LINE",
"449 333 LINE",
"293 476 LINE",
"449 621 LINE",
"408 659 LINE",
"286 546 LINE",
"286 714 LINE",
"218 714 LINE",
"218 545 LINE",
"95 659 LINE",
"54 621 LINE",
"210 476 LINE",
"54 333 LINE",
"94 292 LINE",
"218 407 LINE",
"218 215 LINE",
"86 215 LINE",
"86 156 LINE",
"218 156 LINE",
"218 59 LINE",
"66 59 LINE",
"66 0 LINE"
);
},
{
closed = 1;
nodes = (
"120 421 LINE",
"120 521 LINE",
"62 521 LINE",
"62 421 LINE"
);
},
{
closed = 1;
nodes = (
"442 421 LINE",
"442 521 LINE",
"384 521 LINE",
"384 421 LINE"
);
}
);
width = 503;
}
);
unicode = A0E8;
},
{
glyphname = uniA0E9;
lastChange = "2017-01-18 15:57:01 +0000";
layers = (
{
layerId = UUID0;
paths = (
{
closed = 1;
nodes = (
"454 0 LINE",
"454 59 LINE",
"278 59 LINE",
"278 203 LINE",
"406 204 OFFCURVE",
"456 287 OFFCURVE",
"456 371 CURVE SMOOTH",
"456 452 OFFCURVE",
"408 548 OFFCURVE",
"278 549 CURVE",
"278 655 LINE",
"454 655 LINE",
"454 714 LINE",
"59 714 LINE",
"59 655 LINE",
"210 655 LINE",
"210 59 LINE",
"59 59 LINE",
"59 0 LINE"
);
},
{
closed = 1;
nodes = (
"142 208 LINE",
"142 544 LINE",
"78 544 LINE",
"78 208 LINE"
);
},
{
closed = 1;
nodes = (
"278 495 LINE",
"366 494 OFFCURVE",
"393 429 OFFCURVE",
"393 371 CURVE SMOOTH",
"393 313 OFFCURVE",
"367 258 OFFCURVE",
"278 257 CURVE"
);
}
);
width = 515;
}
);
unicode = A0E9;
},
{
glyphname = uniA0EA;
lastChange = "2017-01-18 15:57:01 +0000";
layers = (
{
layerId = UUID0;
paths = (
{
closed = 1;
nodes = (
"453 -13 OFFCURVE",
"524 142 OFFCURVE",
"524 358 CURVE SMOOTH",
"524 574 OFFCURVE",
"453 727 OFFCURVE",
"296 727 CURVE SMOOTH",
"143 727 OFFCURVE",
"68 576 OFFCURVE",
"68 362 CURVE SMOOTH",
"68 148 OFFCURVE",
"138 -13 OFFCURVE",
"296 -13 CURVE SMOOTH"
);
},
{
closed = 1;
nodes = (
"219 46 OFFCURVE",
"174 104 OFFCURVE",
"153 196 CURVE",
"438 196 LINE",
"416 104 OFFCURVE",
"371 46 OFFCURVE",
"295 46 CURVE SMOOTH"
);
},
{
closed = 1;
nodes = (
"139 288 OFFCURVE",
"137 324 OFFCURVE",
"137 362 CURVE SMOOTH",
"137 397 OFFCURVE",
"139 431 OFFCURVE",
"143 462 CURVE",
"449 462 LINE",
"454 430 OFFCURVE",
"456 395 OFFCURVE",
"456 358 CURVE SMOOTH",
"456 321 OFFCURVE",
"454 286 OFFCURVE",
"449 254 CURVE",
"143 254 LINE"
);
},
{
closed = 1;
nodes = (
"177 612 OFFCURVE",
"224 668 OFFCURVE",
"295 668 CURVE SMOOTH",
"370 668 OFFCURVE",
"416 611 OFFCURVE",
"438 521 CURVE",
"154 521 LINE"
);
}
);
width = 592;
}
);
unicode = A0EA;
},
{
glyphname = uniA0EC;
lastChange = "2017-01-18 15:57:01 +0000";
layers = (
{
layerId = UUID0;
paths = (
{
closed = 1;
nodes = (
"137 0 LINE",
"137 98 LINE SMOOTH",
"137 173 OFFCURVE",
"146 241 OFFCURVE",
"164 294 CURVE",
"198 259 OFFCURVE",
"243 239 OFFCURVE",
"296 239 CURVE SMOOTH",
"351 239 OFFCURVE",
"395 259 OFFCURVE",
"429 294 CURVE",
"447 240 OFFCURVE",
"456 170 OFFCURVE",
"456 94 CURVE SMOOTH",
"456 0 LINE",
"524 0 LINE",
"524 94 LINE SMOOTH",
"524 198 OFFCURVE",
"507 290 OFFCURVE",
"473 357 CURVE",
"507 424 OFFCURVE",
"524 516 OFFCURVE",
"524 620 CURVE SMOOTH",
"524 714 LINE",
"456 714 LINE",
"456 620 LINE SMOOTH",
"456 543 OFFCURVE",
"447 474 OFFCURVE",
"429 419 CURVE",
"395 455 OFFCURVE",
"351 475 OFFCURVE",
"296 475 CURVE SMOOTH",
"243 475 OFFCURVE",
"198 455 OFFCURVE",
"164 419 CURVE",
"146 473 OFFCURVE",
"137 540 OFFCURVE",
"137 616 CURVE SMOOTH",
"137 714 LINE",
"68 714 LINE",
"68 616 LINE SMOOTH",
"68 514 OFFCURVE",
"85 423 OFFCURVE",
"120 357 CURVE",
"85 291 OFFCURVE",
"68 200 OFFCURVE",
"68 98 CURVE SMOOTH",
"68 0 LINE"
);
},
{
closed = 1;
nodes = (
"253 298 OFFCURVE",
"219 319 OFFCURVE",
"194 357 CURVE",
"219 394 OFFCURVE",
"253 416 OFFCURVE",
"295 416 CURVE SMOOTH",
"340 416 OFFCURVE",
"374 394 OFFCURVE",
"399 357 CURVE",
"374 319 OFFCURVE",
"340 298 OFFCURVE",
"295 298 CURVE SMOOTH"
);
}
);
width = 592;
}
);
unicode = A0EC;
},
{
glyphname = uniA0ED;
lastChange = "2017-01-18 15:57:01 +0000";
layers = (
{
layerId = UUID0;
paths = (
{
closed = 1;
nodes = (
"282 333 LINE",
"457 222 LINE",
"457 557 LINE",
"282 446 LINE",
"282 624 LINE",
"402 561 LINE",
"432 615 LINE",
"213 727 LINE",
"213 442 LINE",
"68 533 LINE",
"39 487 LINE",
"192 389 LINE",
"39 292 LINE",
"68 246 LINE",
"213 336 LINE",
"213 99 LINE",
"93 163 LINE",
"63 108 LINE",
"282 -13 LINE"
);
},
{
closed = 1;
nodes = (
"298 389 LINE",
"393 448 LINE",
"393 331 LINE"
);
}
);
width = 515;
}
);
unicode = A0ED;
},
{
glyphname = uniA0EE;
lastChange = "2017-01-18 15:57:01 +0000";
layers = (
{
layerId = UUID0;
paths = (
{
closed = 1;
nodes = (
"389 -13 OFFCURVE",
"401 79 OFFCURVE",
"401 191 CURVE SMOOTH",
"401 377 LINE",
"508 321 LINE",
"508 621 LINE",
"444 621 LINE",
"444 414 LINE",
"401 438 LINE",
"401 714 LINE",
"333 714 LINE",
"333 475 LINE",
"233 530 LINE",
"233 714 LINE",
"165 714 LINE",
"165 567 LINE",
"59 626 LINE",
"59 331 LINE",
"122 331 LINE",
"122 525 LINE",
"165 502 LINE",
"165 191 LINE SMOOTH",
"165 79 OFFCURVE",
"177 -13 OFFCURVE",
"283 -13 CURVE SMOOTH"
);
},
{
closed = 1;
nodes = (
"239 46 OFFCURVE",
"233 86 OFFCURVE",
"233 191 CURVE SMOOTH",
"233 466 LINE",
"333 414 LINE",
"333 191 LINE SMOOTH",
"333 86 OFFCURVE",
"327 46 OFFCURVE",
"284 46 CURVE SMOOTH"
);
}
);
width = 566;
}
);
unicode = A0EE;
},
{
glyphname = uniA0F0;
lastChange = "2017-01-18 15:57:01 +0000";
layers = (
{
layerId = UUID0;
paths = (
{
closed = 1;
nodes = (
"369 364 LINE",
"518 563 LINE",
"470 602 LINE",
"369 465 LINE",
"369 714 LINE",
"300 714 LINE",
"300 99 LINE",
"105 198 LINE",
"75 144 LINE",
"369 -13 LINE"
);
},
{
closed = 1;
nodes = (
"229 313 OFFCURVE",
"259 375 OFFCURVE",
"259 461 CURVE SMOOTH",
"259 547 OFFCURVE",
"229 616 OFFCURVE",
"147 616 CURVE SMOOTH",
"68 616 OFFCURVE",
"39 546 OFFCURVE",
"39 461 CURVE SMOOTH",
"39 375 OFFCURVE",
"68 313 OFFCURVE",
"147 313 CURVE SMOOTH"
);
},
{
closed = 1;
nodes = (
"110 367 OFFCURVE",
"98 401 OFFCURVE",
"98 461 CURVE SMOOTH",
"98 519 OFFCURVE",
"104 562 OFFCURVE",
"147 562 CURVE SMOOTH",
"193 562 OFFCURVE",
"201 521 OFFCURVE",
"201 461 CURVE SMOOTH",
"201 403 OFFCURVE",
"188 367 OFFCURVE",
"150 367 CURVE SMOOTH"
);
}
);
width = 557;
}
);
unicode = A0F0;
},
{
glyphname = uniA0F1;
lastChange = "2017-01-18 15:57:01 +0000";
layers = (
{
layerId = UUID0;
paths = (
{
closed = 1;
nodes = (
"352 0 LINE",
"352 595 LINE",
"400 560 LINE",
"400 386 LINE",
"464 386 LINE",
"464 515 LINE",
"576 434 LINE",
"576 714 LINE",
"513 714 LINE",
"513 552 LINE",
"464 586 LINE",
"464 714 LINE",
"400 714 LINE",
"400 631 LINE",
"283 713 LINE",
"283 619 LINE",
"129 616 OFFCURVE",
"59 545 OFFCURVE",
"59 458 CURVE SMOOTH",
"59 401 OFFCURVE",
"90 350 OFFCURVE",
"156 321 CURVE",
"92 288 OFFCURVE",
"62 232 OFFCURVE",
"62 175 CURVE SMOOTH",
"62 89 OFFCURVE",
"135 0 OFFCURVE",
"287 0 CURVE SMOOTH"
);
},
{
closed = 1;
nodes = (
"176 58 OFFCURVE",
"125 114 OFFCURVE",
"125 175 CURVE SMOOTH",
"125 236 OFFCURVE",
"176 292 OFFCURVE",
"283 296 CURVE",
"283 54 LINE"
);
},
{
closed = 1;
nodes = (
"173 354 OFFCURVE",
"122 397 OFFCURVE",
"122 458 CURVE SMOOTH",
"122 521 OFFCURVE",
"173 563 OFFCURVE",
"283 565 CURVE",
"283 352 LINE"
);
}
);
width = 635;
}
);
unicode = A0F1;
},
{
glyphname = uniA0F3;
lastChange = "2017-01-18 15:57:01 +0000";
layers = (
{
layerId = UUID0;
paths = (
{
closed = 1;
nodes = (
"407 0 OFFCURVE",
"483 89 OFFCURVE",
"483 201 CURVE SMOOTH",
"483 275 OFFCURVE",
"449 341 OFFCURVE",
"376 376 CURVE",
"449 409 OFFCURVE",
"483 472 OFFCURVE",
"483 532 CURVE SMOOTH",
"483 625 OFFCURVE",
"407 714 OFFCURVE",
"236 714 CURVE",
"236 658 LINE",
"327 657 OFFCURVE",
"420 626 OFFCURVE",
"420 532 CURVE SMOOTH",
"420 469 OFFCURVE",
"367 409 OFFCURVE",
"251 409 CURVE SMOOTH",
"230 409 LINE",
"230 345 LINE",
"251 345 LINE SMOOTH",
"367 345 OFFCURVE",
"420 284 OFFCURVE",
"420 201 CURVE SMOOTH",
"420 88 OFFCURVE",
"327 57 OFFCURVE",
"236 56 CURVE",
"236 0 LINE"
);
},
{
closed = 1;
nodes = (
"228 204 LINE",
"165 232 OFFCURVE",
"122 287 OFFCURVE",
"122 363 CURVE SMOOTH",
"122 443 OFFCURVE",
"169 501 OFFCURVE",
"235 530 CURVE",
"207 581 LINE",
"116 541 OFFCURVE",
"59 461 OFFCURVE",
"59 363 CURVE SMOOTH",
"59 267 OFFCURVE",
"109 191 OFFCURVE",
"201 152 CURVE"
);
}
);
width = 542;
}
);
unicode = A0F3;
},
{
glyphname = uniA0F4;
lastChange = "2017-01-18 15:57:01 +0000";
layers = (
{
layerId = UUID0;
paths = (
{
closed = 1;
nodes = (
"372 -8 OFFCURVE",
"388 47 OFFCURVE",
"388 138 CURVE SMOOTH",
"388 624 LINE",
"508 561 LINE",
"538 615 LINE",
"320 727 LINE",
"320 148 LINE SMOOTH",
"320 92 OFFCURVE",
"320 75 OFFCURVE",
"309 75 CURVE SMOOTH",
"302 75 OFFCURVE",
"294 100 OFFCURVE",
"290 110 CURVE SMOOTH",
"228 271 LINE",
"305 342 LINE",
"269 382 LINE",
"207 325 LINE",
"184 383 LINE",
"256 450 LINE",
"220 489 LINE",
"164 437 LINE",
"102 597 LINE",
"45 568 LINE",
"113 391 LINE",
"39 322 LINE",
"76 283 LINE",
"134 336 LINE",
"156 278 LINE",
"88 215 LINE",
"125 175 LINE",
"177 224 LINE",
"213 129 LINE SMOOTH",
"237 67 OFFCURVE",
"257 -8 OFFCURVE",
"311 -8 CURVE SMOOTH"
);
}
);
width = 577;
}
);
unicode = A0F4;
},
{
glyphname = uniA0F6;
lastChange = "2017-01-18 15:57:01 +0000";
layers = (
{
layerId = UUID0;
paths = (
{
closed = 1;
nodes = (
"173 12 OFFCURVE",
"231 39 OFFCURVE",
"277 70 CURVE",
"324 39 OFFCURVE",
"381 12 OFFCURVE",
"450 -8 CURVE",
"459 51 LINE",
"408 67 OFFCURVE",
"364 86 OFFCURVE",
"327 110 CURVE",
"396 176 OFFCURVE",
"430 259 OFFCURVE",
"430 358 CURVE SMOOTH",
"430 466 OFFCURVE",
"391 545 OFFCURVE",
"328 604 CURVE",
"369 630 OFFCURVE",
"415 648 OFFCURVE",
"459 665 CURVE",
"450 724 LINE",
"386 703 OFFCURVE",
"327 677 OFFCURVE",
"277 644 CURVE",
"228 677 OFFCURVE",
"169 703 OFFCURVE",
"104 724 CURVE",
"96 665 LINE",
"139 648 OFFCURVE",
"186 630 OFFCURVE",
"227 604 CURVE",
"184 564 OFFCURVE",
"152 514 OFFCURVE",
"136 453 CURVE",
"59 453 LINE",
"59 394 LINE",
"126 394 LINE",
"125 382 OFFCURVE",
"125 370 OFFCURVE",
"125 358 CURVE SMOOTH",
"125 349 OFFCURVE",
"125 339 OFFCURVE",
"126 331 CURVE",
"59 331 LINE",
"59 272 LINE",
"134 272 LINE",
"148 210 OFFCURVE",
"179 155 OFFCURVE",
"228 110 CURVE",
"190 86 OFFCURVE",
"146 67 OFFCURVE",
"96 51 CURVE",
"104 -8 LINE"
);
},
{
closed = 1;
nodes = (
"242 182 OFFCURVE",
"217 223 OFFCURVE",
"204 272 CURVE",
"287 272 LINE",
"287 331 LINE",
"194 331 LINE",
"193 339 OFFCURVE",
"193 349 OFFCURVE",
"193 358 CURVE SMOOTH",
"193 371 OFFCURVE",
"194 382 OFFCURVE",
"195 394 CURVE",
"287 394 LINE",
"287 453 LINE",
"207 453 LINE",
"221 500 OFFCURVE",
"246 537 OFFCURVE",
"277 566 CURVE",
"327 520 OFFCURVE",
"361 455 OFFCURVE",
"361 358 CURVE SMOOTH",
"361 269 OFFCURVE",
"332 201 OFFCURVE",
"277 148 CURVE"
);
}
);
width = 518;
}
);
unicode = A0F6;
},
{
glyphname = uniA0F7;
lastChange = "2017-01-18 15:57:01 +0000";
layers = (
{
layerId = UUID0;
paths = (
{
closed = 1;
nodes = (
"270 280 LINE",
"455 36 LINE",
"501 70 LINE",
"305 327 LINE",
"481 560 LINE",
"481 579 LINE",
"350 720 LINE",
"305 678 LINE",
"397 579 LINE",
"59 579 LINE",
"59 560 LINE",
"234 327 LINE",
"39 70 LINE",
"85 36 LINE"
);
},
{
closed = 1;
nodes = (
"302 0 LINE",
"302 156 LINE",
"238 156 LINE",
"238 0 LINE"
);
},
{
closed = 1;
nodes = (
"155 525 LINE",
"385 525 LINE",
"270 374 LINE"
);
}
);
width = 540;
}
);
unicode = A0F7;
},
{
glyphname = uniA0F9;
lastChange = "2017-01-18 15:57:01 +0000";
layers = (
{
layerId = UUID0;
paths = (
{
closed = 1;
nodes = (
"468 0 LINE",
"468 714 LINE",
"399 714 LINE",
"399 526 LINE",
"386 526 LINE SMOOTH",
"265 526 OFFCURVE",
"173 466 OFFCURVE",
"135 368 CURVE",
"39 368 LINE",
"39 314 LINE",
"120 314 LINE",
"117 297 OFFCURVE",
"116 279 OFFCURVE",
"116 261 CURVE SMOOTH",
"116 250 OFFCURVE",
"116 241 OFFCURVE",
"117 231 CURVE",
"39 231 LINE",
"39 178 LINE",
"126 178 LINE",
"156 67 OFFCURVE",
"249 0 OFFCURVE",
"397 0 CURVE SMOOTH"
);
},
{
closed = 1;
nodes = (
"289 59 OFFCURVE",
"226 106 OFFCURVE",
"199 178 CURVE",
"293 178 LINE",
"293 231 LINE",
"186 231 LINE",
"185 241 OFFCURVE",
"184 250 OFFCURVE",
"184 261 CURVE SMOOTH",
"184 279 OFFCURVE",
"186 297 OFFCURVE",
"189 314 CURVE",
"293 314 LINE",
"293 368 LINE",
"209 368 LINE",
"240 428 OFFCURVE",
"299 468 OFFCURVE",
"375 468 CURVE SMOOTH",
"399 468 LINE",
"399 59 LINE",
"375 59 LINE SMOOTH"
);
}
);
width = 556;
}
);
unicode = A0F9;
},
{
glyphname = uniA0FA;
lastChange = "2017-01-18 15:57:01 +0000";
layers = (
{
layerId = UUID0;
paths = (
{
closed = 1;
nodes = (
"314 0 LINE",
"314 197 LINE",
"383 179 OFFCURVE",
"431 109 OFFCURVE",
"451 6 CURVE",
"511 25 LINE",
"484 151 OFFCURVE",
"416 241 OFFCURVE",
"314 257 CURVE",
"314 365 LINE",
"401 379 OFFCURVE",
"463 446 OFFCURVE",
"497 543 CURVE",
"438 564 LINE",
"414 490 OFFCURVE",
"371 439 OFFCURVE",
"314 425 CURVE",
"314 624 LINE",
"403 578 LINE",
"433 633 LINE",
"246 727 LINE",
"246 425 LINE",
"191 439 OFFCURVE",
"148 489 OFFCURVE",
"123 564 CURVE",
"64 542 LINE",
"99 445 OFFCURVE",
"161 379 OFFCURVE",
"246 365 CURVE",
"246 257 LINE",
"146 240 OFFCURVE",
"77 150 OFFCURVE",
"49 25 CURVE",
"109 6 LINE",
"130 110 OFFCURVE",
"180 180 OFFCURVE",
"246 197 CURVE",
"246 0 LINE"
);
},
{
closed = 1;
nodes = (
"156 263 LINE",
"156 354 LINE",
"104 354 LINE",
"104 263 LINE"
);
},
{
closed = 1;
nodes = (
"457 263 LINE",
"457 354 LINE",
"404 354 LINE",
"404 263 LINE"
);
}
);
width = 560;
}
);
unicode = A0FA;
},
{
glyphname = uniA0FC;
lastChange = "2017-01-18 15:57:01 +0000";
layers = (
{
layerId = UUID0;
paths = (
{
closed = 1;
nodes = (
"467 400 OFFCURVE",
"562 520 OFFCURVE",
"580 714 CURVE",
"511 714 LINE",
"496 561 OFFCURVE",
"432 459 OFFCURVE",
"319 459 CURVE SMOOTH",
"198 459 OFFCURVE",
"140 567 OFFCURVE",
"127 714 CURVE",
"59 714 LINE",
"74 534 OFFCURVE",
"154 400 OFFCURVE",
"319 400 CURVE SMOOTH"
);
},
{
closed = 1;
nodes = (
"351 0 LINE",
"351 163 LINE",
"288 163 LINE",
"288 0 LINE"
);
},
{
closed = 1;
nodes = (
"199 225 LINE",
"199 361 LINE",
"135 361 LINE",
"135 225 LINE"
);
},
{
closed = 1;
nodes = (
"503 225 LINE",
"503 361 LINE",
"440 361 LINE",
"440 225 LINE"
);
}
);
width = 639;
}
);
unicode = A0FC;
},
{
glyphname = uniA0FD;
lastChange = "2017-01-18 15:57:01 +0000";
layers = (
{
layerId = UUID0;
paths = (
{
closed = 1;
nodes = (
"314 0 LINE",
"314 211 LINE",
"383 194 OFFCURVE",
"431 124 OFFCURVE",
"451 21 CURVE",
"511 40 LINE",
"484 166 OFFCURVE",
"416 255 OFFCURVE",
"314 271 CURVE",
"314 365 LINE",
"401 379 OFFCURVE",
"463 446 OFFCURVE",
"497 543 CURVE",
"438 564 LINE",
"414 490 OFFCURVE",
"371 439 OFFCURVE",
"314 425 CURVE",
"314 624 LINE",
"403 578 LINE",
"433 633 LINE",
"246 727 LINE",
"246 425 LINE",
"191 439 OFFCURVE",
"148 489 OFFCURVE",
"123 564 CURVE",
"64 542 LINE",
"99 445 OFFCURVE",
"161 379 OFFCURVE",
"246 365 CURVE",
"246 271 LINE",
"146 255 OFFCURVE",
"77 165 OFFCURVE",
"49 40 CURVE",
"109 21 LINE",
"130 125 OFFCURVE",
"180 194 OFFCURVE",
"246 211 CURVE",
"246 0 LINE"
);
},
{
closed = 1;
nodes = (
"447 268 LINE",
"447 354 LINE",
"395 354 LINE",
"395 268 LINE"
);
}
);
width = 560;
}
);
unicode = A0FD;
},
{
glyphname = uniA0FF;
lastChange = "2017-01-18 15:57:01 +0000";
layers = (
{
layerId = UUID0;
paths = (
{
closed = 1;
nodes = (
"522 0 LINE",
"522 59 LINE",
"346 59 LINE",
"346 181 LINE",
"502 181 LINE",
"502 239 LINE",
"346 239 LINE",
"346 446 LINE",
"463 462 OFFCURVE",
"541 560 OFFCURVE",
"565 714 CURVE",
"496 714 LINE",
"477 600 OFFCURVE",
"426 521 OFFCURVE",
"344 506 CURVE",
"344 714 LINE",
"280 714 LINE",
"280 505 LINE",
"192 521 OFFCURVE",
"145 603 OFFCURVE",
"127 714 CURVE",
"59 714 LINE",
"81 569 OFFCURVE",
"148 462 OFFCURVE",
"278 446 CURVE",
"278 239 LINE",
"122 239 LINE",
"122 181 LINE",
"278 181 LINE",
"278 59 LINE",
"102 59 LINE",
"102 0 LINE"
);
},
{
closed = 1;
nodes = (
"191 288 LINE",
"191 425 LINE",
"128 425 LINE",
"128 288 LINE"
);
},
{
closed = 1;
nodes = (
"496 288 LINE",
"496 425 LINE",
"433 425 LINE",
"433 288 LINE"
);
}
);
width = 624;
}
);
unicode = A0FF;
},
{
glyphname = uniA100;
lastChange = "2017-01-18 15:57:01 +0000";
layers = (
{
layerId = UUID0;
paths = (
{
closed = 1;
nodes = (
"429 0 LINE",
"429 336 LINE",
"443 336 LINE SMOOTH",
"500 336 OFFCURVE",
"542 284 OFFCURVE",
"542 220 CURVE SMOOTH",
"542 164 OFFCURVE",
"527 125 OFFCURVE",
"480 89 CURVE",
"519 45 LINE",
"593 103 OFFCURVE",
"610 163 OFFCURVE",
"610 220 CURVE SMOOTH",
"610 272 OFFCURVE",
"582 331 OFFCURVE",
"534 362 CURVE",
"581 394 OFFCURVE",
"610 448 OFFCURVE",
"610 503 CURVE SMOOTH",
"610 551 OFFCURVE",
"603 615 OFFCURVE",
"526 678 CURVE",
"481 636 LINE",
"533 598 OFFCURVE",
"542 545 OFFCURVE",
"542 505 CURVE SMOOTH",
"542 443 OFFCURVE",
"502 390 OFFCURVE",
"443 390 CURVE SMOOTH",
"429 390 LINE",
"429 714 LINE",
"360 714 LINE",
"360 0 LINE"
);
},
{
closed = 1;
nodes = (
"298 333 LINE",
"234 333 LINE",
"234 201 LINE",
"63 343 LINE",
"63 73 LINE",
"127 73 LINE",
"127 218 LINE",
"298 63 LINE"
);
},
{
closed = 1;
nodes = (
"298 660 LINE",
"234 660 LINE",
"234 528 LINE",
"63 670 LINE",
"63 400 LINE",
"127 400 LINE",
"127 545 LINE",
"298 391 LINE"
);
}
);
width = 674;
}
);
unicode = A100;
},
{
glyphname = uniA102;
lastChange = "2017-01-18 15:57:01 +0000";
layers = (
{
layerId = UUID0;
paths = (
{
closed = 1;
nodes = (
"137 0 LINE",
"137 186 LINE",
"345 86 LINE",
"345 623 LINE",
"465 561 LINE",
"495 615 LINE",
"277 727 LINE",
"277 185 LINE",
"68 293 LINE",
"68 0 LINE"
);
},
{
closed = 1;
nodes = (
"188 405 OFFCURVE",
"236 435 OFFCURVE",
"236 499 CURVE SMOOTH",
"236 533 OFFCURVE",
"219 572 OFFCURVE",
"204 601 CURVE SMOOTH",
"149 706 LINE",
"89 676 LINE",
"152 561 LINE SMOOTH",
"160 547 OFFCURVE",
"172 527 OFFCURVE",
"172 500 CURVE SMOOTH",
"172 481 OFFCURVE",
"157 463 OFFCURVE",
"129 463 CURVE SMOOTH",
"114 463 OFFCURVE",
"76 472 OFFCURVE",
"63 524 CURVE",
"5 501 LINE",
"26 439 OFFCURVE",
"65 405 OFFCURVE",
"127 405 CURVE SMOOTH"
);
}
);
width = 554;
}
);
unicode = A102;
},
{
glyphname = uniA103;
lastChange = "2017-01-18 15:57:01 +0000";
layers = (
{
layerId = UUID0;
paths = (
{
closed = 1;
nodes = (
"443 -13 OFFCURVE",
"500 120 OFFCURVE",
"500 295 CURVE SMOOTH",
"500 341 LINE",
"555 380 OFFCURVE",
"559 466 OFFCURVE",
"559 547 CURVE",
"490 547 LINE",
"490 425 OFFCURVE",
"481 378 OFFCURVE",
"417 378 CURVE SMOOTH",
"372 378 OFFCURVE",
"343 410 OFFCURVE",
"343 496 CURVE SMOOTH",
"343 515 LINE",
"453 651 LINE",
"288 625 LINE",
"326 701 LINE",
"272 724 LINE",
"191 558 LINE",
"325 579 LINE",
"274 526 LINE",
"274 496 LINE SMOOTH",
"274 410 OFFCURVE",
"245 378 OFFCURVE",
"201 378 CURVE SMOOTH",
"136 378 OFFCURVE",
"127 425 OFFCURVE",
"127 547 CURVE",
"59 547 LINE",
"59 466 OFFCURVE",
"62 380 OFFCURVE",
"117 341 CURVE",
"117 295 LINE SMOOTH",
"117 120 OFFCURVE",
"174 -13 OFFCURVE",
"309 -13 CURVE SMOOTH"
);
},
{
closed = 1;
nodes = (
"219 46 OFFCURVE",
"186 152 OFFCURVE",
"186 291 CURVE SMOOTH",
"186 319 LINE",
"196 319 LINE SMOOTH",
"249 319 OFFCURVE",
"283 341 OFFCURVE",
"309 379 CURVE",
"333 341 OFFCURVE",
"368 319 OFFCURVE",
"421 319 CURVE SMOOTH",
"432 319 LINE",
"432 291 LINE SMOOTH",
"432 152 OFFCURVE",
"398 46 OFFCURVE",
"309 46 CURVE SMOOTH"
);
},
{
closed = 1;
nodes = (
"340 174 LINE",
"340 290 LINE",
"277 290 LINE",
"277 174 LINE"
);
}
);
width = 617;
}
);
unicode = A103;
},
{
glyphname = uniA105;
lastChange = "2017-01-18 15:57:01 +0000";
layers = (
{
layerId = UUID0;
paths = (
{
closed = 1;
nodes = (
"207 438 LINE",
"256 396 LINE",
"255 384 OFFCURVE",
"255 371 OFFCURVE",
"255 357 CURVE SMOOTH",
"255 197 OFFCURVE",
"318 77 OFFCURVE",
"446 -5 CURVE",
"481 48 LINE",
"375 119 OFFCURVE",
"323 207 OFFCURVE",
"323 357 CURVE SMOOTH",
"323 505 OFFCURVE",
"376 600 OFFCURVE",
"481 667 CURVE",
"446 720 LINE",
"345 653 OFFCURVE",
"288 570 OFFCURVE",
"266 468 CURVE",
"144 572 LINE",
"144 103 LINE",
"70 153 LINE",
"39 104 LINE",
"207 -15 LINE"
);
},
{
closed = 1;
nodes = (
"513 189 LINE",
"473 235 OFFCURVE",
"449 286 OFFCURVE",
"449 357 CURVE SMOOTH",
"449 451 OFFCURVE",
"488 496 OFFCURVE",
"513 526 CURVE",
"469 568 LINE",
"431 531 OFFCURVE",
"383 466 OFFCURVE",
"383 358 CURVE SMOOTH",
"383 264 OFFCURVE",
"417 201 OFFCURVE",
"469 147 CURVE"
);
}
);
width = 571;
}
);
unicode = A105;
},
{
glyphname = uniA106;
lastChange = "2017-01-18 15:57:01 +0000";
layers = (
{
layerId = UUID0;
paths = (
{
closed = 1;
nodes = (
"283 269 LINE",
"384 -13 LINE",
"440 9 LINE",
"324 331 LINE",
"508 233 LINE",
"508 533 LINE",
"444 533 LINE",
"444 326 LINE",
"327 391 LINE",
"440 705 LINE",
"384 727 LINE",
"283 445 LINE",
"182 727 LINE",
"126 705 LINE",
"218 451 LINE",
"59 538 LINE",
"59 243 LINE",
"122 243 LINE",
"122 438 LINE",
"246 372 LINE",
"251 357 LINE",
"126 9 LINE",
"182 -13 LINE"
);
}
);
width = 566;
}
);
unicode = A106;
},
{
glyphname = uniA107;
lastChange = "2017-01-18 15:57:01 +0000";
layers = (
{
layerId = UUID0;
paths = (
{
closed = 1;
nodes = (
"375 -13 OFFCURVE",
"412 69 OFFCURVE",
"412 182 CURVE SMOOTH",
"412 383 LINE",
"617 383 LINE",
"617 442 LINE",
"412 442 LINE",
"412 714 LINE",
"344 714 LINE",
"344 442 LINE",
"156 442 LINE",
"156 714 LINE",
"88 714 LINE",
"88 182 LINE SMOOTH",
"88 69 OFFCURVE",
"125 -13 OFFCURVE",
"250 -13 CURVE SMOOTH"
);
},
{
closed = 1;
nodes = (
"187 46 OFFCURVE",
"156 76 OFFCURVE",
"156 181 CURVE SMOOTH",
"156 383 LINE",
"344 383 LINE",
"344 181 LINE SMOOTH",
"344 77 OFFCURVE",
"313 46 OFFCURVE",
"250 46 CURVE SMOOTH"
);
},
{
closed = 1;
nodes = (
"544 127 LINE",
"544 308 LINE",
"481 308 LINE",
"481 127 LINE"
);
},
{
closed = 1;
nodes = (
"544 518 LINE",
"544 659 LINE",
"481 659 LINE",
"481 518 LINE"
);
}
);
width = 626;
}
);
unicode = A107;
},
{
glyphname = uniA109;
lastChange = "2017-01-18 15:57:01 +0000";
layers = (
{
layerId = UUID0;
paths = (
{
closed = 1;
nodes = (
"246 292 LINE",
"412 -8 LINE",
"434 -8 LINE",
"434 719 LINE",
"412 719 LINE",
"246 418 LINE",
"84 719 LINE",
"29 687 LINE",
"211 355 LINE",
"29 24 LINE",
"84 -8 LINE"
);
},
{
closed = 1;
nodes = (
"107 267 LINE",
"107 464 LINE",
"44 464 LINE",
"44 267 LINE"
);
},
{
closed = 1;
nodes = (
"280 355 LINE",
"365 513 LINE",
"365 198 LINE"
);
}
);
width = 521;
}
);
unicode = A109;
},
{
glyphname = uniA10A;
lastChange = "2017-01-18 15:57:01 +0000";
layers = (
{
layerId = UUID0;
paths = (
{
closed = 1;
nodes = (
"336 292 LINE",
"502 -8 LINE",
"524 -8 LINE",
"524 719 LINE",
"502 719 LINE",
"336 418 LINE",
"175 719 LINE",
"120 687 LINE",
"302 355 LINE",
"120 24 LINE",
"175 -8 LINE"
);
},
{
closed = 1;
nodes = (
"176 398 LINE",
"214 373 LINE",
"243 423 LINE",
"112 503 LINE",
"112 305 LINE",
"67 333 LINE",
"39 283 LINE",
"176 201 LINE"
);
},
{
closed = 1;
nodes = (
"371 355 LINE",
"456 513 LINE",
"456 198 LINE"
);
}
);
width = 612;
}
);
unicode = A10A;
},
{
glyphname = uniA10C;
lastChange = "2017-01-18 15:57:01 +0000";
layers = (
{
layerId = UUID0;
paths = (
{
closed = 1;
nodes = (
"448 714 LINE",
"380 714 LINE",
"380 75 LINE",
"132 181 LINE",
"112 121 LINE",
"448 -15 LINE"
);
},
{
closed = 1;
nodes = (
"308 658 LINE",
"244 658 LINE",
"244 342 LINE",
"122 422 LINE",
"122 527 LINE",
"59 527 LINE",
"59 239 LINE",
"122 239 LINE",
"122 350 LINE",
"308 225 LINE"
);
}
);
width = 536;
}
);
unicode = A10C;
},
{
glyphname = uniA10D;
lastChange = "2017-01-18 15:57:01 +0000";
layers = (
{
layerId = UUID0;
paths = (
{
closed = 1;
nodes = (
"426 -13 OFFCURVE",
"500 98 OFFCURVE",
"500 294 CURVE SMOOTH",
"500 476 OFFCURVE",
"437 582 OFFCURVE",
"316 598 CURVE",
"316 714 LINE",
"252 714 LINE",
"252 598 LINE",
"134 582 OFFCURVE",
"68 478 OFFCURVE",
"68 298 CURVE SMOOTH",
"68 104 OFFCURVE",
"146 -13 OFFCURVE",
"284 -13 CURVE SMOOTH"
);
},
{
closed = 1;
nodes = (
"186 46 OFFCURVE",
"137 139 OFFCURVE",
"137 298 CURVE SMOOTH",
"137 442 OFFCURVE",
"175 521 OFFCURVE",
"252 538 CURVE",
"252 344 LINE",
"316 344 LINE",
"316 538 LINE",
"393 520 OFFCURVE",
"431 437 OFFCURVE",
"431 294 CURVE SMOOTH",
"431 134 OFFCURVE",
"382 46 OFFCURVE",
"283 46 CURVE SMOOTH"
);
}
);
width = 568;
}
);
unicode = A10D;
},
{
glyphname = uniA10F;
lastChange = "2017-01-18 15:57:01 +0000";
layers = (
{
layerId = UUID0;
paths = (
{
closed = 1;
nodes = (
"137 0 LINE",
"137 186 LINE",
"345 86 LINE",
"345 412 LINE",
"500 412 LINE",
"500 466 LINE",
"345 466 LINE",
"345 623 LINE",
"497 547 LINE",
"526 602 LINE",
"277 727 LINE",
"277 466 LINE",
"121 466 LINE",
"121 412 LINE",
"277 412 LINE",
"277 185 LINE",
"68 293 LINE",
"68 0 LINE"
);
}
);
width = 565;
}
);
unicode = A10F;
},
{
glyphname = uniA110;
lastChange = "2017-01-18 15:57:01 +0000";
layers = (
{
layerId = UUID0;
paths = (
{
closed = 1;
nodes = (
"290 349 LINE",
"445 349 LINE",
"445 402 LINE",
"290 402 LINE",
"290 619 LINE",
"441 533 LINE",
"471 588 LINE",
"221 727 LINE",
"221 402 LINE",
"65 402 LINE",
"65 349 LINE",
"221 349 LINE",
"221 99 LINE",
"69 181 LINE",
"39 126 LINE",
"290 -13 LINE"
);
}
);
width = 510;
}
);
unicode = A110;
},
{
glyphname = uniA112;
lastChange = "2017-01-18 15:57:01 +0000";
layers = (
{
layerId = UUID0;
paths = (
{
closed = 1;
nodes = (
"285 193 LINE",
"459 193 LINE",
"459 224 LINE",
"290 369 LINE",
"459 514 LINE",
"459 544 LINE",
"285 544 LINE",
"285 625 LINE",
"373 578 LINE",
"402 631 LINE",
"216 727 LINE",
"216 544 LINE",
"39 544 LINE",
"39 514 LINE",
"208 369 LINE",
"39 224 LINE",
"39 193 LINE",
"216 193 LINE",
"216 88 LINE",
"128 136 LINE",
"99 83 LINE",
"285 -13 LINE"
);
},
{
closed = 1;
nodes = (
"221 313 LINE",
"221 247 LINE",
"138 247 LINE"
);
},
{
closed = 1;
nodes = (
"280 311 LINE",
"360 247 LINE",
"280 247 LINE"
);
},
{
closed = 1;
nodes = (
"138 491 LINE",
"221 491 LINE",
"221 424 LINE"
);
},
{
closed = 1;
nodes = (
"280 491 LINE",
"360 491 LINE",
"280 427 LINE"
);
}
);
width = 498;
}
);
unicode = A112;
},
{
glyphname = uniA113;
lastChange = "2017-01-18 15:57:01 +0000";
layers = (
{
layerId = UUID0;
paths = (
{
closed = 1;
nodes = (
"303 0 LINE",
"303 250 LINE",
"377 229 OFFCURVE",
"416 142 OFFCURVE",
"429 15 CURVE",
"493 15 LINE",
"476 174 OFFCURVE",
"418 292 OFFCURVE",
"303 311 CURVE",
"303 529 LINE",
"479 434 LINE",
"479 714 LINE",
"410 714 LINE",
"410 535 LINE",
"59 729 LINE",
"59 443 LINE",
"127 443 LINE",
"127 625 LINE",
"234 567 LINE",
"234 311 LINE",
"121 291 OFFCURVE",
"61 173 OFFCURVE",
"44 15 CURVE",
"108 15 LINE",
"122 141 OFFCURVE",
"163 229 OFFCURVE",
"234 250 CURVE",
"234 0 LINE"
);
}
);
width = 537;
}
);
unicode = A113;
},
{
glyphname = uniA114;
lastChange = "2017-01-18 15:57:01 +0000";
layers = (
{
layerId = UUID0;
paths = (
{
closed = 1;
nodes = (
"402 714 LINE",
"334 714 LINE",
"334 79 LINE",
"146 161 LINE",
"126 101 LINE",
"402 -15 LINE"
);
},
{
closed = 1;
nodes = (
"190 284 LINE",
"135 288 OFFCURVE",
"112 312 OFFCURVE",
"112 359 CURVE SMOOTH",
"112 384 OFFCURVE",
"130 425 OFFCURVE",
"180 432 CURVE",
"188 375 OFFCURVE",
"225 332 OFFCURVE",
"301 317 CURVE",
"301 373 LINE",
"256 386 OFFCURVE",
"236 417 OFFCURVE",
"236 461 CURVE SMOOTH",
"236 506 OFFCURVE",
"257 543 OFFCURVE",
"304 558 CURVE",
"304 614 LINE",
"225 599 OFFCURVE",
"188 546 OFFCURVE",
"180 487 CURVE",
"130 495 OFFCURVE",
"112 536 OFFCURVE",
"112 561 CURVE SMOOTH",
"112 608 OFFCURVE",
"135 632 OFFCURVE",
"190 636 CURVE",
"190 690 LINE",
"106 688 OFFCURVE",
"49 640 OFFCURVE",
"49 566 CURVE SMOOTH",
"49 531 OFFCURVE",
"61 488 OFFCURVE",
"126 460 CURVE",
"77 443 OFFCURVE",
"49 401 OFFCURVE",
"49 354 CURVE SMOOTH",
"49 278 OFFCURVE",
"106 232 OFFCURVE",
"190 229 CURVE"
);
}
);
width = 490;
}
);
unicode = A114;
},
{
glyphname = uniA116;
lastChange = "2017-01-18 15:57:01 +0000";
layers = (
{
layerId = UUID0;
paths = (
{
closed = 1;
nodes = (
"384 -13 OFFCURVE",
"438 28 OFFCURVE",
"469 82 CURVE",
"416 111 LINE",
"391 66 OFFCURVE",
"354 46 OFFCURVE",
"327 46 CURVE SMOOTH",
"297 46 OFFCURVE",
"292 63 OFFCURVE",
"292 148 CURVE SMOOTH",
"292 232 LINE",
"413 232 LINE",
"413 286 LINE",
"292 286 LINE",
"292 354 LINE",
"413 354 LINE",
"413 408 LINE",
"292 408 LINE",
"292 520 LINE",
"340 555 OFFCURVE",
"386 615 OFFCURVE",
"422 714 CURVE",
"362 727 LINE",
"343 670 OFFCURVE",
"320 622 OFFCURVE",
"289 588 CURVE",
"278 662 OFFCURVE",
"244 727 OFFCURVE",
"156 727 CURVE SMOOTH",
"84 727 OFFCURVE",
"49 668 OFFCURVE",
"49 611 CURVE SMOOTH",
"49 534 OFFCURVE",
"94 479 OFFCURVE",
"166 479 CURVE SMOOTH",
"185 479 OFFCURVE",
"204 481 OFFCURVE",
"224 486 CURVE",
"224 144 LINE SMOOTH",
"224 52 OFFCURVE",
"235 -13 OFFCURVE",
"321 -13 CURVE SMOOTH"
);
},
{
closed = 1;
nodes = (
"139 131 LINE",
"139 379 LINE",
"76 379 LINE",
"76 131 LINE"
);
},
{
closed = 1;
nodes = (
"135 537 OFFCURVE",
"112 565 OFFCURVE",
"112 611 CURVE SMOOTH",
"112 646 OFFCURVE",
"125 668 OFFCURVE",
"157 668 CURVE SMOOTH",
"214 668 OFFCURVE",
"223 599 OFFCURVE",
"224 545 CURVE",
"208 540 OFFCURVE",
"190 537 OFFCURVE",
"171 537 CURVE SMOOTH"
);
}
);
width = 508;
}
);
unicode = A116;
},
{
glyphname = uniA117;
lastChange = "2017-01-18 15:57:01 +0000";
layers = (
{
layerId = UUID0;
paths = (
{
closed = 1;
nodes = (
"486 0 LINE",
"486 59 LINE",
"322 59 LINE SMOOTH",
"292 59 OFFCURVE",
"281 66 OFFCURVE",
"281 104 CURVE SMOOTH",
"281 180 LINE",
"465 180 LINE",
"465 233 LINE",
"281 233 LINE",
"281 337 LINE",
"417 338 OFFCURVE",
"494 419 OFFCURVE",
"494 527 CURVE SMOOTH",
"494 634 OFFCURVE",
"417 727 OFFCURVE",
"277 727 CURVE SMOOTH",
"136 727 OFFCURVE",
"59 632 OFFCURVE",
"59 527 CURVE SMOOTH",
"59 434 OFFCURVE",
"113 364 OFFCURVE",
"212 343 CURVE",
"212 104 LINE SMOOTH",
"212 37 OFFCURVE",
"219 0 OFFCURVE",
"298 0 CURVE SMOOTH"
);
},
{
closed = 1;
nodes = (
"182 391 OFFCURVE",
"122 449 OFFCURVE",
"122 527 CURVE SMOOTH",
"122 605 OFFCURVE",
"178 673 OFFCURVE",
"277 673 CURVE SMOOTH",
"381 673 OFFCURVE",
"431 600 OFFCURVE",
"431 527 CURVE SMOOTH",
"431 454 OFFCURVE",
"375 391 OFFCURVE",
"277 391 CURVE SMOOTH"
);
}
);
width = 553;
}
);
unicode = A117;
},
{
glyphname = uniA119;
lastChange = "2017-01-18 15:57:01 +0000";
layers = (
{
layerId = UUID0;
paths = (
{
closed = 1;
nodes = (
"283 0 LINE",
"283 364 LINE",
"459 364 LINE",
"459 418 LINE",
"283 418 LINE",
"283 619 LINE",
"435 533 LINE",
"464 588 LINE",
"215 727 LINE",
"215 418 LINE",
"39 418 LINE",
"39 364 LINE",
"215 364 LINE",
"215 0 LINE"
);
},
{
closed = 1;
nodes = (
"130 82 LINE",
"130 285 LINE",
"67 285 LINE",
"67 82 LINE"
);
}
);
width = 503;
}
);
unicode = A119;
},
{
glyphname = uniA11A;
lastChange = "2017-01-18 15:57:01 +0000";
layers = (
{
layerId = UUID0;
paths = (
{
closed = 1;
nodes = (
"290 315 LINE",
"451 315 LINE",
"451 369 LINE",
"290 369 LINE",
"290 511 LINE",
"441 426 LINE",
"471 480 LINE",
"221 619 LINE",
"221 369 LINE",
"60 369 LINE",
"60 315 LINE",
"221 315 LINE",
"221 99 LINE",
"69 181 LINE",
"39 126 LINE",
"290 -13 LINE"
);
},
{
closed = 1;
nodes = (
"436 660 LINE",
"436 714 LINE",
"84 714 LINE",
"84 660 LINE"
);
}
);
width = 510;
}
);
unicode = A11A;
},
{
glyphname = uniA11C;
lastChange = "2017-01-18 15:57:01 +0000";
layers = (
{
layerId = UUID0;
paths = (
{
closed = 1;
nodes = (
"338 340 LINE",
"454 340 LINE",
"454 394 LINE",
"338 394 LINE",
"338 530 LINE",
"454 530 LINE",
"454 584 LINE",
"338 584 LINE",
"338 714 LINE",
"270 714 LINE",
"270 584 LINE",
"166 584 LINE",
"166 530 LINE",
"270 530 LINE",
"270 394 LINE",
"166 394 LINE",
"166 340 LINE",
"270 340 LINE",
"270 99 LINE",
"117 181 LINE",
"87 126 LINE",
"338 -13 LINE"
);
},
{
closed = 1;
nodes = (
"112 279 LINE",
"112 615 LINE",
"49 615 LINE",
"49 279 LINE"
);
}
);
width = 493;
}
);
unicode = A11C;
},
{
glyphname = uniA11D;
lastChange = "2017-01-18 15:57:01 +0000";
layers = (
{
layerId = UUID0;
paths = (
{
closed = 1;
nodes = (
"269 0 LINE",
"269 267 LINE",
"459 267 LINE",
"459 320 LINE",
"269 320 LINE",
"269 523 LINE",
"434 452 LINE",
"434 714 LINE",
"370 714 LINE",
"370 544 LINE",
"200 617 LINE",
"200 320 LINE",
"39 320 LINE",
"39 267 LINE",
"200 267 LINE",
"200 0 LINE"
);
}
);
width = 508;
}
);
unicode = A11D;
},
{
glyphname = uniA11F;
lastChange = "2017-01-18 15:57:01 +0000";
layers = (
{
layerId = UUID0;
paths = (
{
closed = 1;
nodes = (
"352 329 LINE",
"487 329 LINE",
"487 383 LINE",
"352 383 LINE",
"352 619 LINE",
"503 533 LINE",
"533 588 LINE",
"283 727 LINE",
"283 383 LINE",
"88 383 LINE",
"88 329 LINE",
"283 329 LINE",
"283 99 LINE",
"131 181 LINE",
"101 126 LINE",
"352 -13 LINE"
);
},
{
closed = 1;
nodes = (
"205 454 OFFCURVE",
"252 484 OFFCURVE",
"252 548 CURVE SMOOTH",
"252 582 OFFCURVE",
"234 621 OFFCURVE",
"220 649 CURVE SMOOTH",
"190 708 LINE",
"131 678 LINE",
"168 610 LINE SMOOTH",
"176 596 OFFCURVE",
"189 576 OFFCURVE",
"189 549 CURVE SMOOTH",
"189 530 OFFCURVE",
"174 512 OFFCURVE",
"146 512 CURVE SMOOTH",
"134 512 OFFCURVE",
"109 517 OFFCURVE",
"92 543 CURVE",
"39 512 LINE",
"62 474 OFFCURVE",
"96 454 OFFCURVE",
"144 454 CURVE SMOOTH"
);
}
);
width = 572;
}
);
unicode = A11F;
},
{
glyphname = uniA120;
lastChange = "2017-01-18 15:57:01 +0000";
layers = (
{
layerId = UUID0;
paths = (
{
closed = 1;
nodes = (
"481 714 LINE",
"413 714 LINE",
"413 70 LINE",
"106 166 LINE",
"86 105 LINE",
"481 -15 LINE"
);
},
{
closed = 1;
nodes = (
"101 249 LINE",
"114 327 OFFCURVE",
"128 378 OFFCURVE",
"203 378 CURVE SMOOTH",
"266 378 OFFCURVE",
"287 326 OFFCURVE",
"298 249 CURVE",
"359 249 LINE",
"339 357 OFFCURVE",
"298 437 OFFCURVE",
"204 437 CURVE SMOOTH",
"101 437 OFFCURVE",
"60 360 OFFCURVE",
"39 249 CURVE"
);
},
{
closed = 1;
nodes = (
"298 474 OFFCURVE",
"339 553 OFFCURVE",
"359 662 CURVE",
"298 662 LINE",
"287 585 OFFCURVE",
"266 532 OFFCURVE",
"203 532 CURVE SMOOTH",
"128 532 OFFCURVE",
"114 583 OFFCURVE",
"101 662 CURVE",
"39 662 LINE",
"60 550 OFFCURVE",
"101 474 OFFCURVE",
"204 474 CURVE SMOOTH"
);
}
);
width = 569;
}
);
unicode = A120;
},
{
glyphname = uniA121;
lastChange = "2017-01-18 15:57:01 +0000";
layers = (
{
layerId = UUID0;
paths = (
{
closed = 1;
nodes = (
"292 0 LINE SMOOTH",
"388 0 OFFCURVE",
"410 34 OFFCURVE",
"410 121 CURVE SMOOTH",
"410 592 LINE SMOOTH",
"410 678 OFFCURVE",
"388 714 OFFCURVE",
"292 714 CURVE SMOOTH",
"49 714 LINE",
"49 655 LINE",
"287 655 LINE SMOOTH",
"336 655 OFFCURVE",
"342 643 OFFCURVE",
"342 597 CURVE SMOOTH",
"342 117 LINE SMOOTH",
"342 72 OFFCURVE",
"336 59 OFFCURVE",
"287 59 CURVE SMOOTH",
"49 59 LINE",
"49 0 LINE"
);
},
{
closed = 1;
nodes = (
"242 247 LINE",
"152 247 OFFCURVE",
"122 317 OFFCURVE",
"122 375 CURVE SMOOTH",
"122 434 OFFCURVE",
"153 514 OFFCURVE",
"242 514 CURVE",
"242 567 LINE",
"111 567 OFFCURVE",
"58 456 OFFCURVE",
"58 375 CURVE SMOOTH",
"58 291 OFFCURVE",
"113 192 OFFCURVE",
"242 192 CURVE"
);
}
);
width = 498;
}
);
unicode = A121;
},
{
glyphname = uniA123;
lastChange = "2017-01-18 15:57:01 +0000";
layers = (
{
layerId = UUID0;
paths = (
{
closed = 1;
nodes = (
"311 248 LINE SMOOTH",
"410 248 OFFCURVE",
"479 283 OFFCURVE",
"479 377 CURVE SMOOTH",
"479 466 OFFCURVE",
"427 505 OFFCURVE",
"311 505 CURVE SMOOTH",
"49 505 LINE",
"49 446 LINE",
"311 446 LINE SMOOTH",
"375 446 OFFCURVE",
"415 431 OFFCURVE",
"415 377 CURVE SMOOTH",
"415 323 OFFCURVE",
"378 306 OFFCURVE",
"311 306 CURVE SMOOTH",
"49 306 LINE",
"49 248 LINE"
);
},
{
closed = 1;
nodes = (
"155 0 LINE",
"155 173 LINE",
"91 173 LINE",
"91 0 LINE"
);
},
{
closed = 1;
nodes = (
"391 0 LINE",
"391 173 LINE",
"328 173 LINE",
"328 0 LINE"
);
},
{
closed = 1;
nodes = (
"155 564 LINE",
"155 714 LINE",
"91 714 LINE",
"91 564 LINE"
);
},
{
closed = 1;
nodes = (
"391 564 LINE",
"391 714 LINE",
"328 714 LINE",
"328 564 LINE"
);
}
);
width = 537;
}
);
unicode = A123;
},
{
glyphname = uniA124;
lastChange = "2017-01-18 15:57:01 +0000";
layers = (
{
layerId = UUID0;
paths = (
{
closed = 1;
nodes = (
"292 0 LINE SMOOTH",
"388 0 OFFCURVE",
"410 34 OFFCURVE",
"410 121 CURVE SMOOTH",
"410 592 LINE SMOOTH",
"410 678 OFFCURVE",
"388 714 OFFCURVE",
"292 714 CURVE SMOOTH",
"49 714 LINE",
"49 655 LINE",
"287 655 LINE SMOOTH",
"336 655 OFFCURVE",
"342 643 OFFCURVE",
"342 597 CURVE SMOOTH",
"342 117 LINE SMOOTH",
"342 72 OFFCURVE",
"336 59 OFFCURVE",
"287 59 CURVE SMOOTH",
"49 59 LINE",
"49 0 LINE"
);
},
{
closed = 1;
nodes = (
"288 173 LINE",
"288 227 LINE",
"79 227 LINE",
"79 173 LINE"
);
},
{
closed = 1;
nodes = (
"288 339 LINE",
"288 393 LINE",
"79 393 LINE",
"79 339 LINE"
);
},
{
closed = 1;
nodes = (
"288 505 LINE",
"288 559 LINE",
"79 559 LINE",
"79 505 LINE"
);
}
);
width = 498;
}
);
unicode = A124;
},
{
glyphname = uniA125;
lastChange = "2017-01-18 15:57:01 +0000";
layers = (
{
layerId = UUID0;
paths = (
{
closed = 1;
nodes = (
"520 48 LINE",
"456 64 OFFCURVE",
"409 110 OFFCURVE",
"409 194 CURVE SMOOTH",
"409 272 OFFCURVE",
"440 303 OFFCURVE",
"508 328 CURVE",
"508 384 LINE",
"440 409 OFFCURVE",
"409 440 OFFCURVE",
"409 518 CURVE SMOOTH",
"409 602 OFFCURVE",
"456 647 OFFCURVE",
"520 664 CURVE",
"500 718 LINE",
"391 691 OFFCURVE",
"345 606 OFFCURVE",
"345 518 CURVE SMOOTH",
"345 460 OFFCURVE",
"376 395 OFFCURVE",
"443 356 CURVE",
"376 317 OFFCURVE",
"345 252 OFFCURVE",
"345 194 CURVE SMOOTH",
"345 105 OFFCURVE",
"391 21 OFFCURVE",
"500 -6 CURVE"
);
},
{
closed = 1;
nodes = (
"311 15 LINE",
"311 204 LINE",
"248 204 LINE",
"248 15 LINE"
);
},
{
closed = 1;
nodes = (
"168 21 OFFCURVE",
"213 105 OFFCURVE",
"213 194 CURVE SMOOTH",
"213 252 OFFCURVE",
"182 317 OFFCURVE",
"116 356 CURVE",
"182 395 OFFCURVE",
"213 460 OFFCURVE",
"213 518 CURVE SMOOTH",
"213 606 OFFCURVE",
"168 691 OFFCURVE",
"59 718 CURVE",
"39 664 LINE",
"103 647 OFFCURVE",
"150 602 OFFCURVE",
"150 518 CURVE SMOOTH",
"150 440 OFFCURVE",
"118 409 OFFCURVE",
"51 384 CURVE",
"51 328 LINE",
"118 303 OFFCURVE",
"150 272 OFFCURVE",
"150 194 CURVE SMOOTH",
"150 110 OFFCURVE",
"103 64 OFFCURVE",
"39 48 CURVE",
"59 -6 LINE"
);
},
{
closed = 1;
nodes = (
"311 510 LINE",
"311 699 LINE",
"248 699 LINE",
"248 510 LINE"
);
}
);
width = 559;
}
);
unicode = A125;
},
{
glyphname = uniA127;
lastChange = "2017-01-18 15:57:01 +0000";
layers = (
{
layerId = UUID0;
paths = (
{
closed = 1;
nodes = (
"137 0 LINE",
"137 186 LINE",
"394 96 LINE",
"394 714 LINE",
"326 714 LINE",
"326 613 LINE",
"39 613 LINE",
"39 560 LINE",
"326 560 LINE",
"326 496 LINE",
"39 496 LINE",
"39 442 LINE",
"326 442 LINE",
"326 379 LINE",
"39 379 LINE",
"39 325 LINE",
"326 325 LINE",
"326 185 LINE",
"68 278 LINE",
"68 0 LINE"
);
}
);
width = 482;
}
);
unicode = A127;
},
{
glyphname = uniA128;
lastChange = "2017-01-18 15:57:01 +0000";
layers = (
{
layerId = UUID0;
paths = (
{
closed = 1;
nodes = (
"208 714 LINE",
"140 714 LINE",
"140 106 LINE",
"70 153 LINE",
"39 104 LINE",
"208 -13 LINE"
);
},
{
closed = 1;
nodes = (
"328 136 LINE",
"328 260 LINE",
"265 260 LINE",
"265 136 LINE"
);
},
{
closed = 1;
nodes = (
"328 321 LINE",
"328 445 LINE",
"265 445 LINE",
"265 321 LINE"
);
},
{
closed = 1;
nodes = (
"453 0 LINE",
"453 530 LINE",
"537 472 LINE",
"537 714 LINE",
"468 714 LINE",
"468 582 LINE",
"384 641 LINE",
"384 0 LINE"
);
},
{
closed = 1;
nodes = (
"328 507 LINE",
"328 631 LINE",
"265 631 LINE",
"265 507 LINE"
);
}
);
width = 595;
}
);
unicode = A128;
},
{
glyphname = uniA129;
lastChange = "2017-01-18 15:57:01 +0000";
layers = (
{
layerId = UUID0;
paths = (
{
closed = 1;
nodes = (
"290 235 LINE",
"441 148 LINE",
"471 205 LINE",
"290 308 LINE",
"290 420 LINE",
"441 334 LINE",
"471 390 LINE",
"290 494 LINE",
"290 619 LINE",
"441 533 LINE",
"471 588 LINE",
"221 727 LINE",
"221 99 LINE",
"69 181 LINE",
"39 126 LINE",
"290 -13 LINE"
);
}
);
width = 510;
}
);
unicode = A129;
},
{
glyphname = uniA12B;
lastChange = "2017-01-18 15:57:01 +0000";
layers = (
{
layerId = UUID0;
paths = (
{
closed = 1;
nodes = (
"127 0 LINE",
"127 196 LINE",
"314 111 LINE",
"314 308 LINE",
"465 222 LINE",
"495 278 LINE",
"314 381 LINE",
"314 459 LINE",
"465 373 LINE",
"495 429 LINE",
"314 532 LINE",
"314 619 LINE",
"465 533 LINE",
"495 588 LINE",
"246 727 LINE",
"246 209 LINE",
"59 293 LINE",
"59 0 LINE"
);
},
{
closed = 1;
nodes = (
"122 428 LINE",
"122 632 LINE",
"59 632 LINE",
"59 428 LINE"
);
}
);
width = 534;
}
);
unicode = A12B;
},
{
glyphname = uniA12C;
lastChange = "2017-01-18 15:57:01 +0000";
layers = (
{
layerId = UUID0;
paths = (
{
closed = 1;
nodes = (
"347 0 LINE SMOOTH",
"423 0 OFFCURVE",
"474 64 OFFCURVE",
"474 134 CURVE SMOOTH",
"474 174 OFFCURVE",
"462 222 OFFCURVE",
"426 250 CURVE",
"456 275 OFFCURVE",
"474 314 OFFCURVE",
"474 355 CURVE SMOOTH",
"474 396 OFFCURVE",
"462 442 OFFCURVE",
"426 470 CURVE",
"456 495 OFFCURVE",
"474 535 OFFCURVE",
"474 576 CURVE SMOOTH",
"474 638 OFFCURVE",
"447 714 OFFCURVE",
"344 714 CURVE SMOOTH",
"327 714 LINE",
"327 655 LINE",
"344 655 LINE SMOOTH",
"391 655 OFFCURVE",
"413 617 OFFCURVE",
"413 576 CURVE SMOOTH",
"413 532 OFFCURVE",
"389 494 OFFCURVE",
"344 494 CURVE SMOOTH",
"327 494 LINE",
"327 435 LINE",
"344 435 LINE SMOOTH",
"391 435 OFFCURVE",
"413 396 OFFCURVE",
"413 355 CURVE SMOOTH",
"413 313 OFFCURVE",
"386 274 OFFCURVE",
"344 274 CURVE SMOOTH",
"327 274 LINE",
"327 215 LINE",
"344 215 LINE SMOOTH",
"391 215 OFFCURVE",
"413 175 OFFCURVE",
"413 134 CURVE SMOOTH",
"413 89 OFFCURVE",
"388 52 OFFCURVE",
"341 52 CURVE SMOOTH",
"327 52 LINE",
"327 0 LINE"
);
},
{
closed = 1;
nodes = (
"299 83 LINE",
"299 181 LINE",
"236 181 LINE",
"236 83 LINE"
);
},
{
closed = 1;
nodes = (
"210 0 LINE",
"210 52 LINE",
"196 52 LINE SMOOTH",
"150 52 OFFCURVE",
"125 89 OFFCURVE",
"125 134 CURVE SMOOTH",
"125 175 OFFCURVE",
"146 215 OFFCURVE",
"193 215 CURVE SMOOTH",
"210 215 LINE",
"210 274 LINE",
"193 274 LINE SMOOTH",
"151 274 OFFCURVE",
"125 313 OFFCURVE",
"125 355 CURVE SMOOTH",
"125 396 OFFCURVE",
"146 435 OFFCURVE",
"193 435 CURVE SMOOTH",
"210 435 LINE",
"210 494 LINE",
"193 494 LINE SMOOTH",
"149 494 OFFCURVE",
"125 532 OFFCURVE",
"125 576 CURVE SMOOTH",
"125 617 OFFCURVE",
"146 655 OFFCURVE",
"193 655 CURVE SMOOTH",
"210 655 LINE",
"210 714 LINE",
"193 714 LINE SMOOTH",
"91 714 OFFCURVE",
"63 638 OFFCURVE",
"63 576 CURVE SMOOTH",
"63 535 OFFCURVE",
"82 495 OFFCURVE",
"112 470 CURVE",
"75 442 OFFCURVE",
"63 396 OFFCURVE",
"63 355 CURVE SMOOTH",
"63 314 OFFCURVE",
"82 275 OFFCURVE",
"112 250 CURVE",
"75 222 OFFCURVE",
"63 174 OFFCURVE",
"63 134 CURVE SMOOTH",
"63 64 OFFCURVE",
"114 0 OFFCURVE",
"191 0 CURVE SMOOTH"
);
},
{
closed = 1;
nodes = (
"299 306 LINE",
"299 403 LINE",
"236 403 LINE",
"236 306 LINE"
);
},
{
closed = 1;
nodes = (
"299 526 LINE",
"299 624 LINE",
"236 624 LINE",
"236 526 LINE"
);
}
);
width = 538;
}
);
unicode = A12C;
},
{
glyphname = uniA12E;
lastChange = "2017-01-18 15:57:01 +0000";
layers = (
{
layerId = UUID0;
paths = (
{
closed = 1;
nodes = (
"475 714 LINE",
"406 714 LINE",
"406 70 LINE",
"100 166 LINE",
"80 105 LINE",
"475 -15 LINE"
);
},
{
closed = 1;
nodes = (
"241 191 LINE",
"241 281 LINE",
"344 281 LINE",
"344 335 LINE",
"241 335 LINE",
"241 459 LINE",
"339 381 LINE",
"374 427 LINE",
"252 522 LINE",
"374 619 LINE",
"338 663 LINE",
"241 585 LINE",
"241 686 LINE",
"177 686 LINE",
"177 581 LINE",
"74 663 LINE",
"39 619 LINE",
"161 522 LINE",
"39 427 LINE",
"73 381 LINE",
"177 463 LINE",
"177 335 LINE",
"68 335 LINE",
"68 281 LINE",
"177 281 LINE",
"177 191 LINE"
);
}
);
width = 563;
}
);
unicode = A12E;
},
{
glyphname = uniA12F;
lastChange = "2017-01-18 15:57:01 +0000";
layers = (
{
layerId = UUID0;
paths = (
{
closed = 1;
nodes = (
"300 0 LINE",
"300 251 LINE",
"376 231 OFFCURVE",
"416 143 OFFCURVE",
"429 15 CURVE",
"493 15 LINE",
"476 174 OFFCURVE",
"418 292 OFFCURVE",
"303 311 CURVE",
"303 445 LINE",
"454 358 LINE",
"484 415 LINE",
"303 518 LINE",
"303 619 LINE",
"454 533 LINE",
"484 588 LINE",
"234 727 LINE",
"234 311 LINE",
"121 291 OFFCURVE",
"61 173 OFFCURVE",
"44 15 CURVE",
"108 15 LINE",
"122 143 OFFCURVE",
"164 232 OFFCURVE",
"237 251 CURVE",
"237 0 LINE"
);
}
);
width = 537;
}
);
unicode = A12F;
},
{
glyphname = uniA130;
lastChange = "2017-01-18 15:57:01 +0000";
layers = (
{
layerId = UUID0;
paths = (
{
closed = 1;
nodes = (
"308 -13 OFFCURVE",
"348 48 OFFCURVE",
"367 138 CURVE",
"398 82 OFFCURVE",
"444 34 OFFCURVE",
"505 -5 CURVE",
"541 48 LINE",
"435 119 OFFCURVE",
"383 207 OFFCURVE",
"383 357 CURVE SMOOTH",
"383 505 OFFCURVE",
"436 600 OFFCURVE",
"541 667 CURVE",
"505 720 LINE",
"444 679 OFFCURVE",
"398 632 OFFCURVE",
"368 578 CURVE",
"350 668 OFFCURVE",
"310 727 OFFCURVE",
"226 727 CURVE SMOOTH",
"87 727 OFFCURVE",
"68 566 OFFCURVE",
"68 362 CURVE SMOOTH",
"68 158 OFFCURVE",
"83 -13 OFFCURVE",
"225 -13 CURVE SMOOTH"
);
},
{
closed = 1;
nodes = (
"142 46 OFFCURVE",
"137 183 OFFCURVE",
"137 362 CURVE SMOOTH",
"137 543 OFFCURVE",
"142 668 OFFCURVE",
"225 668 CURVE SMOOTH",
"309 668 OFFCURVE",
"314 539 OFFCURVE",
"314 358 CURVE SMOOTH",
"314 178 OFFCURVE",
"309 46 OFFCURVE",
"225 46 CURVE SMOOTH"
);
},
{
closed = 1;
nodes = (
"492 291 LINE",
"492 442 LINE",
"428 442 LINE",
"428 291 LINE"
);
}
);
width = 590;
}
);
unicode = A130;
},
{
glyphname = uniA132;
lastChange = "2017-01-18 15:57:01 +0000";
layers = (
{
layerId = UUID0;
paths = (
{
closed = 1;
nodes = (
"453 -13 OFFCURVE",
"524 142 OFFCURVE",
"524 358 CURVE SMOOTH",
"524 574 OFFCURVE",
"453 727 OFFCURVE",
"296 727 CURVE SMOOTH",
"143 727 OFFCURVE",
"68 576 OFFCURVE",
"68 362 CURVE SMOOTH",
"68 148 OFFCURVE",
"138 -13 OFFCURVE",
"296 -13 CURVE SMOOTH"
);
},
{
closed = 1;
nodes = (
"179 46 OFFCURVE",
"137 183 OFFCURVE",
"137 362 CURVE SMOOTH",
"137 543 OFFCURVE",
"188 668 OFFCURVE",
"295 668 CURVE SMOOTH",
"409 668 OFFCURVE",
"456 539 OFFCURVE",
"456 358 CURVE SMOOTH",
"456 178 OFFCURVE",
"409 46 OFFCURVE",
"295 46 CURVE SMOOTH"
);
}
);
width = 592;
}
);
unicode = A132;
},
{
glyphname = uniA133;
lastChange = "2017-01-18 15:57:01 +0000";
layers = (
{
layerId = UUID0;
paths = (
{
closed = 1;
nodes = (
"220 0 LINE",
"220 230 LINE",
"332 145 LINE",
"332 406 LINE",
"467 417 OFFCURVE",
"528 484 OFFCURVE",
"528 566 CURVE SMOOTH",
"528 654 OFFCURVE",
"457 727 OFFCURVE",
"296 727 CURVE SMOOTH",
"136 727 OFFCURVE",
"63 654 OFFCURVE",
"63 566 CURVE SMOOTH",
"63 484 OFFCURVE",
"126 416 OFFCURVE",
"263 406 CURVE",
"263 263 LINE",
"151 347 LINE",
"151 0 LINE"
);
},
{
closed = 1;
nodes = (
"103 60 LINE",
"103 239 LINE",
"39 239 LINE",
"39 60 LINE"
);
},
{
closed = 1;
nodes = (
"444 60 LINE",
"444 239 LINE",
"380 239 LINE",
"380 60 LINE"
);
},
{
closed = 1;
nodes = (
"181 459 OFFCURVE",
"127 503 OFFCURVE",
"127 566 CURVE SMOOTH",
"127 629 OFFCURVE",
"181 673 OFFCURVE",
"296 673 CURVE SMOOTH",
"412 673 OFFCURVE",
"465 629 OFFCURVE",
"465 566 CURVE SMOOTH",
"465 503 OFFCURVE",
"412 459 OFFCURVE",
"296 459 CURVE SMOOTH"
);
}
);
width = 587;
}
);
unicode = A133;
},
{
glyphname = uniA135;
lastChange = "2017-01-18 15:57:01 +0000";
layers = (
{
layerId = UUID0;
paths = (
{
closed = 1;
nodes = (
"329 357 LINE",
"386 357 LINE",
"386 227 LINE",
"449 227 LINE",
"449 357 LINE",
"503 357 LINE",
"503 227 LINE",
"566 227 LINE",
"566 521 LINE",
"503 521 LINE",
"503 411 LINE",
"449 411 LINE",
"449 521 LINE",
"386 521 LINE",
"386 411 LINE",
"329 411 LINE",
"329 641 LINE",
"528 563 LINE",
"550 620 LINE",
"260 729 LINE",
"260 73 LINE",
"61 150 LINE",
"39 94 LINE",
"329 -15 LINE"
);
},
{
closed = 1;
nodes = (
"185 525 LINE",
"225 502 LINE",
"253 553 LINE",
"122 630 LINE",
"122 305 LINE",
"80 330 LINE",
"51 279 LINE",
"185 201 LINE"
);
}
);
width = 615;
}
);
unicode = A135;
},
{
glyphname = uniA136;
lastChange = "2017-01-18 15:57:01 +0000";
layers = (
{
layerId = UUID0;
paths = (
{
closed = 1;
nodes = (
"303 0 LINE",
"303 529 LINE",
"479 434 LINE",
"479 714 LINE",
"410 714 LINE",
"410 535 LINE",
"59 729 LINE",
"59 443 LINE",
"127 443 LINE",
"127 625 LINE",
"234 567 LINE",
"234 0 LINE"
);
},
{
closed = 1;
nodes = (
"142 127 LINE",
"142 356 LINE",
"78 356 LINE",
"78 127 LINE"
);
},
{
closed = 1;
nodes = (
"459 127 LINE",
"459 356 LINE",
"396 356 LINE",
"396 127 LINE"
);
}
);
width = 537;
}
);
unicode = A136;
},
{
glyphname = uniA138;
lastChange = "2017-01-18 15:57:01 +0000";
layers = (
{
layerId = UUID0;
paths = (
{
closed = 1;
nodes = (
"301 619 LINE",
"452 533 LINE",
"482 588 LINE",
"232 727 LINE",
"232 99 LINE",
"80 181 LINE",
"50 126 LINE",
"301 -13 LINE"
);
},
{
closed = 1;
nodes = (
"190 430 LINE",
"76 510 LINE",
"39 458 LINE",
"154 378 LINE"
);
},
{
closed = 1;
nodes = (
"200 591 LINE",
"85 671 LINE",
"49 619 LINE",
"164 540 LINE"
);
}
);
width = 521;
}
);
unicode = A138;
},
{
glyphname = uniA139;
lastChange = "2017-01-18 15:57:01 +0000";
layers = (
{
layerId = UUID0;
paths = (
{
closed = 1;
nodes = (
"479 0 LINE",
"479 59 LINE",
"303 59 LINE",
"303 210 LINE",
"459 210 LINE",
"459 269 LINE",
"303 269 LINE",
"303 480 LINE",
"479 385 LINE",
"479 665 LINE",
"410 665 LINE",
"410 486 LINE",
"303 545 LINE",
"303 714 LINE",
"234 714 LINE",
"234 583 LINE",
"59 680 LINE",
"59 395 LINE",
"127 395 LINE",
"127 577 LINE",
"234 518 LINE",
"234 269 LINE",
"78 269 LINE",
"78 210 LINE",
"234 210 LINE",
"234 59 LINE",
"59 59 LINE",
"59 0 LINE"
);
}
);
width = 537;
}
);
unicode = A139;
},
{
glyphname = uniA13B;
lastChange = "2017-01-18 15:57:01 +0000";
layers = (
{
layerId = UUID0;
paths = (
{
closed = 1;
nodes = (
"479 0 LINE",
"479 59 LINE",
"303 59 LINE",
"303 190 LINE",
"459 190 LINE",
"459 249 LINE",
"303 249 LINE",
"303 474 LINE",
"410 474 LINE",
"410 330 LINE",
"479 330 LINE",
"479 670 LINE",
"410 670 LINE",
"410 532 LINE",
"303 532 LINE",
"303 714 LINE",
"234 714 LINE",
"234 532 LINE",
"127 532 LINE",
"127 669 LINE",
"59 669 LINE",
"59 330 LINE",
"127 330 LINE",
"127 474 LINE",
"234 474 LINE",
"234 249 LINE",
"78 249 LINE",
"78 190 LINE",
"234 190 LINE",
"234 59 LINE",
"59 59 LINE",
"59 0 LINE"
);
}
);
width = 537;
}
);
unicode = A13B;
},
{
glyphname = uniA13C;
lastChange = "2017-01-18 15:57:01 +0000";
layers = (
{
layerId = UUID0;
paths = (
{
closed = 1;
nodes = (
"303 0 LINE",
"303 250 LINE",
"377 229 OFFCURVE",
"416 142 OFFCURVE",
"429 15 CURVE",
"493 15 LINE",
"476 174 OFFCURVE",
"418 292 OFFCURVE",
"303 311 CURVE",
"303 508 LINE",
"410 508 LINE",
"410 403 LINE",
"479 403 LINE",
"479 670 LINE",
"410 670 LINE",
"410 566 LINE",
"303 566 LINE",
"303 714 LINE",
"234 714 LINE",
"234 566 LINE",
"127 566 LINE",
"127 669 LINE",
"59 669 LINE",
"59 403 LINE",
"127 403 LINE",
"127 508 LINE",
"234 508 LINE",
"234 311 LINE",
"121 291 OFFCURVE",
"61 173 OFFCURVE",
"44 15 CURVE",
"108 15 LINE",
"122 141 OFFCURVE",
"163 229 OFFCURVE",
"234 250 CURVE",
"234 0 LINE"
);
}
);
width = 537;
}
);
unicode = A13C;
},
{
glyphname = uniA13D;
lastChange = "2017-01-18 15:57:01 +0000";
layers = (
{
layerId = UUID0;
paths = (
{
closed = 1;
nodes = (
"491 0 LINE",
"491 59 LINE",
"315 59 LINE",
"315 196 LINE",
"451 208 OFFCURVE",
"504 295 OFFCURVE",
"504 368 CURVE SMOOTH",
"504 440 OFFCURVE",
"451 528 OFFCURVE",
"315 541 CURVE",
"315 655 LINE",
"491 655 LINE",
"491 714 LINE",
"96 714 LINE",
"96 655 LINE",
"247 655 LINE",
"247 541 LINE",
"112 528 OFFCURVE",
"59 440 OFFCURVE",
"59 368 CURVE SMOOTH",
"59 292 OFFCURVE",
"112 208 OFFCURVE",
"247 196 CURVE",
"247 59 LINE",
"96 59 LINE",
"96 0 LINE"
);
},
{
closed = 1;
nodes = (
"158 265 OFFCURVE",
"127 312 OFFCURVE",
"127 368 CURVE SMOOTH",
"127 425 OFFCURVE",
"158 472 OFFCURVE",
"247 481 CURVE",
"247 255 LINE"
);
},
{
closed = 1;
nodes = (
"315 481 LINE",
"404 472 OFFCURVE",
"436 425 OFFCURVE",
"436 368 CURVE SMOOTH",
"436 312 OFFCURVE",
"404 264 OFFCURVE",
"315 255 CURVE"
);
}
);
width = 563;
}
);
unicode = A13D;
},
{
glyphname = uniA13F;
lastChange = "2017-01-18 15:57:01 +0000";
layers = (
{
layerId = UUID0;
paths = (
{
closed = 1;
nodes = (
"479 0 LINE",
"479 59 LINE",
"303 59 LINE",
"303 176 LINE",
"459 176 LINE",
"459 234 LINE",
"303 234 LINE",
"303 381 LINE",
"478 271 LINE",
"478 606 LINE",
"303 495 LINE",
"303 655 LINE",
"479 655 LINE",
"479 714 LINE",
"59 714 LINE",
"59 655 LINE",
"234 655 LINE",
"234 491 LINE",
"89 582 LINE",
"60 536 LINE",
"213 438 LINE",
"60 341 LINE",
"89 295 LINE",
"234 385 LINE",
"234 234 LINE",
"78 234 LINE",
"78 176 LINE",
"234 176 LINE",
"234 59 LINE",
"59 59 LINE",
"59 0 LINE"
);
},
{
closed = 1;
nodes = (
"319 438 LINE",
"414 497 LINE",
"414 379 LINE"
);
}
);
width = 537;
}
);
unicode = A13F;
},
